<svg version="1.1" xmlns="http://www.w3.org/2000/svg" viewBox="0 0 513 276.0241811960001" width="1026" height="552.0483623920002">
  <!-- svg-source:excalidraw -->
  
  <defs>
    <style>
      @font-face {
        font-family: "Virgil";
        src: url("https://excalidraw.com/Virgil.woff2");
      }
      @font-face {
        font-family: "Cascadia";
        src: url("https://excalidraw.com/Cascadia.woff2");
      }
    </style>
  </defs>
  <g transform="translate(113 10) rotate(0 143.5 22.5)"><text x="0" y="32" font-family="Virgil, Segoe UI Emoji" font-size="36px" fill="#000000" text-anchor="start" style="white-space: pre;" direction="ltr">Artificial Neuron</text></g><g stroke-linecap="round" transform="translate(244.67952198460353 139.60404142722723) rotate(0 29.111111111111143 31.77777777777777)"><path d="M1.8 0 C16.93 -1.83, 33.54 0.96, 57.13 0.71 M-0.27 0.01 C20.8 0.75, 40.94 0.59, 58.3 0.57 M58.43 0.42 C56.64 13.75, 59.91 25.84, 58.45 62.28 M58.4 0.76 C58.76 15.7, 57.53 32.36, 57.54 63.98 M58.53 62.4 C39 64.61, 21.77 63.71, 0.28 63.18 M57.26 62.74 C40.2 62.47, 24.26 62.61, 0.89 64.41 M1.16 62.39 C1.3 44.88, -1.46 28.16, -0.64 -0.58 M0.62 62.67 C-0.67 49.86, -0.79 37.18, -0.35 -0.48" stroke="#000000" stroke-width="2" fill="none"></path></g><g stroke-linecap="round" transform="translate(304.6795219846035 140.9373747605606) rotate(0 29.111111111111143 31.77777777777777)"><path d="M-0.33 -1.96 C16.03 -0.03, 27.47 0.57, 57.74 1.17 M-0.5 0.79 C19.37 -0.77, 39.79 -1.18, 57.92 0.91 M56.95 -0.73 C60.78 23.73, 57.88 47.09, 56.33 64.19 M58.19 -0.61 C58.98 20.39, 57.95 40, 57.91 64.03 M56.42 63.14 C43.19 61.53, 24.06 63.36, -0.6 61.73 M58.83 64.34 C38.94 64.13, 21 63.94, -0.89 63.99 M-1.52 63.86 C-0.59 44.8, -0.81 25.13, -0.38 -1.93 M-0.38 62.65 C-0.23 39.48, -0.35 16.13, 0.96 0.01" stroke="#000000" stroke-width="2" fill="none"></path></g><g stroke-linecap="round" transform="translate(101.03014484445629 81.7499876476129) rotate(0 18.3467741935484 18.346774193548413)"><path d="M17.02 -0.54 C20.91 -1.31, 26.01 0.01, 29.2 2.3 C32.38 4.58, 35.05 9.34, 36.14 13.19 C37.23 17.04, 37.15 21.96, 35.74 25.4 C34.33 28.83, 31.38 32.06, 27.69 33.8 C23.99 35.54, 17.45 36.68, 13.54 35.86 C9.63 35.03, 6.56 32.09, 4.22 28.85 C1.88 25.62, -0.63 20.19, -0.5 16.45 C-0.37 12.71, 1.61 9.13, 5 6.41 C8.39 3.7, 16.66 0.89, 19.83 0.16 C23 -0.56, 24.04 1.93, 24.01 2.07 M16.23 1.17 C19.85 0.56, 25.08 0.96, 28.45 2.82 C31.83 4.69, 35.21 8.67, 36.49 12.39 C37.78 16.11, 37.8 21.62, 36.14 25.16 C34.48 28.7, 30.1 31.71, 26.53 33.64 C22.97 35.56, 18.8 37.56, 14.75 36.71 C10.71 35.86, 4.9 31.78, 2.27 28.52 C-0.35 25.27, -1.68 21.25, -1 17.18 C-0.31 13.11, 3.65 7, 6.4 4.12 C9.15 1.23, 13.69 0.6, 15.52 -0.13 C17.35 -0.86, 17.36 -0.83, 17.36 -0.26" stroke="#000000" stroke-width="2" fill="none"></path></g><g stroke-linecap="round" transform="translate(99.41724161864983 124.89514893793546) rotate(0 18.3467741935484 18.346774193548413)"><path d="M17.14 0.68 C20.8 0.47, 25.85 2.44, 28.87 4.51 C31.89 6.57, 34.22 9.33, 35.27 13.06 C36.33 16.79, 36.79 23.32, 35.2 26.9 C33.61 30.47, 29.41 32.94, 25.75 34.51 C22.09 36.07, 16.94 37.26, 13.23 36.28 C9.52 35.31, 5.62 32.12, 3.48 28.63 C1.34 25.15, -0.03 19.43, 0.38 15.38 C0.78 11.32, 2.61 6.9, 5.93 4.33 C9.24 1.76, 17.45 0.63, 20.26 -0.03 C23.07 -0.7, 22.61 0.02, 22.76 0.34 M21.46 -0.18 C25.44 -0.04, 31.43 2.68, 34.02 5.89 C36.61 9.1, 37.35 15.09, 37.01 19.1 C36.67 23.11, 34.88 26.97, 31.97 29.96 C29.07 32.96, 23.59 36.47, 19.56 37.07 C15.53 37.67, 11.15 35.77, 7.82 33.56 C4.5 31.35, 0.54 27.28, -0.4 23.81 C-1.33 20.34, 0.55 16.53, 2.19 12.75 C3.83 8.97, 5.93 3.31, 9.45 1.12 C12.97 -1.06, 21.09 -0.17, 23.31 -0.36 C25.53 -0.56, 23.24 -0.66, 22.77 -0.03" stroke="#000000" stroke-width="2" fill="none"></path></g><g stroke-linecap="round" transform="translate(100.22369323155309 168.44353603470972) rotate(0 18.3467741935484 18.346774193548413)"><path d="M15.24 0.9 C18.84 0.05, 24.28 1.03, 27.8 2.91 C31.32 4.79, 34.96 8.32, 36.37 12.18 C37.77 16.05, 37.95 22.39, 36.24 26.12 C34.53 29.84, 29.61 32.95, 26.12 34.53 C22.62 36.12, 18.96 36.34, 15.28 35.62 C11.59 34.91, 6.53 33.26, 4.02 30.23 C1.52 27.19, 0.03 21.58, 0.26 17.41 C0.49 13.24, 2.6 8.27, 5.42 5.23 C8.23 2.19, 14.77 -0.02, 17.13 -0.83 C19.49 -1.65, 19.27 -0.22, 19.58 0.33 M10.24 2.18 C13.48 0.1, 19.43 -1.09, 23.02 -0.38 C26.61 0.34, 29.7 3.24, 31.77 6.47 C33.84 9.69, 35.33 14.74, 35.43 18.95 C35.54 23.16, 34.7 28.82, 32.41 31.74 C30.11 34.67, 25.49 36.15, 21.68 36.47 C17.86 36.8, 12.91 35.77, 9.53 33.67 C6.15 31.58, 2.81 27.77, 1.4 23.92 C-0.01 20.08, -0.26 14.15, 1.06 10.6 C2.37 7.05, 7.7 4.09, 9.29 2.62 C10.89 1.15, 10.17 1.84, 10.61 1.78" stroke="#000000" stroke-width="2" fill="none"></path></g><g stroke-linecap="round" transform="translate(100.22369323155309 229.33063280890332) rotate(0 18.3467741935484 18.346774193548384)"><path d="M16.88 -0.96 C20.76 -1.36, 26.21 1.08, 29.53 3.64 C32.84 6.2, 36.04 10.6, 36.78 14.39 C37.51 18.18, 35.98 23.03, 33.97 26.4 C31.95 29.77, 28.23 33.04, 24.66 34.6 C21.08 36.16, 16.21 36.76, 12.52 35.76 C8.82 34.76, 4.52 32.02, 2.49 28.6 C0.45 25.18, -0.2 19.05, 0.3 15.26 C0.8 11.47, 2.18 8.53, 5.48 5.87 C8.79 3.21, 17.09 -0.02, 20.15 -0.7 C23.2 -1.38, 23.64 1.51, 23.8 1.79 M17.91 -1.42 C21.64 -1.42, 29.17 1.96, 32.11 5.02 C35.05 8.07, 35.34 13.24, 35.56 16.92 C35.77 20.61, 35.19 24.19, 33.4 27.12 C31.61 30.05, 28.42 33.18, 24.83 34.49 C21.25 35.8, 15.66 36.05, 11.88 34.99 C8.1 33.92, 4.05 31.59, 2.15 28.11 C0.25 24.62, -0.14 18.3, 0.48 14.09 C1.1 9.88, 2.52 5.26, 5.86 2.85 C9.21 0.43, 18.55 0.1, 20.56 -0.4 C22.56 -0.9, 18.18 -0.78, 17.89 -0.16" stroke="#000000" stroke-width="2" fill="none"></path></g><g transform="translate(249.67952198460353 148.881819205005) rotate(0 24 20.5)"><text x="24" y="30" font-family="Virgil, Segoe UI Emoji" font-size="36px" fill="#000000" text-anchor="middle" style="white-space: pre;" direction="ltr">∑</text></g><g transform="translate(309.6795219846035 150.21515253833837) rotate(0 24 20.5)"><text x="24" y="30" font-family="Virgil, Segoe UI Emoji" font-size="36px" fill="#000000" text-anchor="middle" style="white-space: pre;" direction="ltr">f</text></g><g transform="translate(112.12338989764277 85.26335944764207) rotate(0 5.043824701195211 10.507968127490017)"><text x="0" y="15.015936254980048" font-family="Virgil, Segoe UI Emoji" font-size="16.812749003984006px" fill="#000000" text-anchor="start" style="white-space: pre;" direction="ltr">x</text></g><g transform="translate(123.00222748845357 96.265820192896) rotate(0 2.1015936254980008 8.40637450199199)"><text x="0" y="11.812749003984006" font-family="Virgil, Segoe UI Emoji" font-size="13.450199203187214px" fill="#000000" text-anchor="start" style="white-space: pre;" direction="ltr">1</text></g><g transform="translate(109.36969877976122 131.02853404337736) rotate(0 5.043824701195211 10.507968127490017)"><text x="0" y="15.015936254980048" font-family="Virgil, Segoe UI Emoji" font-size="16.812749003984006px" fill="#000000" text-anchor="start" style="white-space: pre;" direction="ltr">x</text></g><g transform="translate(120.24853637057214 142.03099478863084) rotate(0 5.043824701195211 8.40637450199199)"><text x="0" y="11.812749003984006" font-family="Virgil, Segoe UI Emoji" font-size="13.450199203187228px" fill="#000000" text-anchor="start" style="white-space: pre;" direction="ltr">2</text></g><g transform="translate(109.06269151470212 172.3010908748734) rotate(0 5.043824701195211 10.507968127490017)"><text x="0" y="15.015936254980048" font-family="Virgil, Segoe UI Emoji" font-size="16.812749003984006px" fill="#000000" text-anchor="start" style="white-space: pre;" direction="ltr">x</text></g><g transform="translate(119.94152910551611 183.3035516201287) rotate(0 5.043824701195211 8.40637450199199)"><text x="0" y="11.812749003984006" font-family="Virgil, Segoe UI Emoji" font-size="13.450199203187228px" fill="#000000" text-anchor="start" style="white-space: pre;" direction="ltr">3</text></g><g transform="translate(110.82739739705511 234.06579675722634) rotate(0 5.043824701195211 10.507968127490017)"><text x="0" y="15.015936254980048" font-family="Virgil, Segoe UI Emoji" font-size="16.812749003984006px" fill="#000000" text-anchor="start" style="white-space: pre;" direction="ltr">x</text></g><g transform="translate(121.7062349878691 245.06825750248163) rotate(0 3.5 8.5)"><text x="0" y="12" font-family="Virgil, Segoe UI Emoji" font-size="13.450199203187228px" fill="#000000" text-anchor="start" style="white-space: pre;" direction="ltr">n</text></g><g transform="translate(174.76857386764334 218.53638499252048) rotate(0 5.5 10.5)"><text x="0" y="15" font-family="Virgil, Segoe UI Emoji" font-size="16.812749003984006px" fill="#000000" text-anchor="start" style="white-space: pre;" direction="ltr">w</text></g><g transform="translate(185.64741145845733 229.53884573777577) rotate(0 3.5 8.5)"><text x="0" y="12" font-family="Virgil, Segoe UI Emoji" font-size="13.450199203187228px" fill="#000000" text-anchor="start" style="white-space: pre;" direction="ltr">n</text></g><g transform="translate(170.8273973970551 156.4187379336969) rotate(0 5.5 10.5)"><text x="0" y="15" font-family="Virgil, Segoe UI Emoji" font-size="16.812749003984006px" fill="#000000" text-anchor="start" style="white-space: pre;" direction="ltr">w</text></g><g transform="translate(181.7062349878691 167.42119867895218) rotate(0 5 8.5)"><text x="0" y="12" font-family="Virgil, Segoe UI Emoji" font-size="13.450199203187228px" fill="#000000" text-anchor="start" style="white-space: pre;" direction="ltr">3</text></g><g transform="translate(173.4156326911728 131.71285558075573) rotate(0 5.5 10.5)"><text x="0" y="15" font-family="Virgil, Segoe UI Emoji" font-size="16.812749003984006px" fill="#000000" text-anchor="start" style="white-space: pre;" direction="ltr">w</text></g><g transform="translate(184.29447028198678 142.71531632601102) rotate(0 5 8.5)"><text x="0" y="12" font-family="Virgil, Segoe UI Emoji" font-size="13.450199203187228px" fill="#000000" text-anchor="start" style="white-space: pre;" direction="ltr">2</text></g><g transform="translate(175.88622092646693 106.59520852193214) rotate(0 5.5 10.5)"><text x="0" y="15" font-family="Virgil, Segoe UI Emoji" font-size="16.812749003984006px" fill="#000000" text-anchor="start" style="white-space: pre;" direction="ltr">w</text></g><g transform="translate(186.76505851728092 117.59766926718743) rotate(0 2.5 8.5)"><text x="0" y="12" font-family="Virgil, Segoe UI Emoji" font-size="13.450199203187228px" fill="#000000" text-anchor="start" style="white-space: pre;" direction="ltr">1</text></g><g stroke-linecap="round"><g transform="translate(139.21614420012335 106.48842338626042) rotate(0 51.64654233301646 30.021298084203238)"><path d="M0.17 1.13 C38.78 21.6, 74.6 44.02, 101.77 59.89 M0.53 -1 C25.78 16.22, 51.22 31.82, 103.12 61.04" stroke="#000000" stroke-width="2" fill="none"></path></g></g><g stroke-linecap="round"><g transform="translate(139.650926808819 188.96924180058278) rotate(0 52.811468200374634 -9.10129585834764)"><path d="M0.42 0.39 C25.61 -4.85, 52.22 -10, 106.32 -15.66 M-0.7 -0.87 C25.8 -3.39, 49.41 -7.81, 104.99 -18.59" stroke="#000000" stroke-width="2" fill="none"></path></g></g><g stroke-linecap="round"><g transform="translate(138.80693703899803 144.87717018932955) rotate(0 52.56685698331071 12.619381348676313)"><path d="M0.06 0.05 C34.99 9.46, 75.47 15.71, 104.5 25.19 M-0.32 0.32 C34.3 8.33, 69.21 16, 105.46 23.52" stroke="#000000" stroke-width="2" fill="none"></path></g></g><g stroke-linecap="round"><g transform="translate(136.70975033823078 241.32218297705333) rotate(0 52.5779970838305 -33.436927521656116)"><path d="M-1.63 0.48 C39.63 -25.32, 80.35 -50.5, 106.79 -67.72 M-0.67 0.84 C33.18 -22.59, 67.11 -41.87, 105.88 -67.33" stroke="#000000" stroke-width="2" fill="none"></path></g></g><g transform="translate(178.01409816431712 181.06898604610922) rotate(0 3 12.5)"><text x="0" y="18" font-family="Virgil, Segoe UI Emoji" font-size="20px" fill="#000000" text-anchor="start" style="white-space: pre;" direction="ltr">.</text></g><g transform="translate(177.5793155556215 170.93855126350053) rotate(0 3 12.5)"><text x="0" y="18" font-family="Virgil, Segoe UI Emoji" font-size="20px" fill="#000000" text-anchor="start" style="white-space: pre;" direction="ltr">.</text></g><g transform="translate(177.49235903388234 191.0255077852396) rotate(0 3 12.5)"><text x="0" y="18" font-family="Virgil, Segoe UI Emoji" font-size="20px" fill="#000000" text-anchor="start" style="white-space: pre;" direction="ltr">.</text></g><g stroke-linecap="round"><g transform="translate(140.5204920262103 188.96924180058278) rotate(0 52.34449301249185 -9.217438006499634)"><path d="M-0.88 -0.13 C24.21 -3.08, 48.91 -6.77, 104.64 -19.03 M0.93 0.59 C26.95 -4.5, 53.91 -8.71, 105.57 -17.12" stroke="#000000" stroke-width="2" fill="none"></path></g></g><g transform="translate(115.84018512083887 193.24289908958747) rotate(0 3 12.5)"><text x="0" y="18" font-family="Virgil, Segoe UI Emoji" font-size="20px" fill="#000000" text-anchor="start" style="white-space: pre;" direction="ltr">.</text></g><g transform="translate(115.84018512083887 200.59072517654397) rotate(0 3 12.5)"><text x="0" y="18" font-family="Virgil, Segoe UI Emoji" font-size="20px" fill="#000000" text-anchor="start" style="white-space: pre;" direction="ltr">.</text></g><g transform="translate(116.1880112077954 206.93855126350053) rotate(0 3 12.5)"><text x="0" y="18" font-family="Virgil, Segoe UI Emoji" font-size="20px" fill="#000000" text-anchor="start" style="white-space: pre;" direction="ltr">.</text></g><g stroke-linecap="round"><g transform="translate(367.331315934483 169.69311794406798) rotate(0 37.09347814514621 0.5408228533342481)"><path d="M1.31 1.91 C23.59 -0.17, 46.61 0.35, 73.54 0.76 M0.57 -0.83 C25.18 -0.13, 49.56 1.04, 73.62 0.08" stroke="#000000" stroke-width="2" fill="none"></path></g><g transform="translate(367.331315934483 169.69311794406798) rotate(0 37.09347814514621 0.5408228533342481)"><path d="M46.92 12.71 C54.46 7.36, 62.71 4.26, 73.76 0.46 M46.17 9.98 C55.41 6.94, 64.47 4.36, 73.85 -0.22" stroke="#000000" stroke-width="2" fill="none"></path></g><g transform="translate(367.331315934483 169.69311794406798) rotate(0 37.09347814514621 0.5408228533342481)"><path d="M46.58 -7.81 C54.16 -6.49, 62.52 -2.91, 73.76 0.46 M45.83 -10.54 C55.31 -6.66, 64.49 -2.31, 73.85 -0.22" stroke="#000000" stroke-width="2" fill="none"></path></g></g><g transform="translate(255.08074534161486 217.63568111238993) rotate(0 14.32345360824742 9.548969072164965)"><text x="0" y="13.097938144329902" font-family="Virgil, Segoe UI Emoji" font-size="15.27835051546392px" fill="#000000" text-anchor="start" style="white-space: pre;" direction="ltr">Sum</text></g><g transform="translate(300.0799547434925 218.50099984459763) rotate(0 38.195876288659804 9.548969072164965)"><text x="0" y="13.097938144329902" font-family="Virgil, Segoe UI Emoji" font-size="15.27835051546392px" fill="#000000" text-anchor="start" style="white-space: pre;" direction="ltr">Activation</text></g><g transform="translate(308.67402690844096 241.8449442567652) rotate(0 29.601804123711347 9.548969072164937)"><text x="0" y="13.097938144329902" font-family="Virgil, Segoe UI Emoji" font-size="15.278350515463922px" fill="#000000" text-anchor="start" style="white-space: pre;" direction="ltr">function</text></g><g stroke-linecap="round"><g transform="translate(273.10352507838445 206.69964680314575) rotate(0 -1.2945650823675123 5.75062008118752)"><path d="M-1.13 -0.66 C0.39 2.68, -2.23 8.57, -2.13 11.4 M-0.38 -0.41 C-0.67 2.54, -1.67 6.14, -2.21 12.16" stroke="#000000" stroke-width="1" fill="none"></path></g></g><g stroke-linecap="round"><g transform="translate(331.5039295273227 208.9096232102911) rotate(0 0.7334681346338812 5.18830714978148)"><path d="M0.8 0.56 C0.92 1.94, 1.17 4.41, 1.68 9.86 M-0.31 0.01 C0.26 3, 0.25 4.88, 1.78 10.37" stroke="#000000" stroke-width="1" fill="none"></path></g></g><g transform="translate(450 159.80959415586818) rotate(0 26.5 9.5)"><text x="0" y="13" font-family="Virgil, Segoe UI Emoji" font-size="15.27835051546392px" fill="#000000" text-anchor="start" style="white-space: pre;" direction="ltr">Output</text></g><g stroke-linecap="round"><g transform="translate(78.78770842779409 89.8384780539327) rotate(0 -4.87613701387329 41.183656368542756)"><path d="M1.39 -0.41 C0.36 0.44, -3.53 -6.81, -4.36 5.08 C-5.2 16.96, -2.47 57.71, -3.6 70.92 C-4.73 84.13, -9.97 82.33, -11.14 84.34 M0.06 -1.67 C-1.1 -0.67, -4.1 -6, -4.8 6.33 C-5.51 18.66, -3.15 59.65, -4.14 72.31 C-5.14 84.98, -9.52 80.52, -10.78 82.33" stroke="#000000" stroke-width="2" fill="none"></path></g></g><g stroke-linecap="round"><g transform="translate(68.18113824765564 175.73241578012266) rotate(180 6.134024945672643 40.65528494886749)"><path d="M-0.74 -0.01 C0.21 1.17, 5.75 -5.29, 6.61 6.58 C7.47 18.45, 3.39 58.54, 4.4 71.22 C5.42 83.9, 11.44 80.43, 12.68 82.64 M1.07 -1.06 C1.79 -0.16, 4.77 -6.73, 5.74 4.96 C6.71 16.66, 5.68 56.03, 6.89 69.11 C8.1 82.18, 11.88 81.28, 13.01 83.41" stroke="#000000" stroke-width="2" fill="none"></path></g></g><g transform="translate(10 164.95245129872535) rotate(0 20.5 9.5)"><text x="0" y="13" font-family="Virgil, Segoe UI Emoji" font-size="15.27835051546392px" fill="#000000" text-anchor="start" style="white-space: pre;" direction="ltr">Input</text></g></svg>