<svg style="opacity: 0.65;" class="generator__canvas" viewBox="0 0 200 200" xmlns="http://www.w3.org/2000/svg" version="1.1" xmlns:xlink="http://www.w3.org/1999/xlink" xmlns:svgjs="http://svgjs.dev/svgjs"><circle r="5" cx="5" cy="5" fill="#343a42" transform="matrix(0.4407489310363466,0,0,0.4407489310363466,2.7962553448182668,2.7962553448182668)"></circle><circle r="5" cx="5" cy="15" fill="#343a42" transform="matrix(0.39919274649200676,0,0,0.39919274649200676,3.0040362675399663,9.012108802619899)"></circle><circle r="5" cx="5" cy="25" fill="#343a42" transform="matrix(0.36890557117128253,0,0,0.36890557117128253,3.1554721441435873,15.777360720717937)"></circle><circle r="5" cx="5" cy="35" fill="#343a42" transform="matrix(0.3558967647277061,0,0,0.3558967647277061,3.2205161763614694,22.543613234530287)"></circle><circle r="5" cx="5" cy="45" fill="#343a42" transform="matrix(0.3628450931623905,0,0,0.3628450931623905,3.1857745341880475,28.67197080769243)"></circle><circle r="5" cx="5" cy="55" fill="#343a42" transform="matrix(0.38848798350082847,0,0,0.38848798350082847,3.0575600824958578,33.63316090745444)"></circle><circle r="5" cx="5" cy="65" fill="#343a42" transform="matrix(0.42887423289170556,0,0,0.42887423289170556,2.8556288355414723,37.123174862039136)"></circle><circle r="5" cx="5" cy="75" fill="#343a42" transform="matrix(0.47944204358160375,0,0,0.47944204358160375,2.6027897820919814,39.04184673137972)"></circle><circle r="5" cx="5" cy="85" fill="#343a42" transform="matrix(0.5346256755691879,0,0,0.5346256755691879,2.3268716221540604,39.556817576619025)"></circle><circle r="5" cx="5" cy="95" fill="#343a42" transform="matrix(0.5885773059439761,0,0,0.5885773059439761,2.05711347028012,39.08515593532228)"></circle><circle r="5" cx="5" cy="105" fill="#343a42" transform="matrix(0.63631491629768,0,0,0.63631491629768,1.8184254185116,38.1869337887436)"></circle><circle r="5" cx="5" cy="115" fill="#343a42" transform="matrix(0.6737184264092373,0,0,0.6737184264092373,1.6314078679538135,37.52238096293772)"></circle><circle r="5" cx="5" cy="125" fill="#343a42" transform="matrix(0.6966826242449564,0,0,0.6966826242449564,1.5165868787752181,37.91467196938045)"></circle><circle r="5" cx="5" cy="135" fill="#343a42" transform="matrix(0.7034474063885735,0,0,0.7034474063885735,1.4827629680571324,40.03460013754258)"></circle><circle r="5" cx="5" cy="145" fill="#343a42" transform="matrix(0.6977676022751467,0,0,0.6977676022751467,1.5111619886242664,43.823697670103726)"></circle><circle r="5" cx="5" cy="155" fill="#343a42" transform="matrix(0.6859526857208946,0,0,0.6859526857208946,1.5702365713955269,48.67733371326133)"></circle><circle r="5" cx="5" cy="165" fill="#343a42" transform="matrix(0.6736863245644742,0,0,0.6736863245644742,1.6315683771776293,53.84175644686175)"></circle><circle r="5" cx="5" cy="175" fill="#343a42" transform="matrix(0.6646070482192599,0,0,0.6646070482192599,1.6769647589037007,58.69376656162953)"></circle><circle r="5" cx="5" cy="185" fill="#343a42" transform="matrix(0.6599252733183846,0,0,0.6599252733183846,1.700373633408077,62.91382443609885)"></circle><circle r="5" cx="5" cy="195" fill="#343a42" transform="matrix(0.658536603183892,0,0,0.658536603183892,1.7073169840805402,66.58536237914106)"></circle><circle r="5" cx="15" cy="5" fill="#343a42" transform="matrix(0.4790846011827782,0,0,0.4790846011827782,7.813730982258328,2.604576994086109)"></circle><circle r="5" cx="15" cy="15" fill="#343a42" transform="matrix(0.42811830315860067,0,0,0.42811830315860067,8.578225452620991,8.578225452620991)"></circle><circle r="5" cx="15" cy="25" fill="#343a42" transform="matrix(0.3855274587648667,0,0,0.3855274587648667,9.217088118526998,15.361813530878333)"></circle><circle r="5" cx="15" cy="35" fill="#343a42" transform="matrix(0.35924879178134633,0,0,0.35924879178134633,9.611268123279805,22.426292287652878)"></circle><circle r="5" cx="15" cy="45" fill="#343a42" transform="matrix(0.35404797333515975,0,0,0.35404797333515975,9.689280399972603,29.06784119991781)"></circle><circle r="5" cx="15" cy="55" fill="#343a42" transform="matrix(0.37029214419839795,0,0,0.37029214419839795,9.445617837024031,34.63393206908811)"></circle><circle r="5" cx="15" cy="65" fill="#343a42" transform="matrix(0.4043871154416949,0,0,0.4043871154416949,8.934193268374576,38.71483749628983)"></circle><circle r="5" cx="15" cy="75" fill="#343a42" transform="matrix(0.4513871676040563,0,0,0.4513871676040563,8.229192485939155,41.14596242969578)"></circle><circle r="5" cx="15" cy="85" fill="#343a42" transform="matrix(0.5067794370673798,0,0,0.5067794370673798,7.398308443989302,41.923747849272715)"></circle><circle r="5" cx="15" cy="95" fill="#343a42" transform="matrix(0.565494286362991,0,0,0.565494286362991,6.517585704555135,41.27804279551585)"></circle><circle r="5" cx="15" cy="105" fill="#343a42" transform="matrix(0.6219992465730704,0,0,0.6219992465730704,5.670011301403944,39.69007910982761)"></circle><circle r="5" cx="15" cy="115" fill="#343a42" transform="matrix(0.6701538400137422,0,0,0.6701538400137422,4.947692399793867,37.93230839841965)"></circle><circle r="5" cx="15" cy="125" fill="#343a42" transform="matrix(0.7039676144913192,0,0,0.7039676144913192,4.440485782630212,37.0040481885851)"></circle><circle r="5" cx="15" cy="135" fill="#343a42" transform="matrix(0.7202156092270589,0,0,0.7202156092270589,4.196765861594118,37.77089275434706)"></circle><circle r="5" cx="15" cy="145" fill="#343a42" transform="matrix(0.7210588886170769,0,0,0.7210588886170769,4.184116670743846,40.446461150523845)"></circle><circle r="5" cx="15" cy="155" fill="#343a42" transform="matrix(0.7114873209060172,0,0,0.7114873209060172,4.3276901864097415,44.71946525956734)"></circle><circle r="5" cx="15" cy="165" fill="#343a42" transform="matrix(0.696450426251636,0,0,0.696450426251636,4.553243606225459,50.085679668480054)"></circle><circle r="5" cx="15" cy="175" fill="#343a42" transform="matrix(0.6796065732333157,0,0,0.6796065732333157,4.805901401500265,56.06884968416975)"></circle><circle r="5" cx="15" cy="185" fill="#343a42" transform="matrix(0.6629748711810415,0,0,0.6629748711810415,5.0553769322843785,62.349648831507324)"></circle><circle r="5" cx="15" cy="195" fill="#343a42" transform="matrix(0.646948125984711,0,0,0.646948125984711,5.295778110229335,68.84511543298136)"></circle><circle r="5" cx="25" cy="5" fill="#343a42" transform="matrix(0.519666379260409,0,0,0.519666379260409,12.008340518489774,2.401668103697955)"></circle><circle r="5" cx="25" cy="15" fill="#343a42" transform="matrix(0.4577532334169842,0,0,0.4577532334169842,13.556169164575396,8.133701498745236)"></circle><circle r="5" cx="25" cy="25" fill="#343a42" transform="matrix(0.40039823960756166,0,0,0.40039823960756166,14.990044009810958,14.990044009810958)"></circle><circle r="5" cx="25" cy="35" fill="#343a42" transform="matrix(0.35749612644153805,0,0,0.35749612644153805,16.062596838961547,22.487635574546168)"></circle><circle r="5" cx="25" cy="45" fill="#343a42" transform="matrix(0.33619270158351733,0,0,0.33619270158351733,16.59518246041207,29.87132842874172)"></circle><circle r="5" cx="25" cy="55" fill="#343a42" transform="matrix(0.3391381369216744,0,0,0.3391381369216744,16.52154657695814,36.34740246930791)"></circle><circle r="5" cx="25" cy="65" fill="#343a42" transform="matrix(0.3641805119526228,0,0,0.3641805119526228,15.89548720118443,41.32826672307952)"></circle><circle r="5" cx="25" cy="75" fill="#343a42" transform="matrix(0.4061721504716699,0,0,0.4061721504716699,14.845696238208253,44.53708871462476)"></circle><circle r="5" cx="25" cy="85" fill="#343a42" transform="matrix(0.4603363441700616,0,0,0.4603363441700616,13.491591395748461,45.871410745544765)"></circle><circle r="5" cx="25" cy="95" fill="#343a42" transform="matrix(0.5218890352644641,0,0,0.5218890352644641,11.952774118388398,45.420541649875915)"></circle><circle r="5" cx="25" cy="105" fill="#343a42" transform="matrix(0.5845623808250562,0,0,0.5845623808250562,10.385940479373595,43.620950013369104)"></circle><circle r="5" cx="25" cy="115" fill="#343a42" transform="matrix(0.640944103740622,0,0,0.640944103740622,8.976397406484448,41.29142806982847)"></circle><circle r="5" cx="25" cy="125" fill="#343a42" transform="matrix(0.6840999110352994,0,0,0.6840999110352994,7.897502224117513,39.48751112058757)"></circle><circle r="5" cx="25" cy="135" fill="#343a42" transform="matrix(0.7094595827717948,0,0,0.7094595827717948,7.263510430705132,39.2229563258077)"></circle><circle r="5" cx="25" cy="145" fill="#343a42" transform="matrix(0.7174683828267753,0,0,0.7174683828267753,7.063290429330618,40.967084490117585)"></circle><circle r="5" cx="25" cy="155" fill="#343a42" transform="matrix(0.711742767739562,0,0,0.711742767739562,7.206430806510948,44.67987100036788)"></circle><circle r="5" cx="25" cy="165" fill="#343a42" transform="matrix(0.6964520794646187,0,0,0.6964520794646187,7.58869801338453,50.085406888337914)"></circle><circle r="5" cx="25" cy="175" fill="#343a42" transform="matrix(0.6751651597921755,0,0,0.6751651597921755,8.120871005195614,56.84609703636929)"></circle><circle r="5" cx="25" cy="185" fill="#343a42" transform="matrix(0.6504858220204973,0,0,0.6504858220204973,8.737854449487568,64.66012292620799)"></circle><circle r="5" cx="25" cy="195" fill="#343a42" transform="matrix(0.6239340915365208,0,0,0.6239340915365208,9.40164771158698,73.33285215037844)"></circle><circle r="5" cx="35" cy="5" fill="#343a42" transform="matrix(0.5580105239201174,0,0,0.5580105239201174,15.46963166279589,2.209947380399413)"></circle><circle r="5" cx="35" cy="15" fill="#343a42" transform="matrix(0.4855085683764555,0,0,0.4855085683764555,18.007200106824058,7.717371474353167)"></circle><circle r="5" cx="35" cy="25" fill="#343a42" transform="matrix(0.4131099081343373,0,0,0.4131099081343373,20.541153215298195,14.672252296641568)"></circle><circle r="5" cx="35" cy="35" fill="#343a42" transform="matrix(0.35249496856249507,0,0,0.35249496856249507,22.662676100312673,22.662676100312673)"></circle><circle r="5" cx="35" cy="45" fill="#343a42" transform="matrix(0.31319433178282335,0,0,0.31319433178282335,24.038198387601184,30.90625506977295)"></circle><circle r="5" cx="35" cy="55" fill="#343a42" transform="matrix(0.3004058756878082,0,0,0.3004058756878082,24.485794350926714,38.47767683717055)"></circle><circle r="5" cx="35" cy="65" fill="#343a42" transform="matrix(0.3140296605502586,0,0,0.3140296605502586,24.008961880740948,44.58807206423319)"></circle><circle r="5" cx="35" cy="75" fill="#343a42" transform="matrix(0.3495609396428373,0,0,0.3495609396428373,22.765367112500694,48.7829295267872)"></circle><circle r="5" cx="35" cy="85" fill="#343a42" transform="matrix(0.40125910226806427,0,0,0.40125910226806427,20.955931420617752,50.89297630721454)"></circle><circle r="5" cx="35" cy="95" fill="#343a42" transform="matrix(0.4637913229184293,0,0,0.4637913229184293,18.767303697854974,50.93982432274922)"></circle><circle r="5" cx="35" cy="105" fill="#343a42" transform="matrix(0.5301679311601208,0,0,0.5301679311601208,16.44412240939577,49.33236722818731)"></circle><circle r="5" cx="35" cy="115" fill="#343a42" transform="matrix(0.5925315956082737,0,0,0.5925315956082737,14.26139415371042,46.858866505048525)"></circle><circle r="5" cx="35" cy="125" fill="#343a42" transform="matrix(0.6434130929276897,0,0,0.6434130929276897,12.48054174753086,44.573363384038785)"></circle><circle r="5" cx="35" cy="135" fill="#343a42" transform="matrix(0.6772013338223599,0,0,0.6772013338223599,11.297953316217402,43.57781993398142)"></circle><circle r="5" cx="35" cy="145" fill="#343a42" transform="matrix(0.6926816376065771,0,0,0.6926816376065771,10.756142683769802,44.56116254704632)"></circle><circle r="5" cx="35" cy="155" fill="#343a42" transform="matrix(0.6921283913716827,0,0,0.6921283913716827,10.775506301991104,47.720099337389186)"></circle><circle r="5" cx="35" cy="165" fill="#343a42" transform="matrix(0.6789034504004116,0,0,0.6789034504004116,11.238379235985594,52.98093068393209)"></circle><circle r="5" cx="35" cy="175" fill="#343a42" transform="matrix(0.6563191284154157,0,0,0.6563191284154157,12.028830505460448,60.14415252730225)"></circle><circle r="5" cx="35" cy="185" fill="#343a42" transform="matrix(0.6272145860200086,0,0,0.6272145860200086,13.0474894892997,68.96530158629841)"></circle><circle r="5" cx="35" cy="195" fill="#343a42" transform="matrix(0.5938601815791757,0,0,0.5938601815791757,14.21489364472885,79.19726459206073)"></circle><circle r="5" cx="45" cy="5" fill="#343a42" transform="matrix(0.5898654751528486,0,0,0.5898654751528486,18.456053618121814,2.050672624235757)"></circle><circle r="5" cx="45" cy="15" fill="#343a42" transform="matrix(0.5090210323043189,0,0,0.5090210323043189,22.09405354630565,7.364684515435216)"></circle><circle r="5" cx="45" cy="25" fill="#343a42" transform="matrix(0.4235523719209606,0,0,0.4235523719209606,25.94014326355677,14.411190701975984)"></circle><circle r="5" cx="45" cy="35" fill="#343a42" transform="matrix(0.3465861122938553,0,0,0.3465861122938553,29.40362494677651,22.869486069715066)"></circle><circle r="5" cx="45" cy="45" fill="#343a42" transform="matrix(0.2897932523491923,0,0,0.2897932523491923,31.959303644286347,31.959303644286347)"></circle><circle r="5" cx="45" cy="55" fill="#343a42" transform="matrix(0.2608395895027357,0,0,0.2608395895027357,33.262218472376894,40.65382257734954)"></circle><circle r="5" cx="45" cy="65" fill="#343a42" transform="matrix(0.2618318074351403,0,0,0.2618318074351403,33.21756866541869,47.98093251671588)"></circle><circle r="5" cx="45" cy="75" fill="#343a42" transform="matrix(0.2893660002385442,0,0,0.2893660002385442,31.97852998926551,53.29754998210919)"></circle><circle r="5" cx="45" cy="85" fill="#343a42" transform="matrix(0.33678947697248784,0,0,0.33678947697248784,29.84447353623805,56.37289445733853)"></circle><circle r="5" cx="45" cy="95" fill="#343a42" transform="matrix(0.39771921189448023,0,0,0.39771921189448023,27.10263546474839,57.21667487002438)"></circle><circle r="5" cx="45" cy="105" fill="#343a42" transform="matrix(0.46519532265943,0,0,0.46519532265943,24.06621048032565,56.15449112075985)"></circle><circle r="5" cx="45" cy="115" fill="#343a42" transform="matrix(0.5312627666911205,0,0,0.5312627666911205,21.093175498899576,53.904781830521145)"></circle><circle r="5" cx="45" cy="125" fill="#343a42" transform="matrix(0.5881196757854736,0,0,0.5881196757854736,18.534614589653685,51.485040526815794)"></circle><circle r="5" cx="45" cy="135" fill="#343a42" transform="matrix(0.6293904990396998,0,0,0.6293904990396998,16.677427543213508,50.032282629640534)"></circle><circle r="5" cx="45" cy="145" fill="#343a42" transform="matrix(0.6522856572356215,0,0,0.6522856572356215,15.647145424397031,50.41857970083488)"></circle><circle r="5" cx="45" cy="155" fill="#343a42" transform="matrix(0.6577206311165116,0,0,0.6577206311165116,15.402571599756978,53.053302176940704)"></circle><circle r="5" cx="45" cy="165" fill="#343a42" transform="matrix(0.6480427350182741,0,0,0.6480427350182741,15.838076924177663,58.07294872198477)"></circle><circle r="5" cx="45" cy="175" fill="#343a42" transform="matrix(0.626071124044698,0,0,0.626071124044698,16.82679941798859,65.43755329217785)"></circle><circle r="5" cx="45" cy="185" fill="#343a42" transform="matrix(0.5948858787089787,0,0,0.5948858787089787,18.23013545809596,74.94611243883894)"></circle><circle r="5" cx="45" cy="195" fill="#343a42" transform="matrix(0.5575947738941918,0,0,0.5575947738941918,19.90823517476137,86.26901909063261)"></circle><circle r="5" cx="55" cy="5" fill="#343a42" transform="matrix(0.6120151854112806,0,0,0.6120151854112806,21.339164802379564,1.939924072943597)"></circle><circle r="5" cx="55" cy="15" fill="#343a42" transform="matrix(0.526712050005164,0,0,0.526712050005164,26.030837249715983,7.099319249922541)"></circle><circle r="5" cx="55" cy="25" fill="#343a42" transform="matrix(0.43215795391676304,0,0,0.43215795391676304,31.231312534578034,14.196051152080924)"></circle><circle r="5" cx="55" cy="35" fill="#343a42" transform="matrix(0.34244257233496217,0,0,0.34244257233496217,36.16565852157708,23.01450996827632)"></circle><circle r="5" cx="55" cy="45" fill="#343a42" transform="matrix(0.27090989969296553,0,0,0.27090989969296553,40.099955516886894,32.80905451381655)"></circle><circle r="5" cx="55" cy="55" fill="#343a42" transform="matrix(0.22729844363867255,0,0,0.22729844363867255,42.49858559987301,42.49858559987301)"></circle><circle r="5" cx="55" cy="65" fill="#343a42" transform="matrix(0.21565459301567663,0,0,0.21565459301567663,43.13899738413778,50.98245145398102)"></circle><circle r="5" cx="55" cy="75" fill="#343a42" transform="matrix(0.2336895713038803,0,0,0.2336895713038803,42.14707357828658,57.47328215220898)"></circle><circle r="5" cx="55" cy="85" fill="#343a42" transform="matrix(0.2746110488497625,0,0,0.2746110488497625,39.896392313263064,61.65806084777019)"></circle><circle r="5" cx="55" cy="95" fill="#343a42" transform="matrix(0.33137815595884823,0,0,0.33137815595884823,36.774201422263346,63.51907518390942)"></circle><circle r="5" cx="55" cy="105" fill="#343a42" transform="matrix(0.39725114439976833,0,0,0.39725114439976833,33.15118705801274,63.28862983802433)"></circle><circle r="5" cx="55" cy="115" fill="#343a42" transform="matrix(0.46441813527066234,0,0,0.46441813527066234,29.457002560113573,61.59191444387383)"></circle><circle r="5" cx="55" cy="125" fill="#343a42" transform="matrix(0.5249790163201602,0,0,0.5249790163201602,26.12615410239119,59.37762295997997)"></circle><circle r="5" cx="55" cy="135" fill="#343a42" transform="matrix(0.572129297390898,0,0,0.572129297390898,23.53288864350061,57.76254485222877)"></circle><circle r="5" cx="55" cy="145" fill="#343a42" transform="matrix(0.6015999235369157,0,0,0.6015999235369157,21.912004205469636,57.768011087147215)"></circle><circle r="5" cx="55" cy="155" fill="#343a42" transform="matrix(0.6124964519369681,0,0,0.6124964519369681,21.312695143466755,60.06304994976995)"></circle><circle r="5" cx="55" cy="165" fill="#343a42" transform="matrix(0.606156888603341,0,0,0.606156888603341,21.661371126816242,64.98411338044873)"></circle><circle r="5" cx="55" cy="175" fill="#343a42" transform="matrix(0.5852669406807248,0,0,0.5852669406807248,22.810318262560138,72.57828538087315)"></circle><circle r="5" cx="55" cy="185" fill="#343a42" transform="matrix(0.5533814125807133,0,0,0.5533814125807133,24.56402230806077,82.62443867256805)"></circle><circle r="5" cx="55" cy="195" fill="#343a42" transform="matrix(0.5144588800459475,0,0,0.5144588800459475,26.704761597472885,94.68051839104024)"></circle><circle r="5" cx="65" cy="5" fill="#343a42" transform="matrix(0.6226867321143186,0,0,0.6226867321143186,24.525362412569294,1.8865663394284073)"></circle><circle r="5" cx="65" cy="15" fill="#343a42" transform="matrix(0.5379505842975854,0,0,0.5379505842975854,30.033212020656954,6.930741235536219)"></circle><circle r="5" cx="65" cy="25" fill="#343a42" transform="matrix(0.43975771940965835,0,0,0.43975771940965835,36.4157482383722,14.006057014758541)"></circle><circle r="5" cx="65" cy="35" fill="#343a42" transform="matrix(0.3425462137576526,0,0,0.3425462137576526,42.734496105752584,23.01088251848216)"></circle><circle r="5" cx="65" cy="45" fill="#343a42" transform="matrix(0.2606558124757143,0,0,0.2606558124757143,48.05737218907857,33.27048843859286)"></circle><circle r="5" cx="65" cy="55" fill="#343a42" transform="matrix(0.2052294266163027,0,0,0.2052294266163027,51.66008726994033,43.71238153610335)"></circle><circle r="5" cx="65" cy="65" fill="#343a42" transform="matrix(0.18183621888645046,0,0,0.18183621888645046,53.18064577238072,53.18064577238072)"></circle><circle r="5" cx="65" cy="75" fill="#343a42" transform="matrix(0.18954733388632378,0,0,0.18954733388632378,52.67942329738895,60.78394995852572)"></circle><circle r="5" cx="65" cy="85" fill="#343a42" transform="matrix(0.22224249256381365,0,0,0.22224249256381365,50.55423798335211,66.10938813207584)"></circle><circle r="5" cx="65" cy="95" fill="#343a42" transform="matrix(0.2726631284343385,0,0,0.2726631284343385,47.276896651768,69.09700279873785)"></circle><circle r="5" cx="65" cy="105" fill="#343a42" transform="matrix(0.33437376268777347,0,0,0.33437376268777347,43.265705425294726,69.8907549177838)"></circle><circle r="5" cx="65" cy="115" fill="#343a42" transform="matrix(0.3999378275954819,0,0,0.3999378275954819,39.00404120629368,69.00714982651958)"></circle><circle r="5" cx="65" cy="125" fill="#343a42" transform="matrix(0.461588377254523,0,0,0.461588377254523,34.99675547845601,67.30145284318462)"></circle><circle r="5" cx="65" cy="135" fill="#343a42" transform="matrix(0.5120879667851606,0,0,0.5120879667851606,31.714282158964565,65.86812448400333)"></circle><circle r="5" cx="65" cy="145" fill="#343a42" transform="matrix(0.5456436063179854,0,0,0.5456436063179854,29.53316558933095,65.88167708389213)"></circle><circle r="5" cx="65" cy="155" fill="#343a42" transform="matrix(0.5598624309377735,0,0,0.5598624309377735,28.608941989044716,68.2213232046451)"></circle><circle r="5" cx="65" cy="165" fill="#343a42" transform="matrix(0.555531976234964,0,0,0.555531976234964,28.89042154472734,73.33722392123094)"></circle><circle r="5" cx="65" cy="175" fill="#343a42" transform="matrix(0.5354670277325267,0,0,0.5354670277325267,30.19464319738576,81.29327014680781)"></circle><circle r="5" cx="65" cy="185" fill="#343a42" transform="matrix(0.5037564060883126,0,0,0.5037564060883126,32.25583360425968,91.80506487366216)"></circle><circle r="5" cx="65" cy="195" fill="#343a42" transform="matrix(0.46509097116927095,0,0,0.46509097116927095,34.76908687399739,104.30726062199217)"></circle><circle r="5" cx="75" cy="5" fill="#343a42" transform="matrix(0.6215120161382262,0,0,0.6215120161382262,28.38659878963304,1.8924399193088695)"></circle><circle r="5" cx="75" cy="15" fill="#343a42" transform="matrix(0.542746322993508,0,0,0.542746322993508,34.2940257754869,6.8588051550973805)"></circle><circle r="5" cx="75" cy="25" fill="#343a42" transform="matrix(0.446934864545635,0,0,0.446934864545635,41.47988515907738,13.826628386359124)"></circle><circle r="5" cx="75" cy="35" fill="#343a42" transform="matrix(0.3481184375175413,0,0,0.3481184375175413,48.8911171861844,22.815854686886055)"></circle><circle r="5" cx="75" cy="45" fill="#343a42" transform="matrix(0.2609051549583484,0,0,0.2609051549583484,55.43211337812387,33.259268026874324)"></circle><circle r="5" cx="75" cy="55" fill="#343a42" transform="matrix(0.19733017058753097,0,0,0.19733017058753097,60.20023720593518,44.1468406176858)"></circle><circle r="5" cx="75" cy="65" fill="#343a42" transform="matrix(0.16426523750188377,0,0,0.16426523750188377,62.680107187358715,54.322759562377556)"></circle><circle r="5" cx="75" cy="75" fill="#343a42" transform="matrix(0.16215202156187059,0,0,0.16215202156187059,62.83859838285971,62.83859838285971)"></circle><circle r="5" cx="75" cy="85" fill="#343a42" transform="matrix(0.18586922938654005,0,0,0.18586922938654005,61.059807796009494,69.20111550214409)"></circle><circle r="5" cx="75" cy="95" fill="#343a42" transform="matrix(0.22843281109284796,0,0,0.22843281109284796,57.8675391680364,73.29888294617945)"></circle><circle r="5" cx="75" cy="105" fill="#343a42" transform="matrix(0.283835733224797,0,0,0.283835733224797,53.712320008140225,75.19724801139631)"></circle><circle r="5" cx="75" cy="115" fill="#343a42" transform="matrix(0.3452381869551855,0,0,0.3452381869551855,49.107135978361086,75.29760850015367)"></circle><circle r="5" cx="75" cy="125" fill="#343a42" transform="matrix(0.4049624116822299,0,0,0.4049624116822299,44.62781912383276,74.37969853972126)"></circle><circle r="5" cx="75" cy="135" fill="#343a42" transform="matrix(0.4550740704287737,0,0,0.4550740704287737,40.86944471784197,73.56500049211556)"></circle><circle r="5" cx="75" cy="145" fill="#343a42" transform="matrix(0.489136817017873,0,0,0.489136817017873,38.314738723659524,74.07516153240842)"></circle><circle r="5" cx="75" cy="155" fill="#343a42" transform="matrix(0.5039358615548926,0,0,0.5039358615548926,37.204810383383055,76.88994145899166)"></circle><circle r="5" cx="75" cy="165" fill="#343a42" transform="matrix(0.49995126322796846,0,0,0.49995126322796846,37.503655257902366,82.5080415673852)"></circle><circle r="5" cx="75" cy="175" fill="#343a42" transform="matrix(0.48020846696358904,0,0,0.48020846696358904,38.98436497773082,90.96351828137192)"></circle><circle r="5" cx="75" cy="185" fill="#343a42" transform="matrix(0.4492583920345982,0,0,0.4492583920345982,41.30562059740513,101.88719747359933)"></circle><circle r="5" cx="75" cy="195" fill="#343a42" transform="matrix(0.4123193498561486,0,0,0.4123193498561486,44.07604876078885,114.59772677805103)"></circle><circle r="5" cx="85" cy="5" fill="#343a42" transform="matrix(0.6090573513299669,0,0,0.6090573513299669,33.230125136952815,1.9547132433501657)"></circle><circle r="5" cx="85" cy="15" fill="#343a42" transform="matrix(0.5407276945746486,0,0,0.5407276945746486,39.03814596115487,6.889084581380271)"></circle><circle r="5" cx="85" cy="25" fill="#343a42" transform="matrix(0.45229474923780055,0,0,0.45229474923780055,46.55494631478695,13.692631269054987)"></circle><circle r="5" cx="85" cy="35" fill="#343a42" transform="matrix(0.3569635891993997,0,0,0.3569635891993997,54.65809491805103,22.50627437802101)"></circle><circle r="5" cx="85" cy="45" fill="#343a42" transform="matrix(0.26921761458042304,0,0,0.26921761458042304,62.11650276066404,32.885207343880964)"></circle><circle r="5" cx="85" cy="55" fill="#343a42" transform="matrix(0.2015948751663138,0,0,0.2015948751663138,67.86443561086332,43.91228186585274)"></circle><circle r="5" cx="85" cy="65" fill="#343a42" transform="matrix(0.16193640351730185,0,0,0.16193640351730185,71.23540570102935,54.47413377137538)"></circle><circle r="5" cx="85" cy="75" fill="#343a42" transform="matrix(0.15187557599547302,0,0,0.15187557599547302,72.09057604038479,63.609331800339525)"></circle><circle r="5" cx="85" cy="85" fill="#343a42" transform="matrix(0.1673716220358405,0,0,0.1673716220358405,70.77341212695356,70.77341212695356)"></circle><circle r="5" cx="85" cy="95" fill="#343a42" transform="matrix(0.202044037960531,0,0,0.202044037960531,67.82625677335486,75.80581639374955)"></circle><circle r="5" cx="85" cy="105" fill="#343a42" transform="matrix(0.25032951076111565,0,0,0.25032951076111565,63.72199158530517,78.71540137008286)"></circle><circle r="5" cx="85" cy="115" fill="#343a42" transform="matrix(0.30573488609222765,0,0,0.30573488609222765,59.01253468216065,79.84048809939381)"></circle><circle r="5" cx="85" cy="125" fill="#343a42" transform="matrix(0.36031683563590144,0,0,0.36031683563590144,54.37306897094838,79.96039554551231)"></circle><circle r="5" cx="85" cy="135" fill="#343a42" transform="matrix(0.4061756146425064,0,0,0.4061756146425064,50.475072755386954,80.16629202326163)"></circle><circle r="5" cx="85" cy="145" fill="#343a42" transform="matrix(0.4371347370891458,0,0,0.4371347370891458,47.84354734742261,81.61546312207386)"></circle><circle r="5" cx="85" cy="155" fill="#343a42" transform="matrix(0.4498834842521735,0,0,0.4498834842521735,46.75990383856525,85.2680599409131)"></circle><circle r="5" cx="85" cy="165" fill="#343a42" transform="matrix(0.4447072583266043,0,0,0.4447072583266043,47.19988304223863,91.62330237611029)"></circle><circle r="5" cx="85" cy="175" fill="#343a42" transform="matrix(0.4247852432575999,0,0,0.4247852432575999,48.89325432310401,100.66258242992001)"></circle><circle r="5" cx="85" cy="185" fill="#343a42" transform="matrix(0.39496855415358506,0,0,0.39496855415358506,51.42767289694527,111.93081748158676)"></circle><circle r="5" cx="85" cy="195" fill="#343a42" transform="matrix(0.3607518113208483,0,0,0.3607518113208483,54.33609603772789,124.65339679243458)"></circle><circle r="5" cx="95" cy="5" fill="#343a42" transform="matrix(0.5854893107153463,0,0,0.5854893107153463,39.378515482042104,2.0725534464232687)"></circle><circle r="5" cx="95" cy="15" fill="#343a42" transform="matrix(0.5296080647315191,0,0,0.5296080647315191,44.687233850505685,7.0558790290272135)"></circle><circle r="5" cx="95" cy="25" fill="#343a42" transform="matrix(0.45164517972809426,0,0,0.45164517972809426,52.09370792583105,13.708870506797643)"></circle><circle r="5" cx="95" cy="35" fill="#343a42" transform="matrix(0.363714651753508,0,0,0.363714651753508,60.447108083416744,22.26998718862722)"></circle><circle r="5" cx="95" cy="45" fill="#343a42" transform="matrix(0.2797413710707411,0,0,0.2797413710707411,68.4245697482796,32.41163830181665)"></circle><circle r="5" cx="95" cy="55" fill="#343a42" transform="matrix(0.2122702695945074,0,0,0.2122702695945074,74.8343243885218,43.3251351723021)"></circle><circle r="5" cx="95" cy="65" fill="#343a42" transform="matrix(0.16966200047357594,0,0,0.16966200047357594,78.88210995501029,53.97196996921757)"></circle><circle r="5" cx="95" cy="75" fill="#343a42" transform="matrix(0.15444239641494176,0,0,0.15444239641494176,80.32797234058053,63.41682026887937)"></circle><circle r="5" cx="95" cy="85" fill="#343a42" transform="matrix(0.1636053327876807,0,0,0.1636053327876807,79.45749338517034,71.09354671304715)"></circle><circle r="5" cx="95" cy="95" fill="#343a42" transform="matrix(0.19163083034478487,0,0,0.19163083034478487,76.79507111724544,76.79507111724544)"></circle><circle r="5" cx="95" cy="105" fill="#343a42" transform="matrix(0.23344998847328177,0,0,0.23344998847328177,72.82225109503824,80.48775121030542)"></circle><circle r="5" cx="95" cy="115" fill="#343a42" transform="matrix(0.28239158950083904,0,0,0.28239158950083904,68.17279899742029,82.5249672074035)"></circle><circle r="5" cx="95" cy="125" fill="#343a42" transform="matrix(0.3302682834955544,0,0,0.3302682834955544,63.62451306792233,83.7164645630557)"></circle><circle r="5" cx="95" cy="135" fill="#343a42" transform="matrix(0.36949359727507014,0,0,0.36949359727507014,59.898108258868334,85.11836436786552)"></circle><circle r="5" cx="95" cy="145" fill="#343a42" transform="matrix(0.39467077936378064,0,0,0.39467077936378064,57.50627596044084,87.77273699225181)"></circle><circle r="5" cx="95" cy="155" fill="#343a42" transform="matrix(0.4032967461961092,0,0,0.4032967461961092,56.68680911136963,92.48900433960307)"></circle><circle r="5" cx="95" cy="165" fill="#343a42" transform="matrix(0.3957827254449262,0,0,0.3957827254449262,57.40064108273201,99.69585030158717)"></circle><circle r="5" cx="95" cy="175" fill="#343a42" transform="matrix(0.3753143163222118,0,0,0.3753143163222118,59.34513994938988,109.31999464361293)"></circle><circle r="5" cx="95" cy="185" fill="#343a42" transform="matrix(0.3468273254806361,0,0,0.3468273254806361,62.05140407933957,120.83694478608233)"></circle><circle r="5" cx="95" cy="195" fill="#343a42" transform="matrix(0.31582965566348636,0,0,0.31582965566348636,64.9961827119688,133.41321714562017)"></circle><circle r="5" cx="105" cy="5" fill="#343a42" transform="matrix(0.550642446343586,0,0,0.550642446343586,47.182543133923474,2.2467877682820703)"></circle><circle r="5" cx="105" cy="15" fill="#343a42" transform="matrix(0.5071143440303946,0,0,0.5071143440303946,51.75299387680857,7.393284839544082)"></circle><circle r="5" cx="105" cy="25" fill="#343a42" transform="matrix(0.44113523347811484,0,0,0.44113523347811484,58.68080048479794,13.971619163047128)"></circle><circle r="5" cx="105" cy="35" fill="#343a42" transform="matrix(0.36343517172834616,0,0,0.36343517172834616,66.83930696852366,22.279768989507886)"></circle><circle r="5" cx="105" cy="45" fill="#343a42" transform="matrix(0.2869013667816402,0,0,0.2869013667816402,74.87535648792777,32.08943849482619)"></circle><circle r="5" cx="105" cy="55" fill="#343a42" transform="matrix(0.22353666785170898,0,0,0.22353666785170898,81.52864987557055,42.70548326815601)"></circle><circle r="5" cx="105" cy="65" fill="#343a42" transform="matrix(0.18171040421702855,0,0,0.18171040421702855,85.920407557212,53.188823725893144)"></circle><circle r="5" cx="105" cy="75" fill="#343a42" transform="matrix(0.16447049294588972,0,0,0.16447049294588972,87.73059824068159,62.66471302905827)"></circle><circle r="5" cx="105" cy="85" fill="#343a42" transform="matrix(0.16971639255579984,0,0,0.16971639255579984,87.17977878164102,70.57410663275701)"></circle><circle r="5" cx="105" cy="95" fill="#343a42" transform="matrix(0.1929584883709844,0,0,0.1929584883709844,84.73935872104664,76.66894360475648)"></circle><circle r="5" cx="105" cy="105" fill="#343a42" transform="matrix(0.22953190135851315,0,0,0.22953190135851315,80.89915035735612,80.89915035735612)"></circle><circle r="5" cx="105" cy="115" fill="#343a42" transform="matrix(0.2725407283916797,0,0,0.2725407283916797,76.38322351887363,83.65781623495684)"></circle><circle r="5" cx="105" cy="125" fill="#343a42" transform="matrix(0.31392206189132166,0,0,0.31392206189132166,72.03818350141123,85.7597422635848)"></circle><circle r="5" cx="105" cy="135" fill="#343a42" transform="matrix(0.3465041956689678,0,0,0.3465041956689678,68.61705945475839,88.22193358468934)"></circle><circle r="5" cx="105" cy="145" fill="#343a42" transform="matrix(0.3654809753963914,0,0,0.3654809753963914,66.62449758337891,92.00525856752324)"></circle><circle r="5" cx="105" cy="155" fill="#343a42" transform="matrix(0.3691455153212741,0,0,0.3691455153212741,66.23972089126622,97.78244512520251)"></circle><circle r="5" cx="105" cy="165" fill="#343a42" transform="matrix(0.3587438030288513,0,0,0.3587438030288513,67.33190068197061,105.80727250023955)"></circle><circle r="5" cx="105" cy="175" fill="#343a42" transform="matrix(0.3376193362849865,0,0,0.3376193362849865,69.54996969007641,115.91661615012737)"></circle><circle r="5" cx="105" cy="185" fill="#343a42" transform="matrix(0.31056307268814876,0,0,0.31056307268814876,72.39087736774438,127.54583155269248)"></circle><circle r="5" cx="105" cy="195" fill="#343a42" transform="matrix(0.28285013397531134,0,0,0.28285013397531134,75.30073593259232,139.8442238748143)"></circle><circle r="5" cx="115" cy="5" fill="#343a42" transform="matrix(0.5062215882679693,0,0,0.5062215882679693,56.78451734918354,2.4688920586601535)"></circle><circle r="5" cx="115" cy="15" fill="#343a42" transform="matrix(0.47338711266952005,0,0,0.47338711266952005,60.560482043005194,7.899193309957199)"></circle><circle r="5" cx="115" cy="25" fill="#343a42" transform="matrix(0.4195155196742064,0,0,0.4195155196742064,66.75571523746626,14.51211200814484)"></circle><circle r="5" cx="115" cy="35" fill="#343a42" transform="matrix(0.3537086594467903,0,0,0.3537086594467903,74.3235041636191,22.62019691936234)"></circle><circle r="5" cx="115" cy="45" fill="#343a42" transform="matrix(0.28736588285949755,0,0,0.28736588285949755,81.95292347115779,32.06853527132261)"></circle><circle r="5" cx="115" cy="55" fill="#343a42" transform="matrix(0.23140984893892264,0,0,0.23140984893892264,88.38786737202389,42.272458308359255)"></circle><circle r="5" cx="115" cy="65" fill="#343a42" transform="matrix(0.19370105307534294,0,0,0.19370105307534294,92.72437889633557,52.40943155010271)"></circle><circle r="5" cx="115" cy="75" fill="#343a42" transform="matrix(0.1774151152623103,0,0,0.1774151152623103,94.59726174483431,61.693866355326726)"></circle><circle r="5" cx="115" cy="85" fill="#343a42" transform="matrix(0.18118580176300814,0,0,0.18118580176300814,94.16363279725407,69.59920685014431)"></circle><circle r="5" cx="115" cy="95" fill="#343a42" transform="matrix(0.20160684156664083,0,0,0.20160684156664083,91.81521321983631,75.84735005116912)"></circle><circle r="5" cx="115" cy="105" fill="#343a42" transform="matrix(0.23431465704918425,0,0,0.23431465704918425,88.05381443934381,80.39696100983565)"></circle><circle r="5" cx="115" cy="115" fill="#343a42" transform="matrix(0.272544341904185,0,0,0.272544341904185,83.65740068101873,83.65740068101873)"></circle><circle r="5" cx="115" cy="125" fill="#343a42" transform="matrix(0.3086827718597168,0,0,0.3086827718597168,79.50148123613256,86.4146535175354)"></circle><circle r="5" cx="115" cy="135" fill="#343a42" transform="matrix(0.33608034242210083,0,0,0.33608034242210083,76.3507606214584,89.62915377301638)"></circle><circle r="5" cx="115" cy="145" fill="#343a42" transform="matrix(0.3503942286942904,0,0,0.3503942286942904,74.7046637001566,94.1928368393279)"></circle><circle r="5" cx="115" cy="155" fill="#343a42" transform="matrix(0.35032755308464514,0,0,0.35032755308464514,74.7123313952658,100.69922927188)"></circle><circle r="5" cx="115" cy="165" fill="#343a42" transform="matrix(0.3376254294404972,0,0,0.3376254294404972,76.17307561434282,109.29180414231796)"></circle><circle r="5" cx="115" cy="175" fill="#343a42" transform="matrix(0.3162053631526872,0,0,0.3162053631526872,78.63638323744098,119.66406144827974)"></circle><circle r="5" cx="115" cy="185" fill="#343a42" transform="matrix(0.29078420758061047,0,0,0.29078420758061047,81.5598161282298,131.20492159758706)"></circle><circle r="5" cx="115" cy="195" fill="#343a42" transform="matrix(0.2662029280459709,0,0,0.2662029280459709,84.38666327471334,143.09042903103568)"></circle><circle r="5" cx="125" cy="5" fill="#343a42" transform="matrix(0.4566330813163986,0,0,0.4566330813163986,67.92086483545017,2.7168345934180067)"></circle><circle r="5" cx="125" cy="15" fill="#343a42" transform="matrix(0.4316978118710633,0,0,0.4316978118710633,71.03777351611708,8.52453282193405)"></circle><circle r="5" cx="125" cy="25" fill="#343a42" transform="matrix(0.38877091312644313,0,0,0.38877091312644313,76.40363585919461,15.280727171838922)"></circle><circle r="5" cx="125" cy="35" fill="#343a42" transform="matrix(0.3352189620103937,0,0,0.3352189620103937,83.0976297487008,23.267336329636223)"></circle><circle r="5" cx="125" cy="45" fill="#343a42" transform="matrix(0.2806081035249527,0,0,0.2806081035249527,89.92398705938092,32.372635341377126)"></circle><circle r="5" cx="125" cy="55" fill="#343a42" transform="matrix(0.23431808189651904,0,0,0.23431808189651904,95.71023976293512,42.11250549569145)"></circle><circle r="5" cx="125" cy="65" fill="#343a42" transform="matrix(0.20323118208493726,0,0,0.20323118208493726,99.59610223938284,51.78997316447908)"></circle><circle r="5" cx="125" cy="75" fill="#343a42" transform="matrix(0.19027868522368765,0,0,0.19027868522368765,101.21516434703904,60.729098608223424)"></circle><circle r="5" cx="125" cy="85" fill="#343a42" transform="matrix(0.1946546049140484,0,0,0.1946546049140484,100.66817438574395,68.45435858230589)"></circle><circle r="5" cx="125" cy="95" fill="#343a42" transform="matrix(0.21395894080104544,0,0,0.21395894080104544,98.25513239986932,74.67390062390068)"></circle><circle r="5" cx="125" cy="105" fill="#343a42" transform="matrix(0.24416651405107648,0,0,0.24416651405107648,94.47918574361543,79.36251602463697)"></circle><circle r="5" cx="125" cy="115" fill="#343a42" transform="matrix(0.2790181193818489,0,0,0.2790181193818489,90.12273507726889,82.91291627108737)"></circle><circle r="5" cx="125" cy="125" fill="#343a42" transform="matrix(0.3116018171616986,0,0,0.3116018171616986,86.04977285478768,86.04977285478768)"></circle><circle r="5" cx="125" cy="135" fill="#343a42" transform="matrix(0.33589517368931776,0,0,0.33589517368931776,83.01310328883528,89.6541515519421)"></circle><circle r="5" cx="125" cy="145" fill="#343a42" transform="matrix(0.34796116711876757,0,0,0.34796116711876757,81.50485411015406,94.5456307677787)"></circle><circle r="5" cx="125" cy="155" fill="#343a42" transform="matrix(0.3466648273455895,0,0,0.3466648273455895,81.66689658180131,101.26695176143363)"></circle><circle r="5" cx="125" cy="165" fill="#343a42" transform="matrix(0.3337756922740766,0,0,0.3337756922740766,83.27803846574042,109.92701077477736)"></circle><circle r="5" cx="125" cy="175" fill="#343a42" transform="matrix(0.31333468089626304,0,0,0.31333468089626304,85.83316488796711,120.16643084315396)"></circle><circle r="5" cx="125" cy="185" fill="#343a42" transform="matrix(0.29022108007968433,0,0,0.29022108007968433,88.72236499003947,131.3091001852584)"></circle><circle r="5" cx="125" cy="195" fill="#343a42" transform="matrix(0.26879227654376947,0,0,0.26879227654376947,91.40096543202881,142.58550607396495)"></circle><circle r="5" cx="135" cy="5" fill="#343a42" transform="matrix(0.408490362392801,0,0,0.408490362392801,79.85380107697186,2.957548188035995)"></circle><circle r="5" cx="135" cy="15" fill="#343a42" transform="matrix(0.3880359714697553,0,0,0.3880359714697553,82.61514385158303,9.179460427953671)"></circle><circle r="5" cx="135" cy="25" fill="#343a42" transform="matrix(0.35378814919596535,0,0,0.35378814919596535,87.23859985854467,16.155296270100866)"></circle><circle r="5" cx="135" cy="35" fill="#343a42" transform="matrix(0.31150061303300913,0,0,0.31150061303300913,92.94741724054376,24.09747854384468)"></circle><circle r="5" cx="135" cy="45" fill="#343a42" transform="matrix(0.2687445402153063,0,0,0.2687445402153063,98.71948707093364,32.90649569031122)"></circle><circle r="5" cx="135" cy="55" fill="#343a42" transform="matrix(0.23303613781153162,0,0,0.23303613781153162,103.54012139544324,42.18301242036576)"></circle><circle r="5" cx="135" cy="65" fill="#343a42" transform="matrix(0.20991439189167535,0,0,0.20991439189167535,106.66155709462383,51.3555645270411)"></circle><circle r="5" cx="135" cy="75" fill="#343a42" transform="matrix(0.20176360898877554,0,0,0.20176360898877554,107.7619127865153,59.867729325841836)"></circle><circle r="5" cx="135" cy="85" fill="#343a42" transform="matrix(0.2081941672333533,0,0,0.2081941672333533,106.8937874234973,67.30349578516497)"></circle><circle r="5" cx="135" cy="95" fill="#343a42" transform="matrix(0.22761961569286882,0,0,0.22761961569286882,104.2713518814627,73.37613650917746)"></circle><circle r="5" cx="135" cy="105" fill="#343a42" transform="matrix(0.2564574543946506,0,0,0.2564574543946506,100.37824365672216,78.07196728856168)"></circle><circle r="5" cx="135" cy="115" fill="#343a42" transform="matrix(0.2892245163188308,0,0,0.2892245163188308,95.95469029695784,81.73918062333446)"></circle><circle r="5" cx="135" cy="125" fill="#343a42" transform="matrix(0.31989412254298977,0,0,0.31989412254298977,91.81429345669639,85.01323468212628)"></circle><circle r="5" cx="135" cy="135" fill="#343a42" transform="matrix(0.3431659953061779,0,0,0.3431659953061779,88.67259063366598,88.67259063366598)"></circle><circle r="5" cx="135" cy="145" fill="#343a42" transform="matrix(0.3554995716109562,0,0,0.3554995716109562,87.00755783252092,93.45256211641134)"></circle><circle r="5" cx="135" cy="155" fill="#343a42" transform="matrix(0.3557818995649265,0,0,0.3557818995649265,86.96944355873492,99.85380556743638)"></circle><circle r="5" cx="135" cy="165" fill="#343a42" transform="matrix(0.3455010364237192,0,0,0.3455010364237192,88.3573600827979,107.99232899008632)"></circle><circle r="5" cx="135" cy="175" fill="#343a42" transform="matrix(0.32831110796415586,0,0,0.32831110796415586,90.67800042483896,117.54555610627273)"></circle><circle r="5" cx="135" cy="185" fill="#343a42" transform="matrix(0.3089059354880646,0,0,0.3089059354880646,93.29769870911127,127.85240193470804)"></circle><circle r="5" cx="135" cy="195" fill="#343a42" transform="matrix(0.29133064344660786,0,0,0.29133064344660786,95.67036313470794,138.19052452791146)"></circle><circle r="5" cx="145" cy="5" fill="#343a42" transform="matrix(0.3691847011297254,0,0,0.3691847011297254,91.4682183361898,3.154076494351373)"></circle><circle r="5" cx="145" cy="15" fill="#343a42" transform="matrix(0.3499678983381299,0,0,0.3499678983381299,94.25465474097116,9.750481524928052)"></circle><circle r="5" cx="145" cy="25" fill="#343a42" transform="matrix(0.3214682686948977,0,0,0.3214682686948977,98.38710103923984,16.963293282627557)"></circle><circle r="5" cx="145" cy="35" fill="#343a42" transform="matrix(0.28827598969606927,0,0,0.28827598969606927,103.19998149406996,24.910340360637576)"></circle><circle r="5" cx="145" cy="45" fill="#343a42" transform="matrix(0.2560722651732287,0,0,0.2560722651732287,107.86952154988185,33.47674806720471)"></circle><circle r="5" cx="145" cy="55" fill="#343a42" transform="matrix(0.23040163473400543,0,0,0.23040163473400543,111.59176296356921,42.3279100896297)"></circle><circle r="5" cx="145" cy="65" fill="#343a42" transform="matrix(0.2152580719239543,0,0,0.2152580719239543,113.78757957102663,51.00822532494297)"></circle><circle r="5" cx="145" cy="75" fill="#343a42" transform="matrix(0.21229493922816395,0,0,0.21229493922816395,114.21723381191623,59.077879557887705)"></circle><circle r="5" cx="145" cy="85" fill="#343a42" transform="matrix(0.22142290488641952,0,0,0.22142290488641952,112.89367879146917,66.17905308465434)"></circle><circle r="5" cx="145" cy="95" fill="#343a42" transform="matrix(0.2415664317867135,0,0,0.2415664317867135,109.97286739092655,72.05118898026222)"></circle><circle r="5" cx="145" cy="105" fill="#343a42" transform="matrix(0.2696873749916917,0,0,0.2696873749916917,105.8953306262047,76.68282562587237)"></circle><circle r="5" cx="145" cy="115" fill="#343a42" transform="matrix(0.3012463805780934,0,0,0.3012463805780934,101.31927481617646,80.35666623351926)"></circle><circle r="5" cx="145" cy="125" fill="#343a42" transform="matrix(0.3312257284164156,0,0,0.3312257284164156,96.97226937961973,83.59678394794804)"></circle><circle r="5" cx="145" cy="135" fill="#343a42" transform="matrix(0.3551254043508011,0,0,0.3551254043508011,93.50681636913384,87.05807041264185)"></circle><circle r="5" cx="145" cy="145" fill="#343a42" transform="matrix(0.3698203461423599,0,0,0.3698203461423599,91.37604980935781,91.37604980935781)"></circle><circle r="5" cx="145" cy="155" fill="#343a42" transform="matrix(0.37415588191930216,0,0,0.37415588191930216,90.74739712170118,97.00583830250817)"></circle><circle r="5" cx="145" cy="165" fill="#343a42" transform="matrix(0.36915983929400736,0,0,0.36915983929400736,91.47182330236893,104.08862651648879)"></circle><circle r="5" cx="145" cy="175" fill="#343a42" transform="matrix(0.35776676663015794,0,0,0.35776676663015794,93.1238188386271,112.39081583972236)"></circle><circle r="5" cx="145" cy="185" fill="#343a42" transform="matrix(0.34398217517230867,0,0,0.34398217517230867,95.12258460001524,121.3632975931229)"></circle><circle r="5" cx="145" cy="195" fill="#343a42" transform="matrix(0.33147256999501873,0,0,0.33147256999501873,96.93647735072228,130.36284885097135)"></circle><circle r="5" cx="155" cy="5" fill="#343a42" transform="matrix(0.3446500454985881,0,0,0.3446500454985881,101.57924294771885,3.27674977250706)"></circle><circle r="5" cx="155" cy="15" fill="#343a42" transform="matrix(0.32488246879669186,0,0,0.32488246879669186,104.64321733651276,10.126762968049622)"></circle><circle r="5" cx="155" cy="25" fill="#343a42" transform="matrix(0.2994115655240117,0,0,0.2994115655240117,108.5912073437782,17.514710861899708)"></circle><circle r="5" cx="155" cy="35" fill="#343a42" transform="matrix(0.2725172168512556,0,0,0.2725172168512556,112.75983138805539,25.461897410206056)"></circle><circle r="5" cx="155" cy="45" fill="#343a42" transform="matrix(0.2484514585118414,0,0,0.2484514585118414,116.49002393066459,33.81968436696714)"></circle><circle r="5" cx="155" cy="55" fill="#343a42" transform="matrix(0.23096706118053528,0,0,0.23096706118053528,119.20010551701702,42.29681163507056)"></circle><circle r="5" cx="155" cy="65" fill="#343a42" transform="matrix(0.22253814250813347,0,0,0.22253814250813347,120.50658791123931,50.535020736971326)"></circle><circle r="5" cx="155" cy="75" fill="#343a42" transform="matrix(0.2240744147910364,0,0,0.2240744147910364,120.26846570738937,58.19441889067227)"></circle><circle r="5" cx="155" cy="85" fill="#343a42" transform="matrix(0.23562294102774745,0,0,0.23562294102774745,118.47844414069914,64.97205001264146)"></circle><circle r="5" cx="155" cy="95" fill="#343a42" transform="matrix(0.25628844661198524,0,0,0.25628844661198524,115.27529077514228,70.6525975718614)"></circle><circle r="5" cx="155" cy="105" fill="#343a42" transform="matrix(0.2836617326643038,0,0,0.2836617326643038,111.03243143703291,75.2155180702481)"></circle><circle r="5" cx="155" cy="115" fill="#343a42" transform="matrix(0.31423389242120375,0,0,0.31423389242120375,106.29374667471342,78.86310237156157)"></circle><circle r="5" cx="155" cy="125" fill="#343a42" transform="matrix(0.34406745673580075,0,0,0.34406745673580075,101.66954420595088,81.9915679080249)"></circle><circle r="5" cx="155" cy="135" fill="#343a42" transform="matrix(0.3695188747990029,0,0,0.3695188747990029,97.72457440615455,85.1149519021346)"></circle><circle r="5" cx="155" cy="145" fill="#343a42" transform="matrix(0.38790871846347014,0,0,0.38790871846347014,94.87414863816213,88.75323582279682)"></circle><circle r="5" cx="155" cy="155" fill="#343a42" transform="matrix(0.3980241881118861,0,0,0.3980241881118861,93.30625084265765,93.30625084265765)"></circle><circle r="5" cx="155" cy="165" fill="#343a42" transform="matrix(0.4003416800840797,0,0,0.4003416800840797,92.94703958696763,98.94362278612685)"></circle><circle r="5" cx="155" cy="175" fill="#343a42" transform="matrix(0.3968758616567774,0,0,0.3968758616567774,93.4842414431995,105.54672421006396)"></circle><circle r="5" cx="155" cy="185" fill="#343a42" transform="matrix(0.390595889455269,0,0,0.390595889455269,94.4576371344333,112.73976045077524)"></circle><circle r="5" cx="155" cy="195" fill="#343a42" transform="matrix(0.3843991125852644,0,0,0.3843991125852644,95.41813754928401,120.04217304587344)"></circle><circle r="5" cx="165" cy="5" fill="#343a42" transform="matrix(0.3375106505382847,0,0,0.3375106505382847,109.31074266118301,3.3124467473085764)"></circle><circle r="5" cx="165" cy="15" fill="#343a42" transform="matrix(0.3174936188401433,0,0,0.3174936188401433,112.61355289137634,10.23759571739785)"></circle><circle r="5" cx="165" cy="25" fill="#343a42" transform="matrix(0.29400484972795676,0,0,0.29400484972795676,116.48919979488713,17.64987875680108)"></circle><circle r="5" cx="165" cy="35" fill="#343a42" transform="matrix(0.2710763631234616,0,0,0.2710763631234616,120.27240008462883,25.512327290678844)"></circle><circle r="5" cx="165" cy="45" fill="#343a42" transform="matrix(0.2523888233259018,0,0,0.2523888233259018,123.35584415122621,33.64250295033442)"></circle><circle r="5" cx="165" cy="55" fill="#343a42" transform="matrix(0.24045331975529957,0,0,0.24045331975529957,125.32520224037557,41.77506741345852)"></circle><circle r="5" cx="165" cy="65" fill="#343a42" transform="matrix(0.2365455217609373,0,0,0.2365455217609373,125.96998890944535,49.62454108553908)"></circle><circle r="5" cx="165" cy="75" fill="#343a42" transform="matrix(0.24101425886478878,0,0,0.24101425886478878,125.23264728730985,56.92393058514084)"></circle><circle r="5" cx="165" cy="85" fill="#343a42" transform="matrix(0.2537569417754385,0,0,0.2537569417754385,123.13010460705264,63.430659949087726)"></circle><circle r="5" cx="165" cy="95" fill="#343a42" transform="matrix(0.27389933281777484,0,0,0.27389933281777484,119.80661008506715,68.9795633823114)"></circle><circle r="5" cx="165" cy="105" fill="#343a42" transform="matrix(0.2997019260030564,0,0,0.2997019260030564,115.5491822094957,73.53129776967907)"></circle><circle r="5" cx="165" cy="115" fill="#343a42" transform="matrix(0.3287144927360117,0,0,0.3287144927360117,110.76210869855807,77.19783333535865)"></circle><circle r="5" cx="165" cy="125" fill="#343a42" transform="matrix(0.3581084363332965,0,0,0.3581084363332965,105.91210800500608,80.23644545833794)"></circle><circle r="5" cx="165" cy="135" fill="#343a42" transform="matrix(0.3851284320864916,0,0,0.3851284320864916,101.45380870572887,83.00766166832364)"></circle><circle r="5" cx="165" cy="145" fill="#343a42" transform="matrix(0.4075678556624073,0,0,0.4075678556624073,97.7513038157028,85.90266092895095)"></circle><circle r="5" cx="165" cy="155" fill="#343a42" transform="matrix(0.4241618596366368,0,0,0.4241618596366368,95.01329315995493,89.2549117563213)"></circle><circle r="5" cx="165" cy="165" fill="#343a42" transform="matrix(0.43479686268555034,0,0,0.43479686268555034,93.2585176568842,93.2585176568842)"></circle><circle r="5" cx="165" cy="175" fill="#343a42" transform="matrix(0.4404556245974206,0,0,0.4404556245974206,92.3248219414256,97.92026569545139)"></circle><circle r="5" cx="165" cy="185" fill="#343a42" transform="matrix(0.4428529928365414,0,0,0.4428529928365414,91.92925618197067,103.07219632523984)"></circle><circle r="5" cx="165" cy="195" fill="#343a42" transform="matrix(0.44377991606672434,0,0,0.44377991606672434,91.77631384899048,108.46291636698875)"></circle><circle r="5" cx="175" cy="5" fill="#343a42" transform="matrix(0.3474860606744121,0,0,0.3474860606744121,114.18993938197788,3.2625696966279394)"></circle><circle r="5" cx="175" cy="15" fill="#343a42" transform="matrix(0.32817748974405353,0,0,0.32817748974405353,117.56893929479062,10.077337653839198)"></circle><circle r="5" cx="175" cy="25" fill="#343a42" transform="matrix(0.30767971035530994,0,0,0.30767971035530994,121.15605068782077,17.308007241117252)"></circle><circle r="5" cx="175" cy="35" fill="#343a42" transform="matrix(0.2884214598873265,0,0,0.2884214598873265,124.52624451971786,24.905248903943573)"></circle><circle r="5" cx="175" cy="45" fill="#343a42" transform="matrix(0.273370970052244,0,0,0.273370970052244,127.1600802408573,32.69830634764902)"></circle><circle r="5" cx="175" cy="55" fill="#343a42" transform="matrix(0.26456762436482184,0,0,0.26456762436482184,128.70066573615617,40.4487806599348)"></circle><circle r="5" cx="175" cy="65" fill="#343a42" transform="matrix(0.26277707121762156,0,0,0.26277707121762156,129.01401253691623,47.919490370854604)"></circle><circle r="5" cx="175" cy="75" fill="#343a42" transform="matrix(0.26807263877243254,0,0,0.26807263877243254,128.0872882148243,54.894552092067556)"></circle><circle r="5" cx="175" cy="85" fill="#343a42" transform="matrix(0.2800612595639883,0,0,0.2800612595639883,125.98927957630204,61.194792937060996)"></circle><circle r="5" cx="175" cy="95" fill="#343a42" transform="matrix(0.2979204124072264,0,0,0.2979204124072264,122.86392782873538,66.69756082131349)"></circle><circle r="5" cx="175" cy="105" fill="#343a42" transform="matrix(0.3205883493071706,0,0,0.3205883493071706,118.89703887124514,71.33822332274708)"></circle><circle r="5" cx="175" cy="115" fill="#343a42" transform="matrix(0.34666784860074595,0,0,0.34666784860074595,114.33312649486946,75.13319741091422)"></circle><circle r="5" cx="175" cy="125" fill="#343a42" transform="matrix(0.37443737340058675,0,0,0.37443737340058675,109.47345965489733,78.19532832492666)"></circle><circle r="5" cx="175" cy="135" fill="#343a42" transform="matrix(0.40203786145673487,0,0,0.40203786145673487,104.6433742450714,80.7248887033408)"></circle><circle r="5" cx="175" cy="145" fill="#343a42" transform="matrix(0.42774962126660376,0,0,0.42774962126660376,100.14381627834435,82.97630491634246)"></circle><circle r="5" cx="175" cy="155" fill="#343a42" transform="matrix(0.4502641987398065,0,0,0.4502641987398065,96.20376522053387,85.20904919533)"></circle><circle r="5" cx="175" cy="165" fill="#343a42" transform="matrix(0.4688627061099481,0,0,0.4688627061099481,92.94902643075908,87.63765349185856)"></circle><circle r="5" cx="175" cy="175" fill="#343a42" transform="matrix(0.4834364952231503,0,0,0.4834364952231503,90.3986133359487,90.3986133359487)"></circle><circle r="5" cx="175" cy="185" fill="#343a42" transform="matrix(0.49438198172684283,0,0,0.49438198172684283,88.48315319780251,93.53933338053407)"></circle><circle r="5" cx="175" cy="195" fill="#343a42" transform="matrix(0.5023888100769838,0,0,0.5023888100769838,87.08195823652784,97.03418203498816)"></circle><circle r="5" cx="185" cy="5" fill="#343a42" transform="matrix(0.37151091191519986,0,0,0.37151091191519986,116.27048129568803,3.1424454404240008)"></circle><circle r="5" cx="185" cy="15" fill="#343a42" transform="matrix(0.35441401768262,0,0,0.35441401768262,119.4334067287153,9.683789734760701)"></circle><circle r="5" cx="185" cy="25" fill="#343a42" transform="matrix(0.33828795275970397,0,0,0.33828795275970397,122.41672873945477,16.5428011810074)"></circle><circle r="5" cx="185" cy="35" fill="#343a42" transform="matrix(0.3239139973310863,0,0,0.3239139973310863,125.07591049374903,23.66301009341198)"></circle><circle r="5" cx="185" cy="45" fill="#343a42" transform="matrix(0.31285953886736984,0,0,0.31285953886736984,127.12098530953658,30.921320750968356)"></circle><circle r="5" cx="185" cy="55" fill="#343a42" transform="matrix(0.30644073742328476,0,0,0.30644073742328476,128.3084635766923,38.145759441719335)"></circle><circle r="5" cx="185" cy="65" fill="#343a42" transform="matrix(0.30527474998619003,0,0,0.30527474998619003,128.52417125255485,45.15714125089765)"></circle><circle r="5" cx="185" cy="75" fill="#343a42" transform="matrix(0.30946675354115094,0,0,0.30946675354115094,127.74865059488707,51.78999348441368)"></circle><circle r="5" cx="185" cy="85" fill="#343a42" transform="matrix(0.3186326787447445,0,0,0.3186326787447445,126.05295443222226,57.91622230669672)"></circle><circle r="5" cx="185" cy="95" fill="#343a42" transform="matrix(0.3321535794409486,0,0,0.3321535794409486,123.55158780342451,63.44540995310989)"></circle><circle r="5" cx="185" cy="105" fill="#343a42" transform="matrix(0.34966020986195523,0,0,0.34966020986195523,120.31286117553829,68.28567796449471)"></circle><circle r="5" cx="185" cy="115" fill="#343a42" transform="matrix(0.37079578398165147,0,0,0.37079578398165147,116.40277996339448,72.35848484211007)"></circle><circle r="5" cx="185" cy="125" fill="#343a42" transform="matrix(0.39492905410925194,0,0,0.39492905410925194,111.93812498978839,75.63386823634352)"></circle><circle r="5" cx="185" cy="135" fill="#343a42" transform="matrix(0.42108621894418274,0,0,0.42108621894418274,107.0990494953262,78.15336044253533)"></circle><circle r="5" cx="185" cy="145" fill="#343a42" transform="matrix(0.4480302556658232,0,0,0.4480302556658232,102.1144027018227,80.03561292845563)"></circle><circle r="5" cx="185" cy="155" fill="#343a42" transform="matrix(0.4744106288145207,0,0,0.4744106288145207,97.23403366931367,81.4663525337493)"></circle><circle r="5" cx="185" cy="165" fill="#343a42" transform="matrix(0.49895365494023786,0,0,0.49895365494023786,92.69357383605599,82.67264693486075)"></circle><circle r="5" cx="185" cy="175" fill="#343a42" transform="matrix(0.5206471540499874,0,0,0.5206471540499874,88.68027650075233,83.8867480412522)"></circle><circle r="5" cx="185" cy="185" fill="#343a42" transform="matrix(0.538824902112669,0,0,0.538824902112669,85.31739310915624,85.31739310915624)"></circle><circle r="5" cx="185" cy="195" fill="#343a42" transform="matrix(0.5531061309896075,0,0,0.5531061309896075,82.67536576692261,87.14430445702654)"></circle><circle r="5" cx="195" cy="5" fill="#343a42" transform="matrix(0.4044753592185597,0,0,0.4044753592185597,116.12730495238085,2.9776232039072017)"></circle><circle r="5" cx="195" cy="15" fill="#343a42" transform="matrix(0.39168872493877516,0,0,0.39168872493877516,118.62069863693884,9.124669125918373)"></circle><circle r="5" cx="195" cy="25" fill="#343a42" transform="matrix(0.38143381068636184,0,0,0.38143381068636184,120.62040691615944,15.464154732840955)"></circle><circle r="5" cx="195" cy="35" fill="#343a42" transform="matrix(0.37319786526146304,0,0,0.37319786526146304,122.22641627401471,21.938074715848792)"></circle><circle r="5" cx="195" cy="45" fill="#343a42" transform="matrix(0.3670327428270877,0,0,0.3670327428270877,123.4286151487179,28.483526572781052)"></circle><circle r="5" cx="195" cy="55" fill="#343a42" transform="matrix(0.3634654878492591,0,0,0.3634654878492591,124.12422986939448,35.00939816829075)"></circle><circle r="5" cx="195" cy="65" fill="#343a42" transform="matrix(0.3628176452746898,0,0,0.3628176452746898,124.25055917143548,41.41685305714516)"></circle><circle r="5" cx="195" cy="75" fill="#343a42" transform="matrix(0.36514736962198135,0,0,0.36514736962198135,123.79626292371364,47.6139472783514)"></circle><circle r="5" cx="195" cy="85" fill="#343a42" transform="matrix(0.3702463990485796,0,0,0.3702463990485796,122.80195218552699,53.52905608087073)"></circle><circle r="5" cx="195" cy="95" fill="#343a42" transform="matrix(0.377842950053241,0,0,0.377842950053241,121.32062473961801,59.10491974494211)"></circle><circle r="5" cx="195" cy="105" fill="#343a42" transform="matrix(0.38826667321087704,0,0,0.38826667321087704,119.28799872387897,64.23199931285791)"></circle><circle r="5" cx="195" cy="115" fill="#343a42" transform="matrix(0.4021964666462102,0,0,0.4021964666462102,116.57168900398901,68.74740633568582)"></circle><circle r="5" cx="195" cy="125" fill="#343a42" transform="matrix(0.4200810908237693,0,0,0.4200810908237693,113.08418728936498,72.48986364702884)"></circle><circle r="5" cx="195" cy="135" fill="#343a42" transform="matrix(0.44179361581287346,0,0,0.44179361581287346,108.85024491648967,75.35786186526208)"></circle><circle r="5" cx="195" cy="145" fill="#343a42" transform="matrix(0.4665837341020009,0,0,0.4665837341020009,104.01617185010983,77.34535855520987)"></circle><circle r="5" cx="195" cy="155" fill="#343a42" transform="matrix(0.4932466371756346,0,0,0.4932466371756346,98.81690575075125,78.54677123777664)"></circle><circle r="5" cx="195" cy="165" fill="#343a42" transform="matrix(0.5203255533482646,0,0,0.5203255533482646,93.5365170970884,79.14628369753635)"></circle><circle r="5" cx="195" cy="175" fill="#343a42" transform="matrix(0.5462848699713816,0,0,0.5462848699713816,88.47445035558059,79.40014775500822)"></circle><circle r="5" cx="195" cy="185" fill="#343a42" transform="matrix(0.5696300921239028,0,0,0.5696300921239028,83.92213203583896,79.61843295707799)"></circle><circle r="5" cx="195" cy="195" fill="#343a42" transform="matrix(0.5889675665404477,0,0,0.5889675665404477,80.1513245246127,80.1513245246127)"></circle></svg>