<?xml version="1.0" encoding="utf-8"?>
<svg xmlns="http://www.w3.org/2000/svg" viewBox="0 0 1000 400" xmlns:bx="https://boxy-svg.com" width="1000px" height="400px"><defs><bx:export><bx:file format="svg"/></bx:export></defs><g id="OBJECTS" transform="matrix(1.348105, 0, 0, 1.348105, 6.459933, -111.804489)" style=""><g transform="matrix(1, 0, 0, 1, -8.901384, -0.000002)"><g><path style="fill:#1D1D1B;" d="M59.74,303.305c6.184-4.337,12.479-8.492,18.816-12.577c6.338-4.084,12.728-8.082,19.151-12.024 c3.198-1.995,6.447-3.901,9.668-5.857l4.842-2.914l4.882-2.846c1.623-0.955,3.255-1.896,4.904-2.807 c0.46-0.226,0.623-0.431,1.686-0.83c0.263-0.083,0.582-0.155,0.95-0.169c0.366-0.016,0.78,0.043,1.098,0.145 c0.656,0.21,1.023,0.497,1.273,0.672l2.263,1.728c2.967,2.322,5.938,4.639,8.879,6.997l-2.338,0.246 c4.386-4.483,9.108-8.518,13.807-12.524c2.336-2.019,4.719-3.976,7.016-6.023c2.311-2.032,4.623-4.058,6.833-6.188l0.505-0.487 l0.562,0.437c12.021,9.353,24.516,18.096,36.819,27.088c6.151,4.496,12.214,9.105,18.295,13.69l9.108,6.896 c3.039,2.312,6.038,4.613,9.06,6.719c3.02,2.113,6.124,3.989,9.376,5.348c3.221,1.387,6.636,2.22,10.25,2.673 c3.603,0.455,7.334,0.573,11.135,0.737l11.417,0.464c15.221,0.669,30.438,1.565,45.648,2.855l-0.01,0.533 c-15.246,0.744-30.486,1.095-45.721,1.217l-11.426,0.055c-3.809,0.024-7.706,0.004-11.672-0.415 c-3.944-0.411-8.042-1.243-11.834-2.855c-3.776-1.595-7.212-3.71-10.419-5.968c-3.212-2.271-6.167-4.724-9.142-7.082 l-8.908-7.152c-5.93-4.78-11.878-9.536-17.737-14.406c-11.719-9.74-23.245-19.727-35.246-29.105l1.066-0.049l-6.825,6.261 c-2.298,2.055-4.531,4.177-6.769,6.284c-4.445,4.245-8.724,8.65-12.574,13.338l-0.953,1.161l-1.385-0.914 c-3.146-2.077-6.263-4.193-9.383-6.305l-2.303-1.597c-0.133-0.096-0.166-0.073,0.037,0.002c0.093,0.033,0.27,0.063,0.401,0.056 c0.133-0.004,0.22-0.025,0.259-0.036c0.172-0.083-0.439,0.269-0.799,0.5c-1.596,0.999-3.209,1.969-4.831,2.924l-4.853,2.886 l-4.892,2.817c-3.269,1.866-6.509,3.78-9.801,5.607c-6.557,3.699-13.146,7.344-19.787,10.902 c-6.643,3.556-13.327,7.044-20.123,10.349L59.74,303.305z"/></g><g><path style="fill:#1D1D1B;" d="M192.571,271.83c2.039-2.36,4.058-4.741,6.12-7.083l6.23-6.989l6.308-6.922l6.428-6.811 c8.61-9.046,17.403-17.928,26.453-26.547l6.814-6.436l6.896-6.35l6.958-6.284l7.049-6.182l7.115-6.107l7.175-6.037l7.272-5.92 l7.337-5.839l1.784-1.42l1.77,1.447l6.106,4.991l6.074,5.031l-3.897,0.413c8.115-9.946,16.483-19.682,25.094-29.194 c8.61-9.513,17.512-18.759,26.722-27.684l1.341-1.299l1.277,1.244c5.347,5.209,11.767,9.38,18.763,12.202 c3.497,1.412,7.134,2.498,10.847,3.229c3.712,0.722,7.503,1.128,11.297,1.072l0.612-0.009l0.267,0.533l5.707,11.398l5.776,11.362 l5.869,11.315l5.964,11.266l-1.956,0.53c-0.17-2.581-0.401-5.158-0.6-7.738l-0.619-7.737l-1.233-15.473l-0.323-4.052l3.209,2.62 c5,4.083,9.61,8.663,13.775,13.607c4.114,4.985,7.828,10.279,11.156,15.751c1.677,2.729,3.292,5.483,4.882,8.239l4.663,8.288 c3.099,5.506,6.31,10.898,9.776,16.092c0.881,1.302,1.732,2.64,2.562,3.439c0.429,0.413,0.82,0.691,1.285,0.883 c0.476,0.199,1.07,0.328,1.746,0.404c0.673,0.077,1.438,0.104,2.241,0.144l2.375,0.112l4.75,0.241l9.498,0.512l4.749,0.256 c1.568,0.084,3.21,0.159,4.918,0.451c1.691,0.29,3.499,0.883,5.003,1.979c1.485,1.078,2.594,2.424,3.564,3.734 c1.884,2.615,3.653,5.203,5.485,7.806c3.639,5.195,7.23,10.427,10.788,15.683l-0.427,0.319c-4.036-4.898-8.04-9.821-11.995-14.78 l-5.924-7.412c-0.971-1.186-1.984-2.251-3.116-2.981c-1.113-0.72-2.412-1.09-3.847-1.267c-1.431-0.178-2.967-0.157-4.565-0.189 l-4.755-0.073l-9.511-0.147l-4.755-0.089l-2.377-0.052c-0.781-0.02-1.602-0.023-2.507-0.101c-0.898-0.08-1.88-0.235-2.883-0.616 c-1.018-0.379-1.955-1.02-2.676-1.693c-0.734-0.679-1.314-1.398-1.828-2.079c-0.512-0.682-0.955-1.32-1.426-1.982 c-3.736-5.247-7.008-10.767-10.215-16.259l-4.76-8.234c-1.564-2.744-3.142-5.468-4.771-8.149 c-3.279-5.346-6.655-10.599-10.507-15.484c-3.785-4.933-8.003-9.527-12.644-13.685l2.886-1.431l0.504,15.514l0.25,7.757 c0.091,2.585,0.149,5.173,0.269,7.756l0.228,4.937l-2.185-4.407l-5.662-11.421l-5.757-11.372l-5.85-11.325l-5.919-11.289 l0.878,0.524c-3.919,0.111-7.857-0.096-11.742-0.716c-3.884-0.611-7.715-1.596-11.427-2.932 c-7.419-2.672-14.395-6.719-20.341-12.033l2.618-0.055c-8.756,9.281-17.351,18.702-25.747,28.294 c-8.397,9.591-16.545,19.396-24.435,29.401l-1.708,2.166l-2.189-1.753l-6.156-4.93l-6.124-4.97l3.554,0.027l-7.282,5.819 l-7.233,5.88l-7.214,5.904l-7.157,5.975l-7.105,6.038l-7.076,6.073l-7.017,6.143l-6.977,6.192 c-9.255,8.308-18.438,16.709-27.46,25.29l-13.453,12.964l-13.313,13.131L192.571,271.83z"/></g><g><polygon style="fill:#1D1D1B;" points="304.55,170.008 318.173,223.794 315.906,222.809 353.947,202.854 355.082,202.259 &#10;&#9;&#9;&#9;&#9;355.541,203.419 377.426,258.722 353.435,204.299 355.028,204.864 317.397,225.582 315.662,226.537 315.129,224.598 &#10;&#9;&#9;&#9;&#9;300.425,171.098 &#9;&#9;&#9;"/></g><g><path style="fill:#1D1D1B;" d="M367.249,122.767c1.501,5.041,3.201,10.083,5.055,15.026c1.878,4.935,3.9,9.833,6.393,14.419 c1.257,2.271,2.631,4.508,4.31,6.31c0.842,0.886,1.753,1.576,2.812,2.02c1.046,0.432,2.183,0.563,3.332,0.435 c2.314-0.289,4.563-1.594,6.529-3.188c1.969-1.599,3.775-3.547,5.279-5.579l1.004-1.357l0.719,1.479l46.871,96.457 l-48.666-95.564l1.723,0.123c-1.621,2.276-3.432,4.296-5.558,6.102c-2.115,1.763-4.598,3.359-7.603,3.811 c-1.489,0.203-3.083,0.054-4.511-0.51c-1.42-0.552-2.682-1.492-3.688-2.518c-1.995-2.07-3.455-4.396-4.822-6.748 c-2.684-4.729-4.825-9.666-6.827-14.643c-1.979-4.993-3.781-10.018-5.415-15.155L367.249,122.767z"/></g><g><polygon style="fill:#1D1D1B;" points="513.024,224.963 476.951,239.884 476.268,240.167 475.752,239.677 463.129,227.695 &#10;&#9;&#9;&#9;&#9;464.496,227.526 424.013,288.045 462.986,226.542 463.552,225.648 464.354,226.372 477.27,238.038 476.072,237.831 &#10;&#9;&#9;&#9;&#9;511.764,222.022 &#9;&#9;&#9;"/></g><g><path style="fill:#1D1D1B;" d="M628.369,248.37c-10.509,1.509-20.706,5.48-30.337,10.463 c-9.654,5.005-18.814,11.052-27.755,17.415c-2.224,1.563-4.484,3.329-7.213,4.508c-1.356,0.592-2.84,0.976-4.282,1.151 c-1.449,0.183-2.878,0.201-4.274,0.178l-16.525-0.486c-5.5-0.175-10.993-0.366-16.402,0.493 c-2.693,0.433-5.356,1.137-7.832,2.301c-2.467,1.167-4.719,2.839-6.456,4.981c1.647-2.211,3.85-3.997,6.305-5.285 c2.463-1.285,5.145-2.113,7.862-2.665c5.453-1.098,11.043-1.131,16.535-1.182l16.506-0.192c2.712-0.055,5.32-0.327,7.585-1.457 c2.307-1.102,4.376-2.833,6.575-4.522c8.735-6.753,17.751-13.244,27.451-18.773c9.682-5.498,20.122-10.104,31.395-12.192 L628.369,248.37z"/></g><g><path style="fill:#1D1D1B;" d="M137.465,276.567c-5.538,5.068-11.193,10.026-16.984,14.792l-17.416,14.198l16.354-15.395 c5.42-5.151,10.666-10.456,15.803-15.878L137.465,276.567z"/></g><line style="fill:none;stroke:#1D1D1B;stroke-width:1.0667;stroke-miterlimit:10;" x1="133.24" y1="277.838" x2="120.403" y2="269.154"/><line style="fill:none;stroke:#1D1D1B;stroke-width:1.0667;stroke-miterlimit:10;" x1="130.219" y1="281.047" x2="116.061" y2="271.797"/><line style="fill:none;stroke:#1D1D1B;stroke-width:1.0667;stroke-miterlimit:10;" x1="126.632" y1="284.445" x2="111.719" y2="274.817"/><line style="fill:none;stroke:#1D1D1B;stroke-width:1.0667;stroke-miterlimit:10;" x1="120.969" y1="289.353" x2="104.545" y2="278.404"/><line style="fill:none;stroke:#1D1D1B;stroke-width:1.0667;stroke-miterlimit:10;" x1="115.872" y1="294.639" x2="98.315" y2="282.557"/><line style="fill:none;stroke:#1D1D1B;stroke-width:1.0667;stroke-miterlimit:10;" x1="108.509" y1="300.492" x2="90.009" y2="287.277"/><line style="fill:none;stroke:#1D1D1B;stroke-width:1.0667;stroke-miterlimit:10;" x1="500.666" y1="222.184" x2="506.355" y2="226.141"/><line style="fill:none;stroke:#1D1D1B;stroke-width:1.0667;stroke-miterlimit:10;" x1="495.347" y1="222.802" x2="501.037" y2="227.749"/><line style="fill:none;stroke:#1D1D1B;stroke-width:1.0667;stroke-miterlimit:10;" x1="488.792" y1="222.307" x2="495.965" y2="230.223"/><line style="fill:none;stroke:#1D1D1B;stroke-width:1.0667;stroke-miterlimit:10;" x1="481.494" y1="221.813" x2="489.534" y2="232.697"/><g><g><polygon style="fill:#1D1D1B;" points="619.92,247.413 643.179,262.003 619.109,248.792 &#9;&#9;&#9;&#9;"/></g><g><polygon style="fill:#1D1D1B;" points="612.966,249.231 658.734,276.731 612.163,250.615 &#9;&#9;&#9;&#9;"/></g><g><polygon style="fill:#1D1D1B;" points="604.033,253.204 640.862,275.738 603.224,254.584 &#9;&#9;&#9;&#9;"/></g><g><polygon style="fill:#1D1D1B;" points="596.071,257.496 623.983,273.752 595.3,258.898 &#9;&#9;&#9;&#9;"/></g><g><polygon style="fill:#1D1D1B;" points="589.122,261.303 605.78,271.435 588.348,262.703 &#9;&#9;&#9;&#9;"/></g><g><polygon style="fill:#1D1D1B;" points="581.513,265.938 592.376,272.925 580.733,267.335 &#9;&#9;&#9;&#9;"/></g></g><g><g><polygon style="fill:#1D1D1B;" points="198.148,274.977 240.505,236.02 199.621,276.52 &#9;&#9;&#9;&#9;"/></g><g><polygon style="fill:#1D1D1B;" points="202.305,277.621 238.704,245.183 203.759,279.183 &#9;&#9;&#9;&#9;"/></g><g><polygon style="fill:#1D1D1B;" points="207.203,281.641 237.812,254.1 208.671,283.189 &#9;&#9;&#9;&#9;"/></g><g><polygon style="fill:#1D1D1B;" points="214.786,286.097 249.405,254.992 216.248,287.651 &#9;&#9;&#9;&#9;"/></g><g><polygon style="fill:#1D1D1B;" points="219.244,290.111 243.163,269.038 220.708,291.663 &#9;&#9;&#9;&#9;"/></g><g><polygon style="fill:#1D1D1B;" points="224.364,294.578 249.405,271.936 225.844,296.114 &#9;&#9;&#9;&#9;"/></g><g><polygon style="fill:#1D1D1B;" points="228.386,298.907 247.399,282.415 229.85,300.458 &#9;&#9;&#9;&#9;"/></g><g><polygon style="fill:#1D1D1B;" points="234.406,302.149 246.061,292.671 235.867,303.704 &#9;&#9;&#9;&#9;"/></g></g><g><path style="fill:#1D1D1B;" d="M541.887,230.151l14.04,13.016l3.51,3.254l0.876,0.813c0.301,0.273,0.433,0.372,0.618,0.344 c0.219-0.02,0.605-0.242,0.961-0.41l1.074-0.527l8.594-4.215l-8.213,4.918l-1.027,0.615c-0.352,0.189-0.632,0.444-1.197,0.6 c-0.276,0.074-0.646,0.035-0.903-0.089c-0.264-0.117-0.455-0.27-0.62-0.397l-0.944-0.738l-3.769-2.95l-15.078-11.798 L541.887,230.151z"/></g><path style="fill:#1D1D1B;" d="M217.567,245.515c-5.537-4.744-11.074-9.488-16.611-14.231c-0.406-0.347-0.854-0.713-1.387-0.736 c-0.679-0.029-1.239,0.497-1.705,0.991c-7.961,8.437-14.433,18.552-24.144,24.898c6.36,4.798,12.313,11.317,19.048,15.573 L217.567,245.515z"/><path style="fill:#1D1E1B;" d="M150.013,261.333c-2.024-1.345-3.956-2.827-5.781-4.431c-4.381,4.272-9.092,8.207-14.076,11.757 c2.658,1.094,5.202,2.461,7.582,4.074"/><g><path style="fill:#1D1D1B;" d="M434.082,322.445c4.821-5.053,9.946-9.79,15.084-14.493c5.152-4.69,10.351-9.322,15.576-13.916 l15.64-13.785c2.598-2.3,5.156-4.63,7.681-6.976c2.496-2.297,4.936-4.845,7.729-7.189c2.766-2.341,5.958-4.502,9.717-5.69 c1.858-0.61,3.89-0.907,5.745-0.928c1.869-0.047,3.648,0.057,5.356,0.118c3.396,0.176,6.618,0.163,8.95-1.334 c2.357-1.404,3.633-4.696,5.181-7.837c1.486-3.148,3.011-6.278,4.446-9.448l2.174-4.745l1.05-2.388 c0.352-0.796,0.722-1.656,1.315-2.462c0.578-0.817,1.483-1.489,2.417-1.829c0.941-0.352,1.89-0.475,2.799-0.536 c1.826-0.083,3.489-0.05,5.227-0.155c3.443-0.157,6.867-0.61,10.253-1.209c3.381-0.639,6.719-1.478,9.985-2.523 c3.289-1.052,6.402-2.293,9.624-3.695c1.634-0.685,3.363-1.355,5.267-1.764c1.884-0.423,4.037-0.487,6.057,0.025 c2.005,0.496,3.774,1.38,5.349,2.325c1.588,0.958,2.995,1.903,4.47,2.841c11.662,7.583,23.365,15.099,34.895,22.876 c5.801,3.834,11.476,7.858,17.217,11.784c5.715,3.965,11.34,8.07,17.136,11.909c11.529,7.777,22.951,15.725,34.198,23.969 l-0.286,0.45c-12.256-6.657-24.337-13.609-36.311-20.733l-4.494-2.666c-1.493-0.896-2.936-1.868-4.407-2.798l-8.779-5.65 c-5.804-3.84-11.674-7.582-17.418-11.515c-11.56-7.756-22.946-15.773-34.375-23.723c-2.902-1.979-5.584-4.173-8.291-5.012 c-2.643-0.872-5.781-0.16-9.004,0.938c-3.254,1.139-6.707,2.219-10.12,3.043c-3.439,0.81-6.903,1.482-10.393,1.935 c-3.487,0.472-6.993,0.763-10.502,0.877c-1.737,0.085-3.555,0.034-5.205,0.09c-1.663,0.052-3.158,0.511-3.968,1.726 c-0.433,0.605-0.756,1.357-1.089,2.156l-1.007,2.407l-1.939,4.846c-1.308,3.224-2.525,6.487-3.782,9.733 c-0.632,1.626-1.176,3.245-1.96,4.959c-0.768,1.679-1.915,3.479-3.609,4.761c-1.666,1.306-3.691,2.006-5.595,2.346 c-1.919,0.343-3.769,0.407-5.539,0.435c-1.77,0.011-3.471-0.011-5.078,0.1c-1.618,0.116-3.057,0.349-4.508,0.826 c-2.888,0.956-5.591,2.735-8.179,4.799c-2.584,2.078-5.027,4.502-7.67,6.893c-2.634,2.322-5.287,4.601-7.962,6.84 c-5.331,4.504-10.75,8.876-16.172,13.241c-5.419,4.368-10.879,8.68-16.321,13.01c-5.438,4.335-10.897,8.641-16.206,13.129 L434.082,322.445z"/></g><path style="fill:#1D1D1B;" d="M512.226,223.724c7.864-5.051,15.727-10.102,23.591-15.153c4.673,5.779,9.581,11.368,14.709,16.748 c4.3-3.537,8.997-6.59,13.975-9.084c2.323,3.288,4.646,6.576,6.969,9.865c-9.15,2.135-18.155,2.769-27.296,3.734 c-1.201,0.127-2.078,0.513-3.049,1.23c-0.773,0.57-1.29,1.054-1.748,1.898c-2.729,5.031-4.241,10.012-7.173,15.094 L512.226,223.724z"/><path style="fill:#1D1E1B;" d="M248.309,312.994c3.321-6.068,6.495-14.751,9.817-20.819c2.32,6.55,4.64,13.1,6.959,19.65 c1.207-8.747,3.472-17.348,6.732-25.554c2.02,8.959,4.04,17.919,6.061,26.878c2.936-6.507,5.871-13.015,8.807-19.522 c1.491,6.832,2.982,13.664,4.473,20.496c1.667-4.795,3.334-9.589,5.002-14.384c1.549,4.609,3.099,9.219,4.648,13.828 c3.051-7.449,6.101-14.897,9.151-22.346c2.295,7.474,3.919,15.154,4.844,22.917c1.546-5.68,3.634-11.211,6.229-16.495 c2.176,5.851,4.581,12.136,6.757,17.987L248.309,312.994z"/><g><path style="fill:#1D1E1B;" d="M55.852,311.766c-0.176,10.111,0.202,20.198,1.106,30.207h25.934 c0.345-7.072,0.952-14.111,1.839-21.092c0.241,7.07,0.769,14.106,1.556,21.092h21.567l2.283-21.597l1.084,21.597h19.44 c1.558-8.98,2.755-18.047,3.543-27.175c0.351,9.031,0.304,18.1-0.111,27.175h22.985c0.68-8.032,1.606-16.025,2.804-23.959 c-0.034,8.01,0.209,16.001,0.695,23.959h17.369l1.673-19.23l1.771,19.23h18.073l2.968-24.128l0.643,24.128h11.855 c-3.744-12.436-7.489-24.872-11.233-37.308c-4.273,10.687-8.903,21.232-13.879,31.611c-3.462-7.691-6.478-15.584-9.026-23.624 c-3.544,7.809-6.385,15.937-8.479,24.253c-4.05-11.627-7.392-23.5-10.002-35.531c-5.2,10.803-10.401,21.607-15.601,32.41 c-3.722-11.816-7.444-23.633-11.166-35.449c-5.155,12.4-10.311,24.8-15.466,37.199c-2.443-10.493-4.886-20.985-7.329-31.478 c-5.595,10.094-11.189,20.188-16.784,30.282c-3.231-9.764-6.462-19.528-9.693-29.292c-4.268,10.03-7.613,20.452-9.978,31.093 c-6.388-13.943-12.777-27.886-19.165-41.828c-8.597,14.848-17.195,32.815-25.792,47.663h22.128 C53.723,331.841,54.517,321.752,55.852,311.766z"/><g><g><path style="fill:#FFFFFF;" d="M42.091,333.619c0.967-0.029,1.8,0.24,2.603,0.579c0.789,0.37,1.545,0.811,2.168,1.552 c-0.968,0.031-1.801-0.238-2.603-0.579C43.471,334.8,42.715,334.359,42.091,333.619z"/></g><g><path style="fill:#FFFFFF;" d="M44.724,325.914c0.963,0.108,1.754,0.492,2.503,0.941c0.732,0.477,1.421,1.021,1.936,1.844 c-0.965-0.106-1.755-0.49-2.503-0.941C45.93,327.279,45.24,326.735,44.724,325.914z"/></g><g><path style="fill:#FFFFFF;" d="M48.108,318.659c0.817,0.072,1.443,0.408,2.024,0.806c0.561,0.425,1.076,0.914,1.399,1.67 c-0.818-0.07-1.444-0.406-2.024-0.806C48.947,319.901,48.432,319.412,48.108,318.659z"/></g><g><path style="fill:#FFFFFF;" d="M51.132,310.773c0.61,0.036,0.981,0.294,1.297,0.605c0.291,0.334,0.525,0.722,0.519,1.334 c-0.611-0.034-0.983-0.293-1.297-0.605C51.361,311.771,51.128,311.384,51.132,310.773z"/></g><g><path style="fill:#FFFFFF;" d="M56.278,301.844c0.409,0.953,0.494,1.874,0.501,2.798c-0.026,0.924-0.132,1.842-0.565,2.786 c-0.412-0.917-0.496-1.86-0.501-2.798C55.742,303.693,55.847,302.752,56.278,301.844z"/></g><g><path style="fill:#FFFFFF;" d="M61.183,311.901c0.096,0.563-0.065,0.926-0.287,1.241c-0.249,0.295-0.56,0.543-1.13,0.589 c-0.098-0.564,0.063-0.927,0.287-1.241C60.304,312.196,60.614,311.949,61.183,311.901z"/></g><g><path style="fill:#FFFFFF;" d="M58.735,321.118c0.686-0.608,1.412-0.929,2.16-1.216c0.759-0.256,1.524-0.468,2.441-0.432 c-0.56,0.73-1.305,1.141-2.082,1.435C60.467,321.169,59.631,321.325,58.735,321.118z"/></g><g><path style="fill:#FFFFFF;" d="M59.227,329.209c0.705-0.71,1.551-1.125,2.421-1.466c0.881-0.31,1.794-0.548,2.792-0.467 c-0.74,0.725-1.565,1.132-2.421,1.466C61.151,329.045,60.26,329.274,59.227,329.209z"/></g><g><path style="fill:#FFFFFF;" d="M61.673,336.632c0.726-0.651,1.504-1.019,2.303-1.354c0.812-0.305,1.63-0.569,2.606-0.589 c-0.596,0.776-1.387,1.236-2.214,1.58C63.53,336.582,62.639,336.787,61.673,336.632z"/></g><g><path style="fill:#FFFFFF;" d="M78.411,336.488c0.592-0.056,0.976,0.139,1.311,0.393c0.314,0.28,0.577,0.621,0.631,1.214 c-0.593,0.058-0.977-0.137-1.311-0.393C78.731,337.42,78.467,337.08,78.411,336.488z"/></g><g><path style="fill:#FFFFFF;" d="M79.953,328.648c0.602,0.003,0.975,0.238,1.294,0.528c0.296,0.314,0.536,0.683,0.546,1.287 c-0.604-0.001-0.977-0.236-1.294-0.528C80.205,329.619,79.964,329.25,79.953,328.648z"/></g><g><path style="fill:#FFFFFF;" d="M85.437,314.433c0.421,0.592,0.515,1.184,0.533,1.777c-0.016,0.592-0.11,1.184-0.533,1.776 c-0.423-0.592-0.517-1.184-0.533-1.776C84.922,315.618,85.017,315.026,85.437,314.433z"/></g><g><path style="fill:#FFFFFF;" d="M89.994,324.983c-0.015,0.756-0.238,1.312-0.499,1.862c-0.29,0.535-0.61,1.041-1.216,1.496 c-0.193-0.736-0.017-1.393,0.266-1.981C88.858,325.787,89.287,325.26,89.994,324.983z"/></g><g><path style="fill:#FFFFFF;" d="M92.114,334.72c0.065,0.648-0.139,1.112-0.406,1.532c-0.295,0.401-0.654,0.758-1.285,0.928 c-0.067-0.65,0.137-1.113,0.406-1.532C91.126,335.249,91.486,334.892,92.114,334.72z"/></g><g><path style="fill:#FFFFFF;" d="M99.76,336.04c0.816,0.018,1.458,0.312,2.059,0.671c0.583,0.387,1.124,0.841,1.489,1.572 c-0.817-0.016-1.459-0.31-2.058-0.671C100.668,337.223,100.127,336.77,99.76,336.04z"/></g><g><path style="fill:#FFFFFF;" d="M102.817,329.229c0.722,0.055,1.234,0.361,1.698,0.725c0.442,0.39,0.834,0.84,1.015,1.543 c-0.723-0.053-1.236-0.359-1.698-0.725C103.391,330.38,102.999,329.93,102.817,329.229z"/></g><g><path style="fill:#FFFFFF;" d="M106.155,321.631c0.584-0.041,0.951,0.16,1.266,0.419c0.293,0.284,0.533,0.626,0.555,1.213 c-0.586,0.043-0.952-0.159-1.266-0.419C106.418,322.559,106.178,322.216,106.155,321.631z"/></g><g><path style="fill:#FFFFFF;" d="M111.213,312.505c0.416,0.562,0.505,1.149,0.518,1.732c-0.021,0.582-0.12,1.168-0.548,1.723 c-0.418-0.596-0.508-1.162-0.518-1.732C110.688,313.659,110.788,313.094,111.213,312.505z"/></g><g><path style="fill:#FFFFFF;" d="M114.559,322.546c0.186,0.477,0.046,0.803-0.162,1.042c-0.231,0.217-0.553,0.367-1.037,0.193 c-0.015-0.51,0.101-0.738,0.272-0.935C113.825,322.67,114.05,322.547,114.559,322.546z"/></g><g><path style="fill:#FFFFFF;" d="M115.998,329.061c-0.283,0.636-0.661,0.997-1.074,1.335c-0.433,0.312-0.88,0.582-1.57,0.687 c0.084-0.696,0.47-1.169,0.922-1.534C114.748,329.21,115.305,328.961,115.998,329.061z"/></g><g><path style="fill:#FFFFFF;" d="M117.217,335.863c-0.387,0.732-0.945,1.187-1.543,1.577c-0.616,0.361-1.273,0.655-2.103,0.67 c0.386-0.734,0.944-1.19,1.543-1.577C115.732,336.173,116.389,335.879,117.217,335.863z"/></g><g><path style="fill:#FFFFFF;" d="M124.622,335.548c0.649-0.022,1.094,0.211,1.492,0.504c0.377,0.319,0.705,0.701,0.829,1.339 c-0.65,0.024-1.096-0.209-1.492-0.504C125.075,336.566,124.747,336.185,124.622,335.548z"/></g><g><path style="fill:#FFFFFF;" d="M126.627,328.279c0.72-0.043,1.267,0.19,1.773,0.488c0.488,0.326,0.933,0.719,1.204,1.389 c-0.722,0.045-1.268-0.188-1.773-0.488C127.344,329.341,126.898,328.948,126.627,328.279z"/></g><g><path style="fill:#FFFFFF;" d="M129.488,319.618c0.555-0.088,0.903,0.077,1.202,0.3c0.278,0.249,0.505,0.559,0.523,1.122 c-0.557,0.089-0.904-0.075-1.202-0.3C129.736,320.489,129.508,320.18,129.488,319.618z"/></g><g><path style="fill:#FFFFFF;" d="M134.672,307.733c0.421,0.66,0.515,1.32,0.533,1.979c-0.016,0.66-0.11,1.32-0.533,1.98 c-0.423-0.66-0.517-1.32-0.533-1.98C134.156,309.053,134.251,308.393,134.672,307.733z"/></g><g><path style="fill:#FFFFFF;" d="M139.029,319.91c0.093,0.634-0.126,1.106-0.42,1.508c-0.319,0.381-0.727,0.705-1.367,0.762 c0.026-0.64,0.252-1.045,0.529-1.422C138.074,320.402,138.415,320.087,139.029,319.91z"/></g><g><path style="fill:#FFFFFF;" d="M140.852,329.444c-0.027,0.594-0.274,0.946-0.573,1.242c-0.321,0.271-0.695,0.484-1.29,0.454 c0.026-0.595,0.273-0.948,0.573-1.242C139.884,329.629,140.258,329.416,140.852,329.444z"/></g><g><path style="fill:#FFFFFF;" d="M142.068,335.633c-0.354,0.848-0.918,1.446-1.532,1.985c-0.635,0.514-1.321,0.967-2.218,1.169 c0.353-0.849,0.917-1.447,1.532-1.985C140.486,336.29,141.172,335.836,142.068,335.633z"/></g><g><path style="fill:#FFFFFF;" d="M150.37,334.993c0.682-0.023,1.195,0.233,1.658,0.549c0.444,0.343,0.844,0.752,1.03,1.411 c-0.71,0.005-1.206-0.239-1.658-0.549C150.968,336.066,150.584,335.669,150.37,334.993z"/></g><g><path style="fill:#FFFFFF;" d="M152.137,328.841c0.639-0.051,1.084,0.161,1.484,0.434c0.38,0.3,0.713,0.664,0.85,1.292 c-0.641,0.052-1.086-0.159-1.484-0.434C152.609,329.83,152.277,329.467,152.137,328.841z"/></g><g><path style="fill:#FFFFFF;" d="M155.656,320.96c0.464-0.138,0.702-0.041,0.887,0.112c0.162,0.177,0.269,0.41,0.149,0.881 c-0.465,0.14-0.703,0.043-0.887-0.112C155.645,321.663,155.538,321.43,155.656,320.96z"/></g><g><path style="fill:#FFFFFF;" d="M161.079,309.257c0.401,0.639,0.476,1.268,0.474,1.894c-0.035,0.625-0.149,1.248-0.592,1.861 c-0.403-0.639-0.478-1.268-0.474-1.894C160.525,310.492,160.639,309.869,161.079,309.257z"/></g><g><path style="fill:#FFFFFF;" d="M163.531,320.662c-0.011,0.558-0.143,0.843-0.324,1.12c-0.206,0.259-0.437,0.472-0.966,0.654 c-0.255-0.504-0.125-0.943,0.103-1.281C162.598,320.834,162.974,320.576,163.531,320.662z"/></g><g><path style="fill:#FFFFFF;" d="M165.131,328.55c-0.087,0.631-0.342,1.011-0.643,1.363c-0.325,0.33-0.682,0.615-1.306,0.752 c-0.057-0.639,0.196-1.097,0.522-1.474C164.055,328.836,164.491,328.546,165.131,328.55z"/></g><g><path style="fill:#FFFFFF;" d="M167.271,335.261c-0.238,0.753-0.66,1.236-1.136,1.664c-0.497,0.402-1.043,0.74-1.826,0.851 c0.204-0.727,0.646-1.228,1.136-1.664C165.956,335.702,166.521,335.346,167.271,335.261z"/></g><g><path style="fill:#FFFFFF;" d="M174.452,335.457c0.62,0.116,0.982,0.431,1.283,0.793c0.275,0.382,0.487,0.813,0.439,1.443 c-0.622-0.115-0.984-0.43-1.283-0.793C174.618,336.516,174.406,336.086,174.452,335.457z"/></g><g><path style="fill:#FFFFFF;" d="M176.175,329.665c0.479,0.149,0.647,0.344,0.761,0.573c0.084,0.242,0.102,0.498-0.132,0.943 c-0.504-0.032-0.726-0.27-0.852-0.535C175.854,330.368,175.843,330.044,176.175,329.665z"/></g><g><path style="fill:#FFFFFF;" d="M183.911,329.867c0.076,0.592-0.053,0.965-0.232,1.325c-0.207,0.345-0.454,0.652-0.997,0.902 c-0.249-0.548-0.14-1.017,0.064-1.417C182.978,330.292,183.316,329.95,183.911,329.867z"/></g><g><path style="fill:#FFFFFF;" d="M186.343,335.955c-0.163,0.634-0.466,1.004-0.811,1.345c-0.367,0.317-0.76,0.589-1.407,0.698 c0.004-0.66,0.311-1.116,0.685-1.482C185.206,336.175,185.686,335.907,186.343,335.955z"/></g><g><path style="fill:#FFFFFF;" d="M193.942,336.393c0.699-0.162,1.297,0.034,1.822,0.329c0.508,0.323,0.962,0.759,1.145,1.455 c-0.714-0.036-1.21-0.267-1.694-0.541C194.746,337.334,194.309,337.005,193.942,336.393z"/></g><g><path style="fill:#FFFFFF;" d="M196.197,329.651c0.582-0.079,0.963,0.098,1.296,0.336c0.313,0.264,0.578,0.591,0.64,1.176 c-0.583,0.081-0.964-0.096-1.296-0.336C196.525,330.561,196.26,330.234,196.197,329.651z"/></g><g><path style="fill:#FFFFFF;" d="M198.415,322.357c0.54,0.008,0.822,0.217,1.044,0.473c0.196,0.276,0.329,0.601,0.203,1.128 c-0.541-0.007-0.824-0.216-1.044-0.473C198.425,323.207,198.291,322.882,198.415,322.357z"/></g><g><path style="fill:#FFFFFF;" d="M202.797,312.505c0.394,0.416,0.481,0.783,0.507,1.159c-0.007,0.377-0.077,0.746-0.454,1.18 c-0.464-0.342-0.587-0.752-0.611-1.156C202.247,313.283,202.351,312.868,202.797,312.505z"/></g><g><path style="fill:#FFFFFF;" d="M206.553,324.694c0.143,0.515-0.047,0.866-0.303,1.116c-0.277,0.226-0.649,0.374-1.144,0.168 c0.07-0.527,0.228-0.761,0.437-0.965C205.772,324.831,206.023,324.701,206.553,324.694z"/></g><g><path style="fill:#FFFFFF;" d="M208.275,330.176c-0.252,0.76-0.687,1.249-1.175,1.682c-0.51,0.407-1.067,0.751-1.86,0.865 c0.218-0.734,0.673-1.24,1.175-1.682C206.938,330.625,207.515,330.265,208.275,330.176z"/></g><g><path style="fill:#FFFFFF;" d="M209.087,336.776c-0.145,0.536-0.475,0.801-0.833,0.993c-0.372,0.162-0.786,0.255-1.296,0.033 c0.199-0.564,0.496-0.814,0.833-0.993C208.142,336.659,208.522,336.582,209.087,336.776z"/></g></g></g><g><g><path style="fill:#1D1D1B;" d="M711.648,297.794l7.017,0.006c-1.644-4.921-4.065-15.303-6.062-20.084 c-2.226,4.172-4.453,8.343-6.679,12.515c-1.922-4.857-3.844-9.713-5.767-14.57c-2.413,4.128-4.826,8.256-7.239,12.384 c-2.983-6.929-5.966-13.858-8.948-20.786c-4.831,6.722-9.087,13.882-12.702,21.369c-3.184-7.347-6.368-14.693-9.553-22.04 c-3.489,7.557-6.978,15.113-10.467,22.67c-3.727-10.888-7.455-21.776-11.182-32.664c-5.333,11.03-10.666,22.06-15.999,33.09 c-2.837-8.27-5.674-16.54-8.511-24.81c-3.335,8.432-6.67,16.864-10.005,25.296c-3.087-7.865-6.174-15.73-9.261-23.595 c-4.244,8.837-5.052,10.96-8.639,20.1l-0.937,2.436c-1.885-3.069-3.771-6.138-5.656-9.206c-1.408,3.088-2.815,6.176-4.223,9.264 c-0.898-3.547-2.138-7.002-3.696-10.298c-2.502,4.567-7.657,14.224-10.16,18.791l6.53,0.006 c1.103-3.432,2.049-6.935,2.808-10.504c0.125,3.481,0.074,6.989-0.139,10.506l7.401,0.007c0.724-3.545,1.286-7.145,1.657-10.789 c0.526,3.555,0.869,7.159,1.045,10.792l12.28,0.011c1.025-6.883,1.686-13.846,1.928-20.854 c0.694,6.902,0.978,13.869,0.895,20.857l15.88,0.014c0.985-6.391,1.664-12.852,1.986-19.358 c0.589,6.411,0.832,12.876,0.764,19.36l20.29,0.018l2.107-24.611l0.711,24.614l21.181,0.019 c0.669-6.48,1.132-12.995,1.36-19.537c0.699,6.478,1.166,12.998,1.426,19.54l17.63,0.016l1.873-19.418l0.846,19.421 l14.461,0.013l1.289-13.789l1.449,13.791l8.229,0.007l1.794-9.805L711.648,297.794z"/><path style="fill:#FFFFFF;" d="M572.318,287.163c-0.76,3.569-1.705,7.072-2.808,10.504l2.669,0.002 C572.393,294.152,572.443,290.645,572.318,287.163z"/><path style="fill:#FFFFFF;" d="M579.58,297.676l2.702,0.002c-0.177-3.632-0.52-7.236-1.045-10.792 C580.866,290.531,580.304,294.131,579.58,297.676z"/><path style="fill:#FFFFFF;" d="M596.491,276.835c-0.242,7.008-0.903,13.971-1.928,20.854l2.823,0.003 C597.469,290.704,597.184,283.737,596.491,276.835z"/><path style="fill:#FFFFFF;" d="M615.252,278.349c-0.323,6.506-1.001,12.966-1.986,19.358l2.75,0.002 C616.085,291.225,615.842,284.759,615.252,278.349z"/><polygon style="fill:#FFFFFF;" points="636.306,297.727 639.125,297.729 638.413,273.115 &#9;&#9;&#9;&#9;"/><path style="fill:#FFFFFF;" d="M660.306,297.748l2.786,0.003c-0.26-6.542-0.727-13.061-1.426-19.54 C661.438,284.753,660.975,291.268,660.306,297.748z"/><polygon style="fill:#FFFFFF;" points="680.721,297.766 683.44,297.769 682.594,278.348 &#9;&#9;&#9;&#9;"/><polygon style="fill:#FFFFFF;" points="697.902,297.781 700.639,297.784 699.19,283.993 &#9;&#9;&#9;&#9;"/><polygon style="fill:#FFFFFF;" points="710.662,287.987 708.868,297.791 711.648,297.794 &#9;&#9;&#9;&#9;"/></g><g><g><path style="fill:#FFFFFF;" d="M589.064,292.514c0.637-0.131,1.104-0.006,1.554,0.175c0.436,0.211,0.842,0.473,1.171,1.036 c-0.61,0.235-1.131,0.131-1.604-0.062C589.725,293.439,589.299,293.122,589.064,292.514z"/></g><g><path style="fill:#FFFFFF;" d="M590.076,287.431c0.718-0.11,1.275,0.035,1.821,0.231c0.534,0.227,1.04,0.501,1.489,1.073 c-0.69,0.238-1.309,0.127-1.88-0.082C590.947,288.414,590.419,288.074,590.076,287.431z"/></g><g><path style="fill:#FFFFFF;" d="M591.86,282.065c0.478-0.208,0.792-0.135,1.067,0.005c0.258,0.169,0.477,0.405,0.53,0.926 c-0.479,0.21-0.793,0.137-1.067-0.005C592.133,282.82,591.915,282.584,591.86,282.065z"/></g><g><path style="fill:#FFFFFF;" d="M593.313,276.76c0.482-0.163,0.816-0.034,1.097,0.153c0.261,0.214,0.48,0.497,0.46,1.008 c-0.539,0.124-0.839,0.02-1.097-0.153C593.535,277.569,593.35,277.311,593.313,276.76z"/></g><g><path style="fill:#FFFFFF;" d="M596.465,271.819c0.379,0.428,0.455,0.793,0.469,1.167c-0.018,0.374-0.099,0.738-0.487,1.16 c-0.455-0.352-0.567-0.765-0.579-1.168C595.889,272.575,596.006,272.164,596.465,271.819z"/></g><g><path style="fill:#FFFFFF;" d="M599.638,279.265c0.295,0.436,0.248,0.797,0.116,1.104c-0.161,0.292-0.419,0.55-0.947,0.579 c-0.181-0.493-0.126-0.781-0.009-1.051C598.944,279.641,599.139,279.422,599.638,279.265z"/></g><g><path style="fill:#FFFFFF;" d="M602.262,285.871c-0.119,0.66-0.193,1.065-0.436,1.568c-0.13,0.235-0.28,0.484-0.51,0.691 c-0.22,0.208-0.512,0.391-0.865,0.404c0.104-0.664,0.178-1.073,0.424-1.577c0.132-0.236,0.284-0.485,0.516-0.692 C601.614,286.058,601.909,285.878,602.262,285.871z"/></g><g><path style="fill:#FFFFFF;" d="M602.721,291.52c-0.055,0.683-0.359,1.156-0.719,1.576c-0.385,0.397-0.829,0.743-1.506,0.857 c0.065-0.697,0.362-1.163,0.719-1.576C601.597,291.986,602.034,291.648,602.721,291.52z"/></g><g><path style="fill:#FFFFFF;" d="M608.296,291.634c0.578-0.02,0.911,0.139,1.223,0.347c0.294,0.234,0.544,0.504,0.697,1.063 c-0.552,0.188-0.979,0.033-1.328-0.204C608.559,292.576,608.284,292.215,608.296,291.634z"/></g><g><path style="fill:#FFFFFF;" d="M609.565,287.367c0.55-0.159,0.93-0.039,1.271,0.147c0.324,0.214,0.607,0.496,0.719,1.059 c-0.551,0.161-0.932,0.041-1.271-0.147C609.961,288.209,609.678,287.927,609.565,287.367z"/></g><g><path style="fill:#FFFFFF;" d="M611.082,281.398c0.549-0.02,0.843,0.136,1.108,0.343c0.243,0.232,0.438,0.502,0.492,1.05 c-0.532,0.151-0.901-0.012-1.192-0.246C611.22,282.287,611.008,281.945,611.082,281.398z"/></g><g><path style="fill:#FFFFFF;" d="M614.809,271.485c0.442,0.396,0.558,0.76,0.597,1.135c0.006,0.377-0.07,0.751-0.467,1.194 c-0.441-0.333-0.559-0.735-0.597-1.135C614.338,272.278,614.41,271.865,614.809,271.485z"/></g><g><path style="fill:#FFFFFF;" d="M618.836,281.085c0.178,0.512,0.079,0.853-0.085,1.153c-0.193,0.283-0.453,0.524-0.992,0.593 c-0.18-0.513-0.081-0.854,0.085-1.153C618.039,281.397,618.299,281.155,618.836,281.085z"/></g><g><path style="fill:#FFFFFF;" d="M620.859,286.447c-0.043,0.711-0.312,1.184-0.643,1.612c-0.357,0.407-0.772,0.758-1.464,0.932 c0.01-0.674,0.298-1.171,0.643-1.612C619.766,286.959,620.2,286.584,620.859,286.447z"/></g><g><path style="fill:#FFFFFF;" d="M621.259,292.767c-0.018,0.673-0.358,1.146-0.767,1.511c-0.43,0.341-0.956,0.592-1.622,0.49 c0.236-0.627,0.567-0.978,0.938-1.308C620.198,293.156,620.602,292.891,621.259,292.767z"/></g><g><path style="fill:#FFFFFF;" d="M628.313,291.837c0.721-0.016,1.243,0.188,1.755,0.436c0.496,0.277,0.961,0.591,1.358,1.194 c-0.701,0.186-1.309,0.018-1.852-0.25C629.045,292.921,628.56,292.517,628.313,291.837z"/></g><g><path style="fill:#FFFFFF;" d="M629.438,286.857c0.758,0.028,1.317,0.28,1.858,0.579c0.524,0.328,1.015,0.696,1.403,1.349 c-0.754,0.111-1.381-0.115-1.946-0.431C630.206,288.01,629.706,287.569,629.438,286.857z"/></g><g><path style="fill:#FFFFFF;" d="M631.837,280.864c0.712-0.03,1.242,0.211,1.73,0.516c0.469,0.333,0.894,0.731,1.137,1.402 c-0.713,0.032-1.244-0.21-1.73-0.516C632.506,281.932,632.081,281.534,631.837,280.864z"/></g><g><path style="fill:#FFFFFF;" d="M634.287,272.696c0.572-0.055,0.929,0.134,1.234,0.381c0.283,0.272,0.514,0.602,0.528,1.179 c-0.574,0.057-0.93-0.132-1.234-0.381C634.533,273.601,634.302,273.271,634.287,272.696z"/></g><g><path style="fill:#FFFFFF;" d="M639.358,265.034c0.429,0.535,0.531,1.042,0.557,1.555c-0.008,0.513-0.095,1.023-0.509,1.572 c-0.43-0.494-0.533-1.026-0.557-1.555C638.859,266.076,638.946,265.541,639.358,265.034z"/></g><g><path style="fill:#FFFFFF;" d="M643.214,273.417c0.028,0.561-0.117,0.872-0.313,1.162c-0.221,0.271-0.478,0.497-1.026,0.628 c-0.199-0.531-0.055-0.938,0.172-1.267C642.3,273.631,642.65,273.378,643.214,273.417z"/></g><g><path style="fill:#FFFFFF;" d="M644.146,280.07c-0.183,0.701-0.509,1.152-0.871,1.589c-0.386,0.416-0.792,0.795-1.466,1.064 c-0.037-0.728,0.27-1.297,0.666-1.769C642.896,280.504,643.42,280.127,644.146,280.07z"/></g><g><path style="fill:#FFFFFF;" d="M645.489,287.068c-0.339,0.854-0.892,1.461-1.496,2.012c-0.626,0.525-1.303,0.99-2.196,1.208 c0.337-0.855,0.891-1.463,1.496-2.012C643.92,287.753,644.597,287.288,645.489,287.068z"/></g><g><path style="fill:#FFFFFF;" d="M645.069,292.829c-0.165,0.636-0.482,0.982-0.849,1.268c-0.387,0.26-0.816,0.451-1.472,0.403 c0.117-0.605,0.463-0.971,0.849-1.268C644.003,292.961,644.46,292.75,645.069,292.829z"/></g><g><path style="fill:#FFFFFF;" d="M653.911,292.584c0.619-0.095,1.059,0.082,1.456,0.323c0.379,0.269,0.714,0.604,0.869,1.212 c-0.62,0.097-1.06-0.08-1.456-0.322C654.402,293.525,654.066,293.19,653.911,292.584z"/></g><g><path style="fill:#FFFFFF;" d="M655.725,286.898c0.534-0.181,0.931-0.067,1.286,0.113c0.339,0.209,0.642,0.489,0.763,1.042 c-0.563,0.168-0.942,0.063-1.286-0.113C656.16,287.735,655.874,287.464,655.725,286.898z"/></g><g><path style="fill:#FFFFFF;" d="M657.77,280.205c0.506-0.078,0.755,0.015,0.979,0.163c0.205,0.174,0.362,0.388,0.423,0.898 c-0.46,0.237-0.802,0.133-1.066-0.048C657.861,281.011,657.669,280.71,657.77,280.205z"/></g><g><path style="fill:#FFFFFF;" d="M661.235,271.884c0.413,0.451,0.521,0.866,0.572,1.294c0.018,0.431-0.026,0.857-0.368,1.366 c-0.492-0.369-0.645-0.827-0.695-1.284C660.726,272.8,660.807,272.324,661.235,271.884z"/></g><g><path style="fill:#FFFFFF;" d="M665.428,280.466c0.098,0.492,0.044,0.716-0.07,0.928c-0.139,0.195-0.318,0.34-0.806,0.464 c-0.313-0.401-0.251-0.759-0.096-1.032C664.637,280.569,664.933,280.359,665.428,280.466z"/></g><g><path style="fill:#FFFFFF;" d="M667.49,286.585c0.165,0.476,0.071,0.753-0.083,0.984c-0.181,0.21-0.425,0.373-0.929,0.335 c-0.167-0.477-0.073-0.755,0.083-0.984C666.744,286.711,666.988,286.549,667.49,286.585z"/></g><g><path style="fill:#FFFFFF;" d="M669.808,292.36c0.01,0.545-0.192,0.841-0.444,1.08c-0.273,0.213-0.598,0.366-1.136,0.269 c-0.011-0.547,0.191-0.843,0.444-1.08C668.946,292.418,669.271,292.265,669.808,292.36z"/></g><g><path style="fill:#FFFFFF;" d="M674.22,291.348c0.589-0.129,1.034,0.035,1.435,0.262c0.383,0.256,0.728,0.581,0.873,1.168 c-0.624,0.11-1.048-0.041-1.435-0.262C674.724,292.267,674.4,291.954,674.22,291.348z"/></g><g><path style="fill:#FFFFFF;" d="M676.614,285.04c0.619,0.005,0.999,0.186,1.365,0.413c0.348,0.254,0.657,0.54,0.89,1.115 c-0.594,0.191-1.081,0.026-1.488-0.232C676.993,286.052,676.659,285.661,676.614,285.04z"/></g><g><path style="fill:#FFFFFF;" d="M678.743,279.646c0.428-0.22,0.675-0.169,0.879-0.054c0.186,0.143,0.328,0.351,0.287,0.833 c-0.429,0.222-0.676,0.171-0.879,0.054C678.846,280.334,678.704,280.125,678.743,279.646z"/></g><g><path style="fill:#FFFFFF;" d="M682.453,272.416c0.486,0.428,0.649,0.902,0.736,1.387c0.054,0.49,0.03,0.99-0.319,1.537 c-0.488-0.428-0.651-0.901-0.736-1.387C682.082,273.464,682.106,272.963,682.453,272.416z"/></g><g><path style="fill:#FFFFFF;" d="M686.527,279.624c0.043,0.474,0.017,0.636-0.078,0.781c-0.117,0.128-0.268,0.19-0.741,0.258 c-0.327-0.357-0.258-0.693-0.096-0.918C685.794,279.536,686.105,279.391,686.527,279.624z"/></g><g><path style="fill:#FFFFFF;" d="M688.423,284.111c0.053,0.668-0.129,1.14-0.363,1.592c-0.263,0.436-0.573,0.836-1.174,1.136 c-0.168-0.652-0.005-1.184,0.245-1.659C687.41,284.722,687.78,284.306,688.423,284.111z"/></g><g><path style="fill:#FFFFFF;" d="M690.808,291.221c-0.169,0.726-0.561,1.214-0.999,1.641c-0.227,0.197-0.44,0.373-0.668,0.53 c-0.223,0.167-0.447,0.314-0.724,0.573c-0.166-0.35-0.089-0.76,0.064-1.079c0.148-0.332,0.38-0.586,0.604-0.807 C689.554,291.673,690.07,291.329,690.808,291.221z"/></g><g><path style="fill:#FFFFFF;" d="M693.974,291.961c0.577,0.059,0.887,0.251,1.176,0.491c0.267,0.262,0.489,0.552,0.602,1.122 c-0.568,0.144-0.99-0.055-1.319-0.333C694.127,292.939,693.888,292.539,693.974,291.961z"/></g><g><path style="fill:#FFFFFF;" d="M695.82,287.452c0.509-0.135,0.833,0.024,1.081,0.245c0.225,0.244,0.388,0.567,0.255,1.079 c-0.525,0.021-0.784-0.124-1.006-0.321C695.952,288.234,695.805,287.976,695.82,287.452z"/></g><g><path style="fill:#FFFFFF;" d="M702.622,288.192c0.211,0.397,0.177,0.577,0.086,0.707c-0.116,0.108-0.291,0.163-0.712,0.001 c-0.213-0.398-0.179-0.579-0.087-0.707C702.027,288.087,702.202,288.032,702.622,288.192z"/></g><g><path style="fill:#FFFFFF;" d="M704.517,292.889c0.094,0.604-0.143,1.044-0.455,1.391c-0.335,0.325-0.767,0.576-1.376,0.501 c0.099-0.601,0.331-0.933,0.61-1.242C703.596,293.252,703.921,293.009,704.517,292.889z"/></g><g><path style="fill:#FFFFFF;" d="M714.119,291.111c0.128,0.495,0.045,0.739-0.103,0.939c-0.173,0.178-0.402,0.297-0.912,0.245 c-0.172-0.447-0.063-0.722,0.103-0.939C713.397,291.16,713.652,291.011,714.119,291.111z"/></g><g><path style="fill:#FFFFFF;" d="M715.048,294.302c0.05,0.542-0.11,0.834-0.327,1.074c-0.241,0.216-0.534,0.373-1.077,0.316 c-0.075-0.521,0.1-0.827,0.327-1.074C714.222,294.395,714.53,294.224,715.048,294.302z"/></g><g><path style="fill:#FFFFFF;" d="M706.987,292.247c0.56-0.012,0.878,0.196,1.141,0.456c0.238,0.283,0.418,0.618,0.356,1.176 c-0.561,0.014-0.88-0.194-1.141-0.456C707.106,293.139,706.927,292.803,706.987,292.247z"/></g><g><path style="fill:#FFFFFF;" d="M575.693,294.914c0.53-0.232,0.933-0.163,1.306-0.024c0.36,0.17,0.688,0.413,0.888,0.957 c-0.531,0.234-0.934,0.165-1.306,0.024C576.223,295.699,575.894,295.457,575.693,294.914z"/></g><g><path style="fill:#FFFFFF;" d="M577.947,290.532c0.548-0.181,0.922-0.085,1.262,0.079c0.324,0.194,0.607,0.456,0.753,1.016 c-0.526,0.195-0.914,0.092-1.262-0.079C578.369,291.348,578.071,291.078,577.947,290.532z"/></g><g><path style="fill:#FFFFFF;" d="M585.556,291.522c0.034,0.494-0.123,0.724-0.325,0.891c-0.221,0.141-0.489,0.217-0.948,0.027 c-0.035-0.496,0.121-0.726,0.325-0.892C584.83,291.41,585.098,291.334,585.556,291.522z"/></g><g><path style="fill:#FFFFFF;" d="M586.751,294.914c0.02,0.475-0.162,0.674-0.371,0.786c-0.223,0.082-0.493,0.081-0.831-0.256 c0.081-0.469,0.222-0.624,0.401-0.719C586.141,294.659,586.351,294.659,586.751,294.914z"/></g><g><path style="fill:#FFFFFF;" d="M566.181,294.318c0.606-0.192,1.079-0.086,1.522,0.091c0.429,0.207,0.826,0.486,1.09,1.066 c-0.607,0.194-1.08,0.088-1.522-0.091C566.843,295.174,566.446,294.895,566.181,294.318z"/></g><g><path style="fill:#FFFFFF;" d="M568.855,289.631c0.506-0.219,0.868-0.145,1.196-0.003c0.313,0.172,0.591,0.415,0.724,0.952 c-0.508,0.221-0.869,0.148-1.196,0.003C569.267,290.409,568.989,290.166,568.855,289.631z"/></g><g><path style="fill:#FFFFFF;" d="M575.231,289.906c0.161,0.449,0.061,0.701-0.093,0.899c-0.179,0.175-0.42,0.301-0.885,0.185 c-0.138-0.477-0.053-0.713,0.093-0.899C574.518,289.927,574.744,289.819,575.231,289.906z"/></g><g><path style="fill:#FFFFFF;" d="M572.506,283.524c0.351,0.405,0.408,0.713,0.406,1.029c-0.036,0.313-0.132,0.611-0.535,0.967 c-0.442-0.311-0.536-0.683-0.529-1.036C571.888,284.131,572.029,283.775,572.506,283.524z"/></g></g></g><g><path style="fill:#1D1D1B;" d="M277.281,340.045c14.701-8.831,29.665-17.158,44.683-25.383l11.287-6.123l11.34-6.033 c3.79-2.025,7.675-3.974,11.726-5.667c4.037-1.718,8.295-3.076,12.705-3.884c2.206-0.394,4.45-0.641,6.706-0.664 c1.126-0.047,2.249,0.077,3.371,0.11c0.56,0.034,1.122,0.041,1.679,0.098l1.661,0.253c2.227,0.264,4.378,0.864,6.52,1.427 l3.141,1.061c1.043,0.358,2.036,0.833,3.053,1.244c4.013,1.768,7.83,3.878,11.454,6.231c3.644,2.321,7.17,4.785,10.656,7.282 c3.504,2.469,6.948,5.008,10.481,7.404c1.777,1.177,3.541,2.378,5.351,3.493c1.801,1.13,3.592,2.351,5.436,2.771 c1.819,0.458,3.676-0.203,5.483-1.187c1.804-1.022,3.672-2.165,5.505-3.242l11.046-6.553l5.511-3.297 c1.855-1.083,3.602-2.229,5.678-3.281c1.037-0.512,2.154-0.974,3.378-1.277c1.218-0.302,2.57-0.415,3.873-0.258 c2.613,0.325,4.795,1.457,6.723,2.522c7.477,4.274,14.824,8.595,22.212,12.941l11.069,6.508c3.69,2.169,7.28,4.288,10.993,5.758 c3.676,1.463,7.589,2.257,11.677,2.643c4.079,0.403,8.29,0.382,12.576,0.448c17.117,0.28,34.234,0.615,51.349,1.193 c17.115,0.544,34.229,1.266,51.34,2.283l-0.005,0.533c-17.126,0.717-34.25,1.139-51.372,1.384 c-17.122,0.279-34.242,0.315-51.362,0.295c-4.27-0.018-8.632-0.044-13.077-0.477c-2.22-0.219-4.457-0.547-6.685-1.044 c-2.222-0.502-4.446-1.226-6.552-2.117c-4.219-1.782-7.973-4.134-11.61-6.37l-10.929-6.74c-7.28-4.482-14.59-9.006-21.789-13.546 c-1.746-1.083-3.447-1.985-5.104-2.256c-1.608-0.302-3.356,0.094-5.173,0.879c-1.794,0.78-3.708,1.867-5.605,2.84l-5.687,2.983 l-11.352,6.008c-1.908,1.002-3.747,2.002-5.712,3.005c-0.991,0.495-2.051,0.959-3.216,1.22c-1.154,0.271-2.45,0.275-3.61-0.038 c-1.165-0.298-2.199-0.823-3.156-1.38c-0.961-0.561-1.844-1.148-2.754-1.73c-1.823-1.147-3.587-2.371-5.367-3.574l-10.553-7.326 c-3.531-2.403-7.12-4.705-10.796-6.822c-3.69-2.092-7.512-3.904-11.428-5.353c-0.989-0.33-1.958-0.726-2.958-1.002l-3-0.81 c-2.026-0.39-4.042-0.82-6.087-0.924l-1.525-0.136c-0.509-0.025-1.019-0.001-1.528-0.005c-1.017,0.027-2.035-0.04-3.046,0.058 c-2.024,0.111-4.03,0.486-6.025,0.889c-7.995,1.75-15.531,5.534-23.112,9.387l-11.42,5.858l-11.471,5.771 c-15.327,7.634-30.707,15.165-46.35,22.192L277.281,340.045z"/></g><path style="fill:#1D1D1B;" d="M521.671,331.112c2.313-3.214,4.937-6.203,7.824-8.913c1.365,4.607,3.201,9.074,5.47,13.309 c0.604-3.544,1.621-7.017,3.025-10.327c1.816,3.727,3.632,7.454,5.448,11.18c2.342-4.817,4.683-9.634,7.025-14.452 c0.79,4.981,1.999,9.896,3.612,14.674c2.02-4.117,4.039-8.233,6.059-12.35c1.953,4.363,3.662,8.835,5.116,13.388 c2.155-3.18,4.311-6.359,6.466-9.539c1.554,3.4,3.108,6.8,4.662,10.2c2.154-3.197,4.307-6.394,6.461-9.591 c1.292,2.525,2.583,5.051,3.875,7.576c1.582-2.204,3.164-4.407,4.746-6.611c1.224,2.255,2.448,4.509,3.672,6.764 c2.008-2.081,4.016-4.162,6.024-6.243c1.73,2.492,3.459,4.984,5.189,7.476c-26.19,1.51-52.915,2.969-78.245-3.856L521.671,331.112 z"/><g><polygon style="fill:#1D1D1B;" points="353.628,279.108 398.831,238.887 399.4,238.38 400.005,238.885 436.502,269.311 &#10;&#9;&#9;&#9;&#9;434.417,271.738 398.833,240.249 400.007,240.248 &#9;&#9;&#9;"/></g><g><g><path style="fill:#1D1D1B;" d="M599.334,308.49c2.43-0.12,4.86-0.172,7.29-0.26l7.291-0.148c4.86-0.088,9.721-0.08,14.581-0.124 c4.86,0.042,9.721,0.037,14.581,0.122l7.29,0.149c2.43,0.089,4.86,0.14,7.291,0.261c-2.43,0.121-4.86,0.173-7.291,0.261 l-7.29,0.149c-4.86,0.085-9.721,0.081-14.581,0.122c-4.86-0.045-9.721-0.036-14.581-0.124l-7.291-0.148 C604.194,308.662,601.764,308.611,599.334,308.49z"/></g><g><path style="fill:#1D1D1B;" d="M685.802,305.099c3.052-0.419,6.104-0.516,9.155-0.533c3.052,0.015,6.104,0.111,9.156,0.533 c-3.052,0.422-6.104,0.518-9.156,0.533C691.906,305.615,688.854,305.519,685.802,305.099z"/></g><g><path style="fill:#1D1D1B;" d="M645.112,301.708c3.165-0.419,6.33-0.516,9.495-0.533c3.165,0.015,6.33,0.111,9.495,0.533 c-3.165,0.422-6.33,0.518-9.495,0.533C651.441,302.224,648.276,302.128,645.112,301.708z"/></g><g><path style="fill:#1D1D1B;" d="M519.308,305.099c1.469-0.12,2.939-0.172,4.408-0.26l4.408-0.148 c2.939-0.098,5.878-0.111,8.816-0.125c2.939,0.012,5.878,0.026,8.816,0.123l4.408,0.149c1.469,0.089,2.939,0.14,4.408,0.261 c-1.469,0.121-2.939,0.173-4.408,0.262l-4.408,0.149c-2.939,0.097-5.878,0.111-8.816,0.123 c-2.939-0.014-5.878-0.027-8.816-0.125l-4.408-0.148C522.247,305.271,520.778,305.22,519.308,305.099z"/></g><g><path style="fill:#1D1D1B;" d="M553.218,315.611c1.526-0.12,3.052-0.172,4.578-0.26l4.578-0.148 c3.052-0.098,6.104-0.111,9.155-0.125c3.052,0.012,6.104,0.026,9.156,0.123l4.578,0.149c1.526,0.089,3.052,0.141,4.578,0.262 c-1.526,0.121-3.052,0.173-4.578,0.261l-4.578,0.149c-3.052,0.097-6.104,0.111-9.156,0.123 c-3.052-0.013-6.104-0.027-9.155-0.125l-4.578-0.148C556.269,315.783,554.744,315.731,553.218,315.611z"/></g><g><path style="fill:#1D1D1B;" d="M515.578,315.272c4.069-0.419,8.138-0.516,12.207-0.533c4.069,0.015,8.138,0.111,12.207,0.533 c-4.069,0.422-8.138,0.518-12.207,0.533C523.717,315.788,519.648,315.692,515.578,315.272z"/></g><g><path style="fill:#1D1D1B;" d="M607.472,324.767c3.052-0.419,6.104-0.516,9.156-0.533c3.052,0.015,6.104,0.111,9.155,0.533 c-3.052,0.422-6.104,0.518-9.155,0.533C613.576,325.283,610.524,325.186,607.472,324.767z"/></g><g><path style="fill:#1D1D1B;" d="M639.347,318.324c1.498-0.12,2.995-0.172,4.493-0.26l4.493-0.148 c2.995-0.097,5.991-0.111,8.986-0.125c2.995,0.012,5.991,0.026,8.986,0.123l4.493,0.149c1.498,0.089,2.995,0.141,4.493,0.261 c-1.498,0.121-2.995,0.173-4.493,0.261l-4.493,0.149c-2.995,0.097-5.991,0.111-8.986,0.123 c-2.995-0.013-5.991-0.027-8.986-0.125l-4.493-0.148C642.342,318.496,640.845,318.444,639.347,318.324z"/></g><g><path style="fill:#1D1D1B;" d="M684.446,320.02c3.052-0.419,6.104-0.516,9.155-0.533c3.052,0.015,6.104,0.111,9.156,0.533 c-3.052,0.422-6.104,0.518-9.156,0.533C690.55,320.535,687.498,320.439,684.446,320.02z"/></g><g><path style="fill:#1D1D1B;" d="M641.042,330.87c3.504-0.419,7.008-0.516,10.512-0.533c3.504,0.015,7.008,0.111,10.512,0.533 c-3.504,0.422-7.008,0.518-10.512,0.533C648.05,331.386,644.546,331.29,641.042,330.87z"/></g><g><path style="fill:#1D1D1B;" d="M570.85,306.795c1.695-0.421,3.391-0.515,5.086-0.533c1.695,0.016,3.391,0.11,5.086,0.533 c-1.695,0.423-3.391,0.517-5.086,0.533C574.241,307.31,572.546,307.216,570.85,306.795z"/></g><g><path style="fill:#1D1D1B;" d="M490.486,304.421c2.374-0.421,4.747-0.515,7.121-0.533c2.374,0.016,4.747,0.11,7.121,0.533 c-2.374,0.423-4.747,0.517-7.121,0.533C495.233,304.936,492.859,304.842,490.486,304.421z"/></g></g><g><g><path style="fill:#1D1D1B;" d="M223.282,333.922c2.939-0.419,5.878-0.516,8.816-0.533c2.939,0.015,5.878,0.111,8.816,0.533 c-2.939,0.422-5.878,0.518-8.816,0.533C229.159,334.438,226.22,334.342,223.282,333.922z"/></g><g><path style="fill:#1D1D1B;" d="M249.052,331.21c2.939-0.419,5.878-0.516,8.816-0.533c2.939,0.015,5.878,0.111,8.816,0.533 c-2.939,0.422-5.878,0.518-8.816,0.533C254.93,331.725,251.991,331.629,249.052,331.21z"/></g><g><path style="fill:#1D1D1B;" d="M253.122,339.687c2.6-0.419,5.199-0.516,7.799-0.533c2.6,0.015,5.199,0.111,7.799,0.533 c-2.6,0.422-5.199,0.518-7.799,0.533C258.321,340.203,255.721,340.106,253.122,339.687z"/></g><g><path style="fill:#1D1D1B;" d="M269.237,323.99c5.084-0.419,10.169-0.516,15.253-0.533c5.084,0.015,10.169,0.111,15.253,0.533 c-5.084,0.422-10.169,0.518-15.253,0.533C279.406,324.506,274.322,324.409,269.237,323.99z"/></g><g><path style="fill:#1D1D1B;" d="M245.116,322.571c1.537-0.421,3.074-0.515,4.611-0.533c1.537,0.016,3.074,0.11,4.611,0.533 c-1.537,0.423-3.074,0.518-4.611,0.533C248.191,323.086,246.653,322.992,245.116,322.571z"/></g><g><path style="fill:#1D1D1B;" d="M274.913,331.439c1.182-0.421,2.365-0.515,3.547-0.533c1.182,0.016,2.365,0.11,3.547,0.533 c-1.182,0.423-2.365,0.517-3.547,0.533C277.277,331.954,276.095,331.86,274.913,331.439z"/></g></g></g></g></svg>