<svg version="1.1" xmlns="http://www.w3.org/2000/svg" viewBox="0 0 606.2227770247533 626.2583371442486" width="1212.4455540495067" height="1252.5166742884971">
  <!-- svg-source:excalidraw -->
  
  <defs>
    <style>
      @font-face {
        font-family: "Virgil";
        src: url("https://excalidraw.com/Virgil.woff2");
      }
      @font-face {
        font-family: "Cascadia";
        src: url("https://excalidraw.com/Cascadia.woff2");
      }
    </style>
  </defs>
  <rect x="0" y="0" width="606.2227770247533" height="626.2583371442486" fill="#ffffff"></rect><g stroke-linecap="round"><g transform="translate(9.999999999999943 343.34167047758183) rotate(0 274.58333333333326 0)"><path d="M0 0 C116.26 0, 232.51 0, 549.17 0 M0 0 C121.22 0, 242.44 0, 549.17 0" stroke="#000000" stroke-width="4" fill="none"></path></g><g transform="translate(9.999999999999943 343.34167047758183) rotate(0 274.58333333333326 0)"><path d="M28.19 -10.26 C22.22 -8.09, 16.25 -5.92, 0 0 M28.19 -10.26 C21.97 -8, 15.75 -5.73, 0 0" stroke="#000000" stroke-width="4" fill="none"></path></g><g transform="translate(9.999999999999943 343.34167047758183) rotate(0 274.58333333333326 0)"><path d="M28.19 10.26 C22.22 8.09, 16.25 5.92, 0 0 M28.19 10.26 C21.97 8, 15.75 5.73, 0 0" stroke="#000000" stroke-width="4" fill="none"></path></g><g transform="translate(9.999999999999943 343.34167047758183) rotate(0 274.58333333333326 0)"><path d="M520.98 10.26 C526.94 8.09, 532.91 5.92, 549.17 0 M520.98 10.26 C527.2 8, 533.42 5.73, 549.17 0" stroke="#000000" stroke-width="4" fill="none"></path></g><g transform="translate(9.999999999999943 343.34167047758183) rotate(0 274.58333333333326 0)"><path d="M520.98 -10.26 C526.94 -8.09, 532.91 -5.92, 549.17 0 M520.98 -10.26 C527.2 -8, 533.42 -5.73, 549.17 0" stroke="#000000" stroke-width="4" fill="none"></path></g></g><g stroke-linecap="round"><g transform="translate(11.083333333333997 342.92500381091486) rotate(89.99999999999994 273.3333333333333 2.2737367544323206e-13)"><path d="M0 0 C142.65 0, 285.29 0, 546.67 0 M0 0 C187.48 0, 374.96 0, 546.67 0" stroke="#000000" stroke-width="4" fill="none"></path></g><g transform="translate(11.083333333333997 342.92500381091486) rotate(89.99999999999994 273.3333333333333 2.2737367544323206e-13)"><path d="M28.19 -10.26 C20.83 -7.58, 13.48 -4.91, 0 0 M28.19 -10.26 C18.52 -6.74, 8.85 -3.22, 0 0" stroke="#000000" stroke-width="4" fill="none"></path></g><g transform="translate(11.083333333333997 342.92500381091486) rotate(89.99999999999994 273.3333333333333 2.2737367544323206e-13)"><path d="M28.19 10.26 C20.83 7.58, 13.48 4.91, 0 0 M28.19 10.26 C18.52 6.74, 8.85 3.22, 0 0" stroke="#000000" stroke-width="4" fill="none"></path></g><g transform="translate(11.083333333333997 342.92500381091486) rotate(89.99999999999994 273.3333333333333 2.2737367544323206e-13)"><path d="M518.48 10.26 C525.83 7.58, 533.19 4.91, 546.67 0 M518.48 10.26 C528.14 6.74, 537.81 3.22, 546.67 0" stroke="#000000" stroke-width="4" fill="none"></path></g><g transform="translate(11.083333333333997 342.92500381091486) rotate(89.99999999999994 273.3333333333333 2.2737367544323206e-13)"><path d="M518.48 -10.26 C525.83 -7.58, 533.19 -4.91, 546.67 0 M518.48 -10.26 C528.14 -6.74, 537.81 -3.22, 546.67 0" stroke="#000000" stroke-width="4" fill="none"></path></g></g><g transform="translate(56.666666666666515 345.1750038109153) rotate(0 225 10)"><text x="0" y="14" font-family="Virgil, Segoe UI Emoji" font-size="16px" fill="#000000" text-anchor="start" style="white-space: pre;" direction="ltr">-5   -4    -3   -2   -1   0      1    2     3    4    5</text></g><g transform="translate(290.83333333333303 117.50833714424834) rotate(0 14.265151515151501 224.16666666666674)"><text x="0" y="14.378787878787879" font-family="Virgil, Segoe UI Emoji" font-size="16.303030303030308px" fill="#000000" text-anchor="start" style="white-space: pre;" direction="ltr">5</text><text x="0" y="34.75757575757576" font-family="Virgil, Segoe UI Emoji" font-size="16.303030303030308px" fill="#000000" text-anchor="start" style="white-space: pre;" direction="ltr"></text><text x="0" y="55.13636363636364" font-family="Virgil, Segoe UI Emoji" font-size="16.303030303030308px" fill="#000000" text-anchor="start" style="white-space: pre;" direction="ltr">4</text><text x="0" y="75.51515151515152" font-family="Virgil, Segoe UI Emoji" font-size="16.303030303030308px" fill="#000000" text-anchor="start" style="white-space: pre;" direction="ltr"></text><text x="0" y="95.89393939393939" font-family="Virgil, Segoe UI Emoji" font-size="16.303030303030308px" fill="#000000" text-anchor="start" style="white-space: pre;" direction="ltr">3</text><text x="0" y="116.27272727272728" font-family="Virgil, Segoe UI Emoji" font-size="16.303030303030308px" fill="#000000" text-anchor="start" style="white-space: pre;" direction="ltr"></text><text x="0" y="136.65151515151516" font-family="Virgil, Segoe UI Emoji" font-size="16.303030303030308px" fill="#000000" text-anchor="start" style="white-space: pre;" direction="ltr">2</text><text x="0" y="157.03030303030303" font-family="Virgil, Segoe UI Emoji" font-size="16.303030303030308px" fill="#000000" text-anchor="start" style="white-space: pre;" direction="ltr"></text><text x="0" y="177.4090909090909" font-family="Virgil, Segoe UI Emoji" font-size="16.303030303030308px" fill="#000000" text-anchor="start" style="white-space: pre;" direction="ltr">1   </text><text x="0" y="197.78787878787878" font-family="Virgil, Segoe UI Emoji" font-size="16.303030303030308px" fill="#000000" text-anchor="start" style="white-space: pre;" direction="ltr"></text><text x="0" y="218.16666666666666" font-family="Virgil, Segoe UI Emoji" font-size="16.303030303030308px" fill="#000000" text-anchor="start" style="white-space: pre;" direction="ltr">0</text><text x="0" y="238.54545454545456" font-family="Virgil, Segoe UI Emoji" font-size="16.303030303030308px" fill="#000000" text-anchor="start" style="white-space: pre;" direction="ltr"></text><text x="0" y="258.92424242424244" font-family="Virgil, Segoe UI Emoji" font-size="16.303030303030308px" fill="#000000" text-anchor="start" style="white-space: pre;" direction="ltr"></text><text x="0" y="279.3030303030303" font-family="Virgil, Segoe UI Emoji" font-size="16.303030303030308px" fill="#000000" text-anchor="start" style="white-space: pre;" direction="ltr">-1</text><text x="0" y="299.6818181818182" font-family="Virgil, Segoe UI Emoji" font-size="16.303030303030308px" fill="#000000" text-anchor="start" style="white-space: pre;" direction="ltr"></text><text x="0" y="320.06060606060606" font-family="Virgil, Segoe UI Emoji" font-size="16.303030303030308px" fill="#000000" text-anchor="start" style="white-space: pre;" direction="ltr">-2</text><text x="0" y="340.43939393939394" font-family="Virgil, Segoe UI Emoji" font-size="16.303030303030308px" fill="#000000" text-anchor="start" style="white-space: pre;" direction="ltr"></text><text x="0" y="360.8181818181818" font-family="Virgil, Segoe UI Emoji" font-size="16.303030303030308px" fill="#000000" text-anchor="start" style="white-space: pre;" direction="ltr">-3</text><text x="0" y="381.1969696969697" font-family="Virgil, Segoe UI Emoji" font-size="16.303030303030308px" fill="#000000" text-anchor="start" style="white-space: pre;" direction="ltr"></text><text x="0" y="401.57575757575756" font-family="Virgil, Segoe UI Emoji" font-size="16.303030303030308px" fill="#000000" text-anchor="start" style="white-space: pre;" direction="ltr">-4</text><text x="0" y="421.95454545454544" font-family="Virgil, Segoe UI Emoji" font-size="16.303030303030308px" fill="#000000" text-anchor="start" style="white-space: pre;" direction="ltr"></text><text x="0" y="442.3333333333333" font-family="Virgil, Segoe UI Emoji" font-size="16.303030303030308px" fill="#000000" text-anchor="start" style="white-space: pre;" direction="ltr">-5</text></g><g transform="translate(278.46380774636503 10) rotate(0 7 17.5)"><text x="0" y="25" font-family="Virgil, Segoe UI Emoji" font-size="28px" fill="#000" text-anchor="start" style="white-space: pre;" direction="ltr">y</text></g><g transform="translate(579.2227770247533 323.6474110089375) rotate(0 8.5 17.5)"><text x="0" y="25" font-family="Virgil, Segoe UI Emoji" font-size="28px" fill="#000" text-anchor="start" style="white-space: pre;" direction="ltr">x</text></g><g stroke-linecap="round" transform="translate(348.80999740414427 258.0857015281217) rotate(0 9.631657674291205 9.631657674291318)"><path d="M5.97 0.44 C7.65 -0.24, 10.13 -0.29, 12.09 0.47 C14.06 1.23, 16.61 3.21, 17.76 5.01 C18.91 6.81, 19.4 9.4, 19.01 11.26 C18.61 13.13, 17.1 15.01, 15.4 16.2 C13.7 17.39, 10.84 18.15, 8.8 18.42 C6.77 18.69, 4.69 19.14, 3.22 17.82 C1.75 16.5, 0.35 12.68, -0.02 10.5 C-0.39 8.32, -0.19 6.49, 0.98 4.74 C2.16 2.98, 6.11 0.67, 7.05 -0.04 C7.99 -0.76, 6.57 0.36, 6.62 0.45 M15.31 1.85 C17.46 2.83, 18.75 5.03, 19.26 6.84 C19.76 8.65, 19.05 10.88, 18.32 12.72 C17.59 14.56, 16.59 16.57, 14.88 17.88 C13.17 19.18, 10.11 21.05, 8.06 20.57 C6.01 20.09, 4.09 16.68, 2.56 14.99 C1.03 13.3, -0.98 12.18, -1.12 10.42 C-1.26 8.67, 0.2 6.11, 1.72 4.46 C3.24 2.81, 5.97 1.05, 8.01 0.54 C10.06 0.03, 13.26 1.23, 14 1.38 C14.74 1.54, 12.69 1.62, 12.45 1.47" stroke="none" stroke-width="0" fill="#fa5252"></path><path d="M10.41 -0.62 C12.37 -0.51, 15.75 1.77, 17.19 3.38 C18.64 4.98, 19.15 6.9, 19.07 8.99 C19 11.08, 17.76 14.39, 16.72 15.92 C15.68 17.46, 14.56 17.85, 12.82 18.21 C11.08 18.56, 8.15 18.89, 6.28 18.04 C4.42 17.18, 2.67 14.95, 1.65 13.07 C0.64 11.18, -0.1 8.63, 0.21 6.74 C0.51 4.84, 1.78 2.67, 3.5 1.7 C5.21 0.73, 8.98 1.17, 10.52 0.93 C12.06 0.68, 12.81 0.22, 12.75 0.22 M9.48 -0.96 C11.21 -0.93, 12.39 1.24, 14.14 2.48 C15.9 3.73, 19.21 4.46, 19.98 6.51 C20.75 8.56, 19.81 12.86, 18.75 14.77 C17.69 16.69, 15.46 17.08, 13.61 18 C11.76 18.93, 9.82 20.97, 7.65 20.32 C5.47 19.67, 1.86 16.15, 0.56 14.11 C-0.74 12.06, -0.44 9.88, -0.15 8.04 C0.15 6.21, 0.75 4.27, 2.33 3.1 C3.91 1.93, 8.12 1.62, 9.33 1.03 C10.53 0.43, 9.64 -0.7, 9.55 -0.49" stroke="#000" stroke-width="1" fill="none"></path></g><g stroke-linecap="round" transform="translate(468.2425525653549 107.18973129755841) rotate(0 9.631657674291205 9.631657674291318)"><path d="M7.22 0.26 C8.83 -0.24, 11.11 0.39, 13.04 1.18 C14.97 1.97, 17.91 3.15, 18.81 5 C19.72 6.85, 19.18 10.27, 18.46 12.3 C17.74 14.33, 16.15 16.01, 14.51 17.17 C12.88 18.32, 10.52 19.53, 8.63 19.22 C6.74 18.92, 4.57 16.79, 3.18 15.33 C1.78 13.88, 0.31 12.43, 0.25 10.51 C0.2 8.58, 1.56 5.66, 2.85 3.8 C4.14 1.94, 6.93 0.02, 7.99 -0.65 C9.05 -1.32, 9.02 -0.53, 9.22 -0.23 M14.39 0 C16.5 0.59, 17.76 3.8, 18.53 5.86 C19.3 7.91, 19.7 10.25, 19.01 12.32 C18.33 14.38, 15.77 17.28, 14.4 18.25 C13.03 19.22, 12.53 18.52, 10.79 18.14 C9.06 17.76, 5.8 17.1, 3.98 15.97 C2.16 14.84, 0.2 13.07, -0.12 11.35 C-0.45 9.62, 1.05 7.3, 2.03 5.63 C3.02 3.95, 3.73 2.03, 5.81 1.29 C7.88 0.56, 13.41 1.23, 14.47 1.22 C15.54 1.2, 12.59 1.14, 12.19 1.22" stroke="none" stroke-width="0" fill="#fa5252"></path><path d="M4.77 1.55 C6.49 0.61, 9.17 -0.41, 11.24 0.08 C13.32 0.58, 15.94 2.79, 17.22 4.5 C18.5 6.21, 19.01 8.34, 18.9 10.33 C18.78 12.31, 17.79 14.99, 16.55 16.42 C15.3 17.85, 13.57 18.79, 11.42 18.88 C9.26 18.97, 5.3 18.06, 3.61 16.98 C1.91 15.89, 1.6 14.29, 1.24 12.34 C0.89 10.39, 0.52 7.38, 1.48 5.27 C2.44 3.16, 6.03 0.45, 7.01 -0.31 C7.99 -1.08, 7.58 0.28, 7.34 0.68 M9.55 1.5 C11.45 1.35, 15.05 0.47, 16.76 1.33 C18.47 2.2, 19.52 4.78, 19.8 6.68 C20.09 8.58, 19.35 10.83, 18.47 12.72 C17.59 14.61, 16.56 17.2, 14.53 18.02 C12.5 18.84, 8.65 18.35, 6.31 17.64 C3.97 16.93, 1.63 15.47, 0.5 13.73 C-0.63 12, -1.11 8.92, -0.48 7.24 C0.14 5.57, 2.74 4.83, 4.25 3.67 C5.76 2.51, 7.68 1.13, 8.6 0.31 C9.52 -0.51, 9.86 -1.49, 9.75 -1.25" stroke="#000" stroke-width="1" fill="none"></path></g><g stroke-linecap="round"><g transform="translate(369.4364078927202 253.24765140413274) rotate(0 48.472600352675386 -61.93484674231672)"><path d="M0.61 0.38 C17.05 -20.14, 81.46 -103.71, 97.48 -124.25 M-0.53 -0.47 C15.95 -20.72, 81.02 -102.23, 97.14 -122.92" stroke="#000" stroke-width="1" fill="none"></path></g><g transform="translate(369.4364078927202 253.24765140413274) rotate(0 48.472600352675386 -61.93484674231672)"><path d="M88.35 -92.5 C89.23 -99.58, 93.5 -104.82, 98.25 -122.38 M88.21 -93.8 C89.86 -101.42, 90.5 -106.44, 97.14 -123.19" stroke="#000" stroke-width="1" fill="none"></path></g><g transform="translate(369.4364078927202 253.24765140413274) rotate(0 48.472600352675386 -61.93484674231672)"><path d="M72.25 -105.23 C76.29 -109.79, 83.84 -112.44, 98.25 -122.38 M72.11 -106.52 C77.18 -111.63, 81.16 -114.01, 97.14 -123.19" stroke="#000" stroke-width="1" fill="none"></path></g></g><g transform="translate(323.12557693936793 296.62944765835437) rotate(0 29.5 10)"><text x="0" y="14" font-family="Virgil, Segoe UI Emoji" font-size="16px" fill="#000" text-anchor="start" style="white-space: pre;" direction="ltr">Point A</text></g><g transform="translate(457.99507233878387 71.8433880857624) rotate(0 30 10)"><text x="0" y="14" font-family="Virgil, Segoe UI Emoji" font-size="16px" fill="#000" text-anchor="start" style="white-space: pre;" direction="ltr">Point B</text></g></svg>