<svg version="1.1" xmlns="http://www.w3.org/2000/svg" viewBox="0 0 657.5 782.3068672524894" width="657.5" height="782.3068672524894">
  <!-- svg-source:excalidraw -->
  
  <defs>
    <style>
      @font-face {
        font-family: "Virgil";
        src: url("https://excalidraw.com/Virgil.woff2");
      }
      @font-face {
        font-family: "Cascadia";
        src: url("https://excalidraw.com/Cascadia.woff2");
      }
    </style>
  </defs>
  <g stroke-linecap="round"><g transform="translate(221.29395793384538 317.82587797762403) rotate(0 81.3434939882618 125.64893700710013)"><path d="M1.21 3.24 C0.07 4.33, -3.89 13.77, -5.02 10.82 C-6.14 7.86, -10.5 -9.76, -5.55 -14.48 C-0.59 -19.21, 16.84 -19.19, 24.71 -17.52 C32.59 -15.86, 39.86 -13.36, 41.68 -4.47 C43.5 4.42, 42.89 24.58, 35.62 35.83 C28.35 47.08, 13.55 61.31, -1.95 63.02 C-17.45 64.73, -42.25 56.54, -57.39 46.11 C-72.54 35.67, -89.02 20.85, -92.81 0.43 C-96.59 -19.98, -91.43 -54.9, -80.12 -76.39 C-68.81 -97.88, -47.58 -115.84, -24.95 -128.51 C-2.33 -141.19, 20.63 -157.62, 55.64 -152.45 C90.66 -147.29, 154.84 -118.51, 185.14 -97.52 C215.44 -76.53, 225.38 -53.43, 237.42 -26.53 C249.46 0.37, 259.14 25.22, 257.36 63.87 C255.57 102.53, 248.95 159.45, 226.73 205.4 C204.5 251.34, 175.75 306.28, 123.99 339.54 C72.23 372.79, -49.14 393.76, -83.84 404.95 M2.88 1.98 C1.7 2.7, -3.97 11.73, -5.46 9.23 C-6.96 6.74, -11.24 -8.67, -6.09 -13.01 C-0.93 -17.35, 17.2 -18.19, 25.49 -16.79 C33.77 -15.38, 41.74 -13.73, 43.63 -4.58 C45.52 4.58, 44.85 26.59, 36.83 38.15 C28.82 49.71, 11.34 63.57, -4.47 64.79 C-20.27 66.01, -43.02 56.36, -58 45.48 C-72.99 34.6, -90.87 19.39, -94.38 -0.49 C-97.88 -20.37, -90.71 -52.11, -79.04 -73.81 C-67.38 -95.51, -47.13 -117.57, -24.39 -130.7 C-1.64 -143.83, 22.43 -158, 57.45 -152.59 C92.47 -147.18, 155.79 -119.18, 185.73 -98.24 C215.67 -77.31, 225.1 -53.88, 237.11 -26.97 C249.12 -0.06, 259.42 24.37, 257.79 63.22 C256.17 102.07, 249.37 160.48, 227.38 206.14 C205.38 251.81, 177.92 304.1, 125.83 337.2 C73.74 370.3, -50.49 393.09, -85.16 404.76" stroke="#000000" stroke-width="2" fill="none"></path></g></g><g stroke-linecap="round" transform="translate(129.34166233406359 163.79779576848637) rotate(0 173.0272728438681 281.0413396191825)"><path d="M1.12 0.47 C75.16 -0.72, 148.9 -2.32, 345.02 -0.42 M0.44 -0.3 C87.32 2.44, 174.75 1.3, 346.31 0.51 M346.18 0.5 C346.76 129.64, 346.96 258.52, 345.41 561.36 M345.91 0.21 C345.97 220.18, 346.15 440.08, 346.4 562.42 M345.87 562.16 C213.76 564.58, 81.97 564.48, 1.15 562.33 M345.74 561.87 C263.67 562.12, 180.53 561.82, -0.56 562.23 M-0.6 562.72 C-1.87 364.06, -2.36 166.24, 0.39 0.18 M0.18 562.14 C-2.15 445.68, -2.25 329.43, 0.38 0.35" stroke="#000000" stroke-width="2" fill="none"></path></g><g stroke-linecap="round"><g transform="translate(130.34629079630395 382.883393172094) rotate(0 172.61152217031304 0.45701062783336965)"><path d="M0.43 0.3 C57.94 0.18, 288.67 0.37, 346.03 0.33 M-0.81 -0.59 C56.55 -0.04, 288.21 1.26, 345.6 1.5" stroke="#000000" stroke-width="2" fill="none"></path></g></g><g stroke-linecap="round"><g transform="translate(473.309106573397 163.78125320013896) rotate(0 -169.2604599874726 279.7159315255053)"><path d="M1 -0.69 C-55.46 92.44, -281.79 465.73, -338.33 559.09 M0.06 1.56 C-56.63 94.78, -282.97 466.97, -339.52 560.13" stroke="#000000" stroke-width="2" fill="none"></path></g></g><g stroke-linecap="round" transform="translate(128.3178323172342 165.84545580214171) rotate(0 69.1085261358644 110.06172680896947)"><path d="M-1.58 -0.64 C52 2.12, 104.2 1.86, 137.32 0.32 M0.39 0.78 C50.92 1.84, 103.81 1.54, 138.84 -0.4 M136.82 -1.56 C139.52 69.76, 136.39 139.05, 139.12 220.23 M138.97 0.73 C139.88 73.33, 140 145.73, 138.27 219.78 M139.96 220.5 C91.92 219.42, 47.84 219.42, -0.65 221.71 M137.36 220.34 C91.65 220.94, 44.19 219.32, 0.79 220.24 M0.85 220.5 C-0.65 162.22, 0.78 101.89, 0.27 -0.32 M0.83 220.87 C0.09 168.98, 1.16 117.35, -0.71 -0.13" stroke="#000000" stroke-width="2" fill="none"></path></g><g stroke-linecap="round" transform="translate(129.34166233406359 298.94335798973293) rotate(0 68.08469611903683 43.000860706760136)"><path d="M-0.96 1.59 C33.87 1.76, 70.28 0.76, 137.64 0.99 M-0.7 0.46 C27.81 -0.9, 55.1 -1.47, 136.34 -0.15 M138 -0.1 C133.7 19.84, 136.52 41.23, 136.79 87.02 M136.98 0.47 C137.86 24.99, 136.98 49.86, 136.43 85.6 M134.96 85.04 C92.55 85.29, 48.69 87.85, 0.81 86.86 M136.69 86.87 C95.97 85.54, 56.3 86.41, -0.3 85.5 M-1.87 87.85 C-0.63 64.06, -0.11 39.94, -1.34 -0.87 M-0.85 86.12 C-0.44 68.11, -1.64 50.7, -0.47 0.07" stroke="#000000" stroke-width="2" fill="none"></path></g><g stroke-linecap="round" transform="translate(210.22423366344447 296.8956979560776) rotate(0 28.15532546275972 43.51277571517397)"><path d="M-1.72 1.33 C14.2 -0.12, 31.68 0.54, 54.31 0.79 M0.57 0.16 C21.92 -0.66, 42.76 -0.41, 55.7 -0.81 M54.54 -0.72 C58.15 18.37, 57.73 37.51, 56.15 88.76 M57.26 -0.14 C57.07 33.09, 57.28 66.56, 56.5 87.9 M56.11 86.06 C37.69 88.34, 21.19 87.61, -0.08 85.32 M56.44 86.27 C38.98 87.63, 19.77 87.01, -0.34 87.51 M-0.21 87.93 C1.12 58.63, -0.53 30.11, -1.91 1.92 M0.38 86.72 C-0.08 53.23, 0.27 19.79, 0.06 0.82" stroke="#000000" stroke-width="2" fill="none"></path></g><g stroke-linecap="round" transform="translate(211.24806368027203 295.87186793925) rotate(0 28.15532546275972 16.381280269241984)"><path d="M-0.9 0.32 C22.83 0.62, 40.72 0.41, 57.87 -1.39 M0.62 -0.4 C19.64 -0.24, 38.32 -0.9, 55.41 0.91 M57.35 0.12 C56.65 10.68, 55.86 21.08, 58 34.38 M56.37 -0.39 C56.88 10.97, 56.81 23.61, 56.5 32.16 M55.66 34.35 C42.93 33.34, 27.85 30.78, 0.44 33.8 M57.1 32.87 C34.22 31.83, 12.37 32.83, 0.22 31.83 M0.31 32.4 C-1.31 19.04, -1.88 8.97, 1.73 -1.7 M-0.82 32.62 C-0.59 22.62, -0.06 13.14, -0.75 -0.62" stroke="#000000" stroke-width="2" fill="none"></path></g><g stroke-linecap="round" transform="translate(209.20040364661327 298.14209971569403) rotate(0 12.28596020193163 14.734249372606143)"><path d="M1.47 0.99 C7 0.75, 19.57 -1.43, 25.49 1.14 M0.17 -0.15 C7.16 -0.71, 14.63 1.01, 24.52 -0.89 M25.2 1.01 C24.57 9.52, 26.42 17.18, 25.51 31.36 M24.83 -0.4 C24.78 9.31, 24.78 16.27, 24.09 29.37 M25.38 30.32 C18.31 27.96, 12.64 30.7, 1.74 29.73 M24.28 28.96 C18.71 29.98, 13.76 28.56, 0.92 29.37 M-1.34 28.6 C-1.96 21.22, 1.69 7.43, 0.24 0.77 M-0.47 29.54 C0.3 22.36, -0.51 12.98, 0.58 -0.32" stroke="#000000" stroke-width="2" fill="none"></path></g><g stroke-linecap="round" transform="translate(10 96.28215688486398) rotate(0 318.75 318.75)"><path d="M129.34 64.48 C144.24 46.84, 168.99 35.74, 189.84 26.27 C210.7 16.79, 231.72 11.73, 254.49 7.65 C277.27 3.57, 303.02 1.33, 326.47 1.77 C349.92 2.22, 372.92 4.96, 395.2 10.32 C417.47 15.69, 439.56 23.9, 460.11 33.94 C480.65 43.98, 500.3 55.9, 518.46 70.56 C536.63 85.22, 554.82 103.68, 569.12 121.9 C583.42 140.12, 594.26 159.35, 604.28 179.89 C614.31 200.43, 623.62 222.2, 629.27 245.14 C634.93 268.09, 638.13 293.95, 638.2 317.54 C638.28 341.13, 634.98 363.87, 629.7 386.7 C624.41 409.53, 616.27 433.35, 606.5 454.53 C596.74 475.71, 585.31 495.78, 571.11 513.79 C556.92 531.8, 538.88 547.73, 521.34 562.59 C503.79 577.44, 486.12 592.16, 465.84 602.93 C445.56 613.69, 422.69 621.57, 399.66 627.18 C376.63 632.79, 350.94 635.84, 327.68 636.57 C304.42 637.3, 282.73 635.95, 260.1 631.59 C237.48 627.22, 213.55 619.79, 191.94 610.4 C170.32 601, 149.32 588.51, 130.42 575.2 C111.51 561.9, 93.85 547.49, 78.51 530.57 C63.17 513.66, 49.64 494.03, 38.36 473.73 C27.08 453.44, 17.39 431.59, 10.83 408.83 C4.27 386.07, 0.18 360.73, -1 337.16 C-2.19 313.59, -0.32 289.96, 3.74 267.41 C7.79 244.87, 14.44 223.34, 23.32 201.88 C32.2 180.41, 44.11 157.98, 57.02 138.64 C69.94 119.29, 84.8 101.03, 100.83 85.8 C116.87 70.57, 139.52 55.1, 153.24 47.24 C166.96 39.38, 180.25 34.37, 183.17 38.65 M238.09 9.95 C258.65 0.42, 286.65 3.95, 310.04 2.92 C333.42 1.9, 355.52 -0.05, 378.41 3.81 C401.29 7.68, 425.64 16.57, 447.34 26.11 C469.05 35.65, 490.29 47.56, 508.64 61.05 C527 74.53, 541.9 89.01, 557.48 107.04 C573.05 125.07, 590.76 147.9, 602.11 169.25 C613.45 190.59, 619.69 212.66, 625.56 235.1 C631.42 257.53, 635.74 280.67, 637.27 303.87 C638.81 327.07, 638.78 351.92, 634.76 374.3 C630.73 396.68, 622.14 416.55, 613.14 438.14 C604.13 459.72, 594.16 484.5, 580.74 503.79 C567.31 523.09, 549.73 539.05, 532.59 553.91 C515.45 568.78, 497.74 581.48, 477.9 592.97 C458.07 604.45, 435.63 615.6, 413.55 622.8 C391.48 630, 368.72 634.27, 345.47 636.18 C322.22 638.1, 297.71 637.96, 274.08 634.31 C250.45 630.65, 225.05 622.23, 203.68 614.25 C182.31 606.26, 165.33 599.13, 145.86 586.4 C126.4 573.68, 103.69 554.64, 86.91 537.89 C70.13 521.14, 57.23 505.05, 45.18 485.91 C33.13 466.77, 21.46 445.27, 14.61 423.07 C7.76 400.87, 5.68 376.19, 4.08 352.7 C2.49 329.21, 2.56 304.91, 5.02 282.13 C7.48 259.35, 11.59 238.1, 18.84 215.99 C26.1 193.88, 36.63 169.2, 48.54 149.45 C60.46 129.71, 74.55 113.71, 90.32 97.53 C106.09 81.34, 123.79 65.52, 143.16 52.34 C162.53 39.16, 190.03 26.01, 206.55 18.46 C223.07 10.92, 236.52 7.55, 242.26 7.07 C248 6.59, 240.25 9.7, 240.97 15.57" stroke="#000000" stroke-width="4" fill="none"></path></g><g stroke-linecap="round" transform="translate(45 162.53215688486398) rotate(0 281.875 285.625)"><path d="M-1.03 -0.32 C166.15 2.45, 333.1 2.45, 562.47 -0.58 M0.2 0.46 C204.35 -3.6, 408.63 -4.13, 563.83 0.27 M562.29 0.57 C562.47 119.69, 561.95 239.13, 564.98 570.96 M564.36 0.24 C560.7 193.71, 559.69 387.22, 564.07 571.12 M562.69 570.54 C403.39 568.74, 242.47 568.09, 1.57 570 M563.9 572 C410.19 571, 255.44 571.11, 0.3 571.43 M-0.84 570.86 C-2.52 346.15, -2.55 123.84, -0.28 1.5 M-0.27 571.39 C3.04 439.03, 2.6 308.66, 0.39 -0.04" stroke="#000000" stroke-width="4" fill="none"></path></g><g stroke-linecap="round"><g transform="translate(296.5958336192416 258.3692642863034) rotate(0 -124.77856062084902 -18.092854543962005)"><path d="M-0.77 -0.24 C-6.37 -0.77, -23.55 -4.43, -34.36 -3.52 C-45.17 -2.6, -54.11 4.2, -65.62 5.24 C-77.14 6.27, -95.67 1.55, -103.46 2.69 C-111.25 3.83, -107.7 11.94, -112.37 12.07 C-117.04 12.19, -118.44 3.92, -131.48 3.42 C-144.51 2.93, -176.91 10.29, -190.56 9.08 C-204.21 7.87, -204.12 -0.98, -213.37 -3.82 C-222.62 -6.67, -243.97 -8.57, -246.05 -8 C-248.12 -7.44, -224.99 -2.51, -225.84 -0.45 C-226.69 1.61, -249.75 2.54, -251.14 4.35 C-252.54 6.16, -234.92 8.91, -234.22 10.43 C-233.53 11.94, -247.18 12.5, -246.98 13.44 C-246.77 14.38, -233.37 14.28, -232.99 16.07 C-232.61 17.85, -247.05 23.45, -244.7 24.16 C-242.35 24.88, -226.46 18.91, -218.9 20.35 C-211.35 21.79, -204.34 32.34, -199.36 32.8 C-194.38 33.25, -200.56 22.02, -189.01 23.06 C-177.47 24.1, -144.1 37.71, -130.07 39.05 C-116.04 40.39, -114.81 31.5, -104.83 31.11 C-94.85 30.72, -80.91 35.63, -70.19 36.71 C-59.48 37.8, -46.9 34.35, -40.55 37.62 C-34.19 40.89, -34.98 55.19, -32.04 56.34 C-29.11 57.5, -22.24 50.55, -22.95 44.54 C-23.67 38.53, -30.86 25.79, -36.32 20.29 C-41.78 14.8, -43.26 15.81, -55.7 11.56 C-68.14 7.3, -98.34 -1.99, -110.95 -5.23 C-123.56 -8.48, -125.57 -5.64, -131.37 -7.9 C-137.17 -10.17, -139.25 -14.4, -145.75 -18.82 C-152.24 -23.24, -162.2 -28.59, -170.33 -34.44 C-178.47 -40.29, -188.92 -51.83, -194.55 -53.93 C-200.18 -56.03, -197.97 -44.42, -204.1 -47.02 C-210.24 -49.63, -229.11 -66.09, -231.34 -69.55 C-233.57 -73.02, -216.39 -65.89, -217.51 -67.8 C-218.62 -69.7, -238.25 -80.43, -238.03 -80.98 C-237.81 -81.54, -217.06 -70.12, -216.18 -71.12 C-215.29 -72.12, -233.03 -85.61, -232.71 -87 C-232.4 -88.39, -216.02 -78.56, -214.28 -79.46 C-212.54 -80.35, -225.53 -91.23, -222.28 -92.35 C-219.03 -93.47, -201.7 -91.45, -194.79 -86.15 C-187.89 -80.85, -190.07 -66.27, -180.87 -60.56 C-171.66 -54.86, -152.52 -55.59, -139.58 -51.92 C-126.63 -48.24, -109.17 -42.46, -103.19 -38.49 C-97.2 -34.51, -107.86 -29.71, -103.67 -28.05 C-99.48 -26.39, -86.95 -30.81, -78.04 -28.53 C-69.13 -26.25, -56.81 -16.16, -50.22 -14.36 C-43.62 -12.56, -47.08 -18.98, -38.48 -17.74 C-29.88 -16.5, -5.39 -8.57, 1.39 -6.92 M1.03 -1.41 C-4.66 -2.24, -24.12 -5.98, -35.3 -5.19 C-46.49 -4.4, -54.66 1.89, -66.06 3.35 C-77.46 4.8, -95.82 1.97, -103.72 3.56 C-111.62 5.15, -108.53 13.05, -113.45 12.88 C-118.36 12.71, -120.5 3.43, -133.19 2.54 C-145.87 1.66, -176.06 8.76, -189.56 7.58 C-203.06 6.4, -205.08 -1.71, -214.2 -4.53 C-223.31 -7.35, -242.5 -10.44, -244.28 -9.32 C-246.05 -8.2, -223.72 -0.25, -224.86 2.19 C-225.99 4.63, -249.81 3.98, -251.1 5.32 C-252.38 6.66, -233.32 9.04, -232.55 10.23 C-231.78 11.41, -246.3 11.58, -246.48 12.45 C-246.65 13.32, -234.05 13.61, -233.62 15.45 C-233.19 17.29, -246.56 22.54, -243.89 23.49 C-241.22 24.44, -225.39 19.98, -217.62 21.13 C-209.85 22.28, -201.86 29.94, -197.27 30.37 C-192.68 30.8, -201.07 22.32, -190.11 23.72 C-179.15 25.13, -145.75 37.83, -131.5 38.8 C-117.24 39.78, -114.6 30.14, -104.58 29.58 C-94.56 29.02, -82.05 33.76, -71.38 35.44 C-60.71 37.12, -47.03 36.37, -40.55 39.67 C-34.06 42.96, -35.14 54.58, -32.48 55.2 C-29.82 55.82, -23.69 49.26, -24.56 43.41 C-25.43 37.56, -32.2 25.5, -37.71 20.08 C-43.21 14.67, -45.59 15.23, -57.59 10.92 C-69.58 6.6, -97.58 -2.41, -109.66 -5.8 C-121.73 -9.19, -124.13 -6.93, -130.03 -9.4 C-135.93 -11.88, -138.03 -16.78, -145.05 -20.62 C-152.08 -24.47, -163.9 -26.67, -172.17 -32.49 C-180.44 -38.31, -189.37 -52.92, -194.69 -55.54 C-200 -58.16, -197.64 -45.87, -204.07 -48.2 C-210.51 -50.53, -231.27 -66.45, -233.28 -69.54 C-235.28 -72.64, -215.49 -65.28, -216.12 -66.78 C-216.76 -68.28, -237.03 -78.04, -237.07 -78.52 C-237.11 -79, -217.4 -68.12, -216.36 -69.65 C-215.32 -71.18, -231.22 -86.48, -230.83 -87.69 C-230.43 -88.91, -215.3 -76.21, -214 -76.93 C-212.69 -77.64, -225.98 -90.38, -223 -91.96 C-220.02 -93.55, -203.13 -91.66, -196.12 -86.43 C-189.1 -81.19, -190.04 -66.39, -180.91 -60.55 C-171.78 -54.72, -154.13 -55.18, -141.35 -51.43 C-128.57 -47.67, -110.59 -41.61, -104.25 -38.04 C-97.9 -34.48, -107.54 -31.68, -103.26 -30.05 C-98.97 -28.42, -87.71 -30.86, -78.55 -28.26 C-69.38 -25.67, -54.8 -16.24, -48.27 -14.47 C-41.73 -12.7, -47.64 -18.62, -39.33 -17.64 C-31.02 -16.65, -5.36 -10.49, 1.59 -8.56" stroke="#000000" stroke-width="4" fill="none"></path></g></g><g stroke-linecap="round"><g transform="translate(266.5958336192416 315.2442642863034) rotate(0 66.58759421780678 207.47465009717055)"><path d="M-0.24 0.01 C1.42 5.45, 6.3 24.75, 9.61 31.88 C12.92 39, 20.14 36.52, 19.61 42.79 C19.08 49.06, 6.97 62.61, 6.44 69.5 C5.91 76.4, 17.05 78.85, 16.44 84.15 C15.83 89.45, 5.17 90.59, 2.8 101.31 C0.43 112.04, 2.68 128.07, 2.2 148.51 C1.73 168.95, -0.04 205.51, -0.07 223.95 C-0.11 242.4, 3 245.84, 2 259.16 C1 272.48, -6.78 290.46, -6.08 303.86 C-5.37 317.25, 2.85 326.44, 6.23 339.53 C9.6 352.62, 13.91 372.71, 14.18 382.4 C14.44 392.08, 7.7 392.46, 7.81 397.63 C7.92 402.81, 9.17 410.66, 14.82 413.42 C20.46 416.19, 34.9 414.58, 41.66 414.22 C48.42 413.86, 56 415.97, 55.35 411.27 C54.71 406.56, 40.36 392.25, 37.8 385.99 C35.23 379.72, 40.98 378.08, 39.94 373.68 C38.89 369.27, 31.46 368.11, 31.55 359.55 C31.64 350.99, 40.46 334.72, 40.48 322.31 C40.51 309.9, 32.08 295.49, 31.71 285.08 C31.34 274.67, 36.64 265.65, 38.25 259.83 C39.85 254.01, 39.98 255.26, 41.34 250.17 C42.71 245.08, 45.86 236.33, 46.41 229.31 C46.97 222.29, 43.08 217.78, 44.67 208.05 C46.26 198.32, 53.83 184.01, 55.93 170.93 C58.03 157.84, 58.32 122.51, 57.27 129.53 C56.21 136.54, 49.99 191.52, 49.6 213 C49.21 234.48, 54.98 244.26, 54.93 258.42 C54.88 272.58, 50.89 285.56, 49.31 297.95 C47.73 310.34, 44 324.05, 45.44 332.77 C46.89 341.49, 55.28 341.03, 57.98 350.26 C60.67 359.48, 62.77 378.87, 61.6 388.12 C60.43 397.36, 49.3 401.95, 50.95 405.72 C52.61 409.48, 59.88 408.87, 71.52 410.7 C83.15 412.52, 109.47 417.13, 120.76 416.66 C132.05 416.2, 138.9 410.39, 139.25 407.92 C139.6 405.45, 132.07 405.52, 122.86 401.84 C113.65 398.16, 90.57 393.37, 83.97 385.83 C77.36 378.3, 82.73 369.93, 83.23 356.63 C83.72 343.34, 86.86 318.42, 86.94 306.05 C87.02 293.68, 82.22 291.24, 83.71 282.44 C85.2 273.63, 94.41 261, 95.89 253.21 C97.37 245.42, 90.5 249.51, 92.57 235.71 C94.65 221.91, 105.96 189.96, 108.34 170.41 C110.73 150.86, 106.86 132.6, 106.89 118.39 C106.92 104.18, 107.79 93.15, 108.51 85.14 C109.23 77.13, 111.95 73.94, 111.2 70.32 C110.46 66.71, 105.62 67.25, 104.03 63.46 C102.44 59.66, 101.11 52.57, 101.66 47.55 C102.22 42.52, 105.35 41.56, 107.37 33.3 C109.38 25.03, 112.86 3.53, 113.76 -2.06 M-1.83 -1.03 C-0.22 4.13, 5.59 22.64, 9.11 30.08 C12.63 37.52, 19.74 37.39, 19.3 43.6 C18.86 49.81, 7.11 61.04, 6.46 67.34 C5.81 73.65, 16.36 75.87, 15.4 81.42 C14.44 86.97, 2.83 89.64, 0.71 100.63 C-1.41 111.62, 2.44 126.9, 2.69 147.36 C2.94 167.82, 2.58 204.95, 2.19 223.39 C1.81 241.83, 1.73 244.7, 0.39 257.99 C-0.96 271.28, -6.9 289.47, -5.87 303.13 C-4.85 316.79, 3.39 326.75, 6.53 339.94 C9.68 353.12, 12.76 372.76, 12.99 382.25 C13.21 391.74, 7.15 391.64, 7.88 396.88 C8.6 402.13, 11.68 410.88, 17.35 413.72 C23.01 416.55, 35.45 414.16, 41.88 413.91 C48.31 413.66, 56.72 416.7, 55.91 412.2 C55.1 407.7, 39.85 393.29, 37.02 386.92 C34.2 380.56, 39.56 378.57, 38.95 374.01 C38.33 369.45, 32.94 367.88, 33.32 359.56 C33.7 351.24, 41.69 336.14, 41.22 324.09 C40.76 312.04, 31.03 297.66, 30.54 287.27 C30.05 276.87, 36.52 267.98, 38.27 261.72 C40.02 255.47, 39.46 255.17, 41.05 249.72 C42.64 244.28, 47.01 236.44, 47.81 229.04 C48.6 221.63, 44.35 215.04, 45.82 205.3 C47.29 195.56, 54.47 183.32, 56.6 170.61 C58.73 157.89, 59.52 122.13, 58.6 129.02 C57.69 135.92, 51.66 190.73, 51.11 211.97 C50.57 233.21, 55.41 242.33, 55.32 256.48 C55.24 270.62, 52.28 284.41, 50.61 296.84 C48.94 309.27, 44 322.44, 45.3 331.07 C46.61 339.7, 55.99 339.27, 58.44 348.64 C60.9 358.01, 61.03 377.68, 60.05 387.28 C59.06 396.89, 50.43 401.98, 52.51 406.28 C54.6 410.58, 61.11 411.12, 72.57 413.07 C84.03 415.01, 110.32 418.49, 121.26 417.95 C132.19 417.41, 137.87 412.65, 138.18 409.85 C138.49 407.05, 132.31 405.05, 123.12 401.16 C113.93 397.28, 89.37 394.04, 83.05 386.54 C76.73 379.04, 84.57 370, 85.18 356.18 C85.79 342.35, 87.3 315.84, 86.72 303.57 C86.14 291.31, 80.26 290.98, 81.69 282.58 C83.13 274.19, 93.4 261.37, 95.33 253.23 C97.27 245.08, 91.21 247.57, 93.3 233.72 C95.4 219.87, 105.36 189.28, 107.91 170.12 C110.47 150.96, 108.61 133.02, 108.63 118.75 C108.66 104.47, 107.56 92.77, 108.06 84.46 C108.56 76.15, 112.39 72.58, 111.63 68.88 C110.87 65.18, 105.02 65.75, 103.5 62.27 C101.98 58.78, 101.71 53.06, 102.51 47.96 C103.32 42.86, 106.39 40.18, 108.32 31.68 C110.25 23.18, 113.31 2.2, 114.07 -3.05" stroke="#000000" stroke-width="4" fill="none"></path></g></g><g stroke-linecap="round"><g transform="translate(361.5958336192416 258.3692642863034) rotate(0 123.5594408337679 -17.26714608836005)"><path d="M0.01 0.86 C3.58 0.52, 16 -2.67, 20.63 -2.26 C25.25 -1.85, 20.79 2.49, 27.79 3.31 C34.79 4.14, 53.44 1.73, 62.63 2.69 C71.81 3.65, 74.26 6.84, 82.9 9.05 C91.53 11.26, 104.54 15.91, 114.44 15.95 C124.33 16, 130.15 9.23, 142.26 9.3 C154.36 9.37, 176.45 17.16, 187.08 16.37 C197.71 15.58, 199.91 6.66, 206.04 4.55 C212.16 2.44, 217.02 2.02, 223.86 3.73 C230.69 5.43, 246.85 13.7, 247.03 14.8 C247.2 15.9, 224.69 9.58, 224.9 10.31 C225.1 11.04, 248.3 17.51, 248.26 19.19 C248.22 20.87, 225.55 18.97, 224.67 20.41 C223.79 21.85, 243.95 26.62, 242.97 27.85 C241.99 29.08, 220.56 26.61, 218.77 27.8 C216.98 28.98, 236.31 34.52, 232.24 34.94 C228.16 35.35, 207.25 29.06, 194.3 30.3 C181.35 31.53, 167.9 41.29, 154.55 42.36 C141.19 43.43, 126.91 37.4, 114.18 36.71 C101.46 36.03, 87.78 38, 78.2 38.25 C68.62 38.5, 61.8 38.63, 56.71 38.22 C51.62 37.81, 53.59 33.26, 47.67 35.79 C41.75 38.32, 25.81 52.77, 21.18 53.42 C16.56 54.07, 16.01 44.77, 19.93 39.68 C23.84 34.6, 32.6 28.43, 44.68 22.89 C56.75 17.35, 79.54 11.24, 92.38 6.47 C105.23 1.71, 112.1 -2.31, 121.75 -5.7 C131.4 -9.08, 142.07 -9.74, 150.29 -13.82 C158.51 -17.9, 163.37 -25.69, 171.08 -30.18 C178.78 -34.67, 187.39 -34.93, 196.52 -40.77 C205.66 -46.62, 223.85 -61.6, 225.88 -65.27 C227.92 -68.94, 208.67 -60.8, 208.74 -62.8 C208.82 -64.79, 225.5 -74.81, 226.34 -77.23 C227.19 -79.66, 214.08 -75.74, 213.82 -77.37 C213.56 -79, 225.46 -84.95, 224.79 -87 C224.12 -89.04, 215.39 -91.36, 209.79 -89.64 C204.2 -87.92, 197.61 -81.93, 191.22 -76.66 C184.83 -71.39, 183.47 -63.52, 171.46 -58.02 C159.44 -52.53, 130.14 -49.08, 119.13 -43.69 C108.13 -38.3, 114.98 -29.45, 105.42 -25.67 C95.87 -21.88, 71.03 -23.4, 61.81 -20.99 C52.59 -18.57, 54.64 -12.63, 50.08 -11.18 C45.52 -9.73, 42.84 -14.04, 34.46 -12.28 C26.07 -10.52, 5.48 -2.83, -0.22 -0.61 M-1.44 0.26 C2.09 -0.38, 14.74 -4.62, 20.01 -3.93 C25.28 -3.24, 22.97 3.65, 30.18 4.4 C37.39 5.15, 54.64 -0.3, 63.27 0.56 C71.9 1.43, 73.75 7.23, 81.97 9.6 C90.18 11.96, 102.36 14.48, 112.55 14.76 C122.74 15.03, 130.88 11.03, 143.1 11.25 C155.31 11.47, 175.59 16.93, 185.83 16.09 C196.08 15.26, 198.16 8.4, 204.58 6.26 C211 4.12, 217.32 1.63, 224.35 3.26 C231.38 4.88, 246.87 14.93, 246.77 16.01 C246.67 17.09, 223.46 8.79, 223.76 9.72 C224.06 10.65, 248.44 19.87, 248.56 21.6 C248.68 23.33, 225.29 18.63, 224.45 20.11 C223.62 21.59, 244.37 29.52, 243.55 30.48 C242.72 31.44, 221.55 24.95, 219.48 25.87 C217.42 26.79, 235.59 35.26, 231.17 35.98 C226.75 36.7, 205.41 29.02, 192.98 30.16 C180.55 31.31, 169.65 41.48, 156.58 42.87 C143.51 44.26, 127.25 38.91, 114.57 38.51 C101.89 38.1, 90.16 40.17, 80.49 40.46 C70.83 40.75, 61.98 41.21, 56.58 40.25 C51.17 39.29, 54.2 32.11, 48.07 34.68 C41.94 37.25, 24.7 54.89, 19.78 55.69 C14.85 56.49, 14.22 44.99, 18.54 39.48 C22.85 33.97, 33.12 28.17, 45.66 22.62 C58.2 17.06, 81.38 11.09, 93.78 6.15 C106.18 1.21, 110.62 -3.9, 120.08 -7.03 C129.54 -10.15, 142.34 -8.57, 150.55 -12.61 C158.76 -16.66, 161.7 -26.39, 169.32 -31.3 C176.94 -36.2, 186.86 -36.17, 196.29 -42.04 C205.72 -47.91, 223.62 -62.94, 225.91 -66.51 C228.19 -70.08, 209.74 -61.77, 210 -63.45 C210.26 -65.13, 226.65 -74.16, 227.45 -76.58 C228.25 -79, 215.17 -75.96, 214.78 -77.98 C214.39 -79.99, 225.68 -87.04, 225.11 -88.67 C224.54 -90.29, 216.88 -89.59, 211.35 -87.74 C205.82 -85.88, 198.67 -82.54, 191.92 -77.53 C185.18 -72.53, 182.7 -63.23, 170.86 -57.7 C159.02 -52.16, 132.26 -49.81, 120.91 -44.32 C109.55 -38.82, 112.36 -28.72, 102.73 -24.73 C93.09 -20.73, 72.05 -22.65, 63.11 -20.34 C54.18 -18.02, 53.76 -11.86, 49.1 -10.83 C44.45 -9.81, 43.58 -15.82, 35.19 -14.2 C26.81 -12.58, 4.86 -3.76, -1.2 -1.1" stroke="#000000" stroke-width="4" fill="none"></path></g></g><g stroke-linecap="round"><g transform="translate(267.9569822172343 424.73856628061276) rotate(0 54.77289469232255 127.78902750119417)"><path d="M0.86 0.63 C-2.57 6.2, -12.63 17.72, -20.81 33.48 C-28.98 49.25, -41.54 83.39, -48.21 95.2 C-54.89 107.01, -57.83 100.11, -60.85 104.36 C-63.88 108.61, -61.65 114.77, -66.37 120.69 C-71.09 126.6, -83.28 129.08, -89.19 139.83 C-95.09 150.57, -97.43 170.96, -101.81 185.14 C-106.18 199.31, -108.89 215.89, -115.43 224.86 C-121.98 233.82, -142.9 232.69, -141.08 238.93 C-139.25 245.16, -111.66 261.14, -104.47 262.24 C-97.27 263.34, -100.27 251.15, -97.91 245.52 C-95.55 239.89, -92.42 233.77, -90.31 228.47 C-88.21 223.16, -88.79 219.76, -85.25 213.7 C-81.72 207.65, -74.83 200.08, -69.1 192.14 C-63.38 184.2, -56.27 175.34, -50.9 166.06 C-45.52 156.78, -43.3 145.92, -36.86 136.47 C-30.41 127.02, -20.33 120.06, -12.22 109.37 C-4.1 98.68, 3.87 81.33, 11.82 72.32 C19.78 63.32, 28.62 63.92, 35.48 55.36 C42.35 46.8, 47.9 24.67, 53.01 20.96 C58.12 17.25, 62.68 25.16, 66.16 33.1 C69.65 41.03, 67.89 57.32, 73.91 68.57 C79.94 79.83, 96.46 91.03, 102.32 100.63 C108.17 110.23, 105.61 119.3, 109.04 126.18 C112.48 133.05, 119.4 133.41, 122.95 141.9 C126.49 150.39, 124.57 165.84, 130.32 177.1 C136.07 188.37, 148.15 197.72, 157.45 209.46 C166.74 221.19, 181.45 236.61, 186.11 247.52 C190.77 258.42, 182.84 271.29, 185.42 274.89 C187.99 278.5, 196.81 271.41, 201.55 269.16 C206.3 266.91, 207.86 264.3, 213.88 261.37 C219.89 258.44, 231.77 255.25, 237.64 251.59 C243.52 247.93, 250.22 241.43, 249.15 239.4 C248.08 237.36, 238.3 238.94, 231.24 239.38 C224.18 239.81, 212.84 245.56, 206.8 242.01 C200.76 238.46, 198.06 228.67, 195.02 218.05 C191.98 207.44, 193.62 192.01, 188.55 178.3 C183.48 164.58, 169.9 144.42, 164.59 135.76 C159.28 127.1, 158.96 130.2, 156.7 126.36 C154.44 122.51, 153.44 118.32, 151.03 112.72 C148.63 107.11, 143.76 100.75, 142.25 92.71 C140.75 84.68, 143.65 73.38, 142 64.53 C140.35 55.67, 137.09 49, 132.36 39.6 C127.63 30.19, 117.63 18.1, 113.62 8.12 C109.61 -1.86, 108.9 -15.43, 108.28 -20.29 M-0.15 -0.09 C-3.64 5.61, -13.13 18.96, -21.3 34.52 C-29.48 50.07, -42.73 81.95, -49.21 93.25 C-55.69 104.56, -57.1 97.64, -60.18 102.34 C-63.25 107.04, -63.06 115.33, -67.68 121.44 C-72.31 127.54, -82.29 128.02, -87.93 138.99 C-93.57 149.95, -96.79 172.94, -101.53 187.23 C-106.28 201.52, -110.04 215.78, -116.4 224.73 C-122.75 233.68, -141.77 234.24, -139.65 240.93 C-137.54 247.62, -110.76 263.89, -103.71 264.87 C-96.67 265.84, -99.94 252.91, -97.36 246.78 C-94.78 240.65, -90.22 233.68, -88.23 228.12 C-86.25 222.55, -88.5 219.35, -85.45 213.36 C-82.4 207.37, -75.65 200.22, -69.92 192.19 C-64.19 184.16, -56.2 174.23, -51.04 165.18 C-45.89 156.14, -45.31 147.1, -39 137.91 C-32.69 128.73, -21.96 120.99, -13.18 110.08 C-4.39 99.17, 5.78 81.55, 13.7 72.45 C21.62 63.36, 27.73 63.84, 34.35 55.52 C40.97 47.2, 47.72 25.95, 53.41 22.55 C59.1 19.16, 65.06 27.64, 68.47 35.15 C71.89 42.67, 68.33 56.77, 73.92 67.64 C79.52 78.51, 96.01 90.67, 102.05 100.38 C108.1 110.09, 106.5 118.97, 110.18 125.91 C113.85 132.85, 120.58 133.52, 124.11 142.02 C127.64 150.52, 125.53 165.63, 131.35 176.89 C137.17 188.16, 150.23 198.08, 159.02 209.61 C167.82 221.14, 179.78 235.48, 184.14 246.05 C188.49 256.62, 182.55 269.39, 185.16 273.04 C187.77 276.69, 194.98 270.18, 199.8 267.95 C204.62 265.72, 207.71 262.12, 214.08 259.66 C220.46 257.19, 231.96 256.12, 238.05 253.16 C244.13 250.21, 251.52 244.15, 250.58 241.95 C249.65 239.74, 239.46 240.05, 232.44 239.93 C225.41 239.81, 215.12 244.71, 208.44 241.22 C201.76 237.74, 195.44 229.72, 192.38 219.01 C189.32 208.31, 194.63 190.96, 190.08 176.99 C185.54 163.03, 170.83 143.62, 165.11 135.21 C159.38 126.79, 157.8 130.16, 155.72 126.5 C153.64 122.84, 154.76 118.79, 152.64 113.26 C150.51 107.73, 145.05 101.4, 142.97 93.31 C140.89 85.23, 142.02 73.65, 140.14 64.75 C138.26 55.86, 135.99 49.19, 131.71 39.95 C127.42 30.7, 118.53 19.35, 114.43 9.3 C110.33 -0.74, 108.02 -15.26, 107.09 -20.32" stroke="#000000" stroke-width="4" fill="none"></path></g></g><g stroke-linecap="round"><g transform="translate(420.1792044394606 291.96078850283175) rotate(0 26.762819462177504 -3.8643225748513714)"><path d="M0.63 0.86 C2.69 -0.19, 6.33 -4.41, 12.37 -5.44 C18.41 -6.46, 30.05 -4.77, 36.87 -5.3 C43.68 -5.82, 50.57 -7.94, 53.25 -8.59 M-0.51 0.27 C1.92 -0.69, 8.41 -2.88, 14.58 -4.13 C20.75 -5.37, 29.92 -6.68, 36.5 -7.21 C43.07 -7.74, 51.48 -7.04, 54.03 -7.33" stroke="#000000" stroke-width="2" fill="none"></path></g></g><g stroke-linecap="round"><g transform="translate(435.0590843193422 259.4082359502763) rotate(0 16.010568196817076 -10.085767051915298)"><path d="M0.86 -0.96 C3.39 -1.8, 10.83 -1.29, 16.05 -4.38 C21.27 -7.47, 29.57 -16.94, 32.17 -19.52 M-0.15 1.15 C2.12 -0.08, 9.54 -2.36, 14.87 -6.11 C20.2 -9.85, 28.97 -18.66, 31.83 -21.32" stroke="#000000" stroke-width="2" fill="none"></path></g></g><g stroke-linecap="round"><g transform="translate(275.59962485988945 308.86769540974) rotate(0 22.599411354253334 4.011859927827231)"><path d="M-0.96 -0.44 C2.03 1.04, 10.74 9.43, 18.59 9.73 C26.45 10.04, 41.62 2.87, 46.16 1.38 M0.74 -1.71 C3.58 -0.64, 10.51 7.28, 18.04 8.04 C25.57 8.8, 41.2 3.91, 45.93 2.85" stroke="#000000" stroke-width="4" fill="none"></path></g></g><g stroke-linecap="round"><g transform="translate(328.3023275625892 310.2190467610899) rotate(0 24.120616340897868 2.837019649714364)"><path d="M-0.44 0.75 C3.97 2.48, 19.12 9.82, 27.3 9.4 C35.49 8.99, 45.21 0.16, 48.68 -1.75 M1.54 0.1 C5.78 1.6, 19.03 8.46, 26.78 7.82 C34.54 7.18, 44.5 -2.3, 48.07 -3.73" stroke="#000000" stroke-width="4" fill="none"></path></g></g><g stroke-linecap="round"><g transform="translate(325.8698951301558 286.97580351784654) rotate(0 -2.166869325117659 10.493787881288029)"><path d="M0.75 0.82 C0.14 1.52, -4.19 0.62, -4.65 3.81 C-5.11 7.01, -2.4 17.35, -2.02 19.97 M-0.31 0.2 C-0.91 0.56, -4.71 -1.64, -5.06 1.85 C-5.41 5.34, -2.95 18.06, -2.42 21.14" stroke="#000000" stroke-width="2" fill="none"></path></g></g><g stroke-linecap="round"><g transform="translate(327.76178702204925 314.5433710854131) rotate(0 3.32120170014241 7.881006831175455)"><path d="M0.82 1.02 C0.89 2.63, -1.14 8.05, 0.03 10.42 C1.19 12.79, 6.58 14.57, 7.81 15.25 M-0.22 0.52 C-0.23 1.72, -1.95 6.56, -0.76 8.65 C0.42 10.75, 5.55 11.99, 6.89 13.1" stroke="#000000" stroke-width="4" fill="none"></path></g></g><g stroke-linecap="round"><g transform="translate(314.24827350853593 315.62445216649667) rotate(0 -0.41901307052921766 6.275576676664457)"><path d="M1.02 0.3 C2 0.56, 5.93 0.55, 6.63 2.41 C7.34 4.27, 7.68 10, 5.25 11.46 C2.81 12.93, -5.92 11.45, -7.99 11.2 M0.1 -0.59 C0.92 -0.22, 5.28 1.62, 6.04 3.79 C6.81 5.96, 7.01 10.98, 4.68 12.41 C2.35 13.84, -5.78 12.8, -7.96 12.37" stroke="#000000" stroke-width="4" fill="none"></path></g></g><g stroke-linecap="round"><g transform="translate(319.6536789139427 327.5163440583865) rotate(0 3.269271941075658 7.2306163010565)"><path d="M0.3 0.69 C1.42 1.8, 7.53 5.57, 7.54 7.68 C7.56 9.79, 1.44 12.28, 0.38 13.36 M-1 0 C-0.14 1.26, 5.79 3.35, 6.44 5.76 C7.09 8.17, 3.73 12.83, 2.91 14.46" stroke="#000000" stroke-width="4" fill="none"></path></g></g><g stroke-linecap="round"><g transform="translate(348.84286810312915 361.0298575718998) rotate(0 1.1119596679177448 4.326793773675718)"><path d="M0.69 -0.3 C1.43 -0.06, 6.02 0.22, 5.52 1.73 C5.02 3.25, -1.15 7.8, -2.31 8.77 M-0.41 -1.5 C0.12 -1.14, 5.25 0.96, 4.77 2.9 C4.29 4.85, -2.33 9.28, -3.3 10.15" stroke="#000000" stroke-width="4" fill="none"></path></g></g><g stroke-linecap="round"><g transform="translate(299.6536789139427 366.1649927070366) rotate(0 2.161874787888337 1.97259489936215)"><path d="M-0.3 0.38 C0.03 0.78, 1.71 2.5, 2.27 3.09 M1.75 -0.46 C2.44 0.04, 4.51 4.03, 4.62 4.41" stroke="#000000" stroke-width="4" fill="none"></path></g></g><g stroke-linecap="round"><g transform="translate(322.8969221571824 360.2190467610899) rotate(0 4.495751278980151 -1.326905778961418)"><path d="M0.38 -0.7 C0.69 -1.35, 0.97 -4.32, 2.55 -4.2 C4.13 -4.09, 8.81 -0.87, 9.87 0 M-0.88 1.55 C-0.82 1.14, -0.32 -2.47, 1.38 -2.6 C3.08 -2.73, 8.06 -0.04, 9.32 0.76" stroke="#000000" stroke-width="4" fill="none"></path></g></g><g stroke-linecap="round"><g transform="translate(319.11313837340276 365.3541818962267) rotate(0 3.0897577819991966 6.716798918842812)"><path d="M-0.7 -0.42 C0.5 0.22, 6.49 1.78, 6.88 4.19 C7.27 6.61, 2.33 12.52, 1.63 14.08 M1.14 -1.69 C2.21 -1.45, 5.52 -0.51, 5.99 2.29 C6.46 5.09, 4.47 13.16, 3.95 15.12" stroke="#000000" stroke-width="4" fill="none"></path></g></g><g stroke-linecap="round"><g transform="translate(332.35638161664247 366.4352629773066) rotate(0 -1.4469201028077805 6.966045066876575)"><path d="M-0.42 0.12 C-1.09 0.78, -3.58 1.02, -3.64 3.25 C-3.71 5.48, -1.17 11.71, -0.79 13.49 M1.56 -0.86 C0.73 -0.03, -3.81 1.61, -4.38 4.22 C-4.94 6.83, -2.27 12.95, -1.83 14.79" stroke="#000000" stroke-width="4" fill="none"></path></g></g><g stroke-linecap="round"><g transform="translate(325.59962485988945 387.78661432865647) rotate(0 0.032703093249892845 1.6493926396608458)"><path d="M0.12 0.41 C0.1 0.89, -0.83 2.21, -0.81 2.45 M-1.27 -0.42 C-0.87 0.26, 1.22 3.21, 1.34 3.72" stroke="#000000" stroke-width="4" fill="none"></path></g></g><g stroke-linecap="round"><g transform="translate(370.734759995019 398.5974251394591) rotate(0 -10.07456087576702 13.017088359073512)"><path d="M0.41 -1.08 C-1.36 -0.56, -8.38 -0.14, -11.06 3.22 C-13.74 6.58, -14.11 15.25, -15.69 19.08 C-17.27 22.9, -19.68 25.07, -20.56 26.17 M-0.83 0.97 C-2.77 1.68, -10.19 2.08, -12.28 4.74 C-14.37 7.41, -12.08 13.23, -13.37 16.96 C-14.67 20.69, -18.54 25.66, -20.04 27.11" stroke="#000000" stroke-width="4" fill="none"></path></g></g><g stroke-linecap="round"><g transform="translate(285.32935458961583 399.4082359502727) rotate(0 12.723742572680749 13.60445572371674)"><path d="M-1.08 -0.52 C-0.25 -0.77, 2.97 -3.79, 5.11 -1.1 C7.25 1.6, 8.22 10.77, 11.78 15.66 C15.33 20.55, 24.08 26.01, 26.44 28.24 M0.56 1.82 C1.22 1.64, 2.37 -2.1, 4.15 -0.14 C5.93 1.83, 7.51 8.66, 11.24 13.59 C14.97 18.51, 23.78 26.7, 26.52 29.42" stroke="#000000" stroke-width="4" fill="none"></path></g></g><g stroke-linecap="round"><g transform="translate(256.410435670703 500.759587301608) rotate(0 -20.60146174106285 24.136783600939168)"><path d="M-0.52 -0.02 C-2.48 1.31, -7.8 5.84, -11.37 6.91 C-14.93 7.99, -18.83 3.45, -21.91 6.44 C-24.99 9.43, -27.09 20.66, -29.87 24.87 C-32.64 29.07, -36.75 27.95, -38.54 31.68 C-40.33 35.4, -40.09 44.32, -40.61 47.21 M1.41 -1.08 C-0.23 -0.03, -5.26 3.57, -9.23 5.02 C-13.2 6.46, -19.02 4.17, -22.4 7.6 C-25.79 11.02, -26.69 21.48, -29.55 25.54 C-32.4 29.6, -37.35 27.99, -39.52 31.96 C-41.7 35.92, -42.3 46.66, -42.61 49.36" stroke="#000000" stroke-width="4" fill="none"></path></g></g><g stroke-linecap="round"><g transform="translate(207.2212464815093 545.3541818962049) rotate(0 2.032512388210307 8.186019303469152)"><path d="M-0.02 -1.1 C1.08 0.52, 5.43 6.31, 5.56 9.17 C5.69 12.03, 1.65 14.8, 0.77 16.08 M-1.5 0.94 C-0.42 2.24, 4.62 4.57, 4.84 7.32 C5.06 10.08, 0.63 16.22, -0.16 17.47" stroke="#000000" stroke-width="4" fill="none"></path></g></g><g stroke-linecap="round"><g transform="translate(227.4915167517829 560.2190467610681) rotate(0 -8.664726127632548 2.681849783274174)"><path d="M-1.1 0.43 C-2.27 1.01, -4.91 2.73, -7.59 3.47 C-10.26 4.21, -15.7 4.53, -17.16 4.87 M0.53 -0.39 C-0.72 0.37, -5.2 3.82, -8.26 4.84 C-11.33 5.87, -16.63 5.49, -17.86 5.76" stroke="#000000" stroke-width="4" fill="none"></path></g></g><g stroke-linecap="round"><g transform="translate(268.30232756259284 553.7325602745777) rotate(0 4.344570907333491 10.741563540032075)"><path d="M0.43 0.52 C1.64 2.12, 6.15 4.98, 7.25 8.51 C8.35 12.05, 6.97 19.61, 7.03 21.73 M-0.81 -0.25 C0.22 1.66, 4.42 6.77, 6.14 10.12 C7.86 13.48, 9.23 17.79, 9.5 19.88" stroke="#000000" stroke-width="4" fill="none"></path></g></g><g stroke-linecap="round"><g transform="translate(298.8428681031328 518.0568845989046) rotate(0 -7.88076416795775 39.6533280910657)"><path d="M0.52 -0.31 C0.32 1.91, -0.43 8.72, -2.3 13.78 C-4.17 18.85, -9.36 25.3, -10.7 30.06 C-12.04 34.82, -9.41 37.74, -10.34 42.34 C-11.27 46.95, -16.4 51.26, -16.28 57.68 C-16.17 64.09, -10.67 77.22, -9.64 80.83 M-0.66 -1.52 C-0.91 0.8, -1.46 9.43, -3.17 14.9 C-4.89 20.36, -9.87 26.58, -10.98 31.26 C-12.09 35.94, -9.27 38.43, -9.85 42.98 C-10.42 47.52, -14.1 52.37, -14.41 58.55 C-14.72 64.74, -12.52 76.32, -11.7 80.09" stroke="#000000" stroke-width="4" fill="none"></path></g></g><g stroke-linecap="round"><g transform="translate(334.7888140490759 525.6244521664639) rotate(0 3.9296900423182706 23.58648309884515)"><path d="M-0.31 0.13 C-1.42 2.45, -6.5 9.65, -6.22 14.44 C-5.93 19.22, -0.2 24.96, 1.41 28.85 C3.01 32.74, 4 34.68, 3.43 37.77 C2.85 40.86, -3.83 46.35, -2.05 47.39 C-0.28 48.42, 11.64 44.61, 14.07 43.98 M1.72 -0.84 C0.96 1.11, -3.73 8.2, -3.93 12.8 C-4.13 17.4, -0.66 22.46, 0.53 26.75 C1.72 31.05, 3.8 35.02, 3.2 38.56 C2.61 42.09, -4.53 47.24, -3.04 47.97 C-1.55 48.69, 9.5 43.28, 12.12 42.9" stroke="#000000" stroke-width="4" fill="none"></path></g></g><g stroke-linecap="round"><g transform="translate(342.62665188691244 574.0028305448441) rotate(0 -0.026218547011922055 11.136357374389263)"><path d="M0.13 -0.81 C-0.38 0.24, -3.05 3.81, -2.59 6 C-2.13 8.19, 2.12 9.5, 2.9 12.34 C3.68 15.19, 2.07 21.35, 2.1 23.08 M-1.25 1.38 C-1.9 2.65, -3.66 5.46, -3.05 7.43 C-2.45 9.4, 1.54 10.93, 2.38 13.19 C3.23 15.45, 2.12 19.31, 2.02 21.01" stroke="#000000" stroke-width="4" fill="none"></path></g></g><g stroke-linecap="round"><g transform="translate(333.43746269772237 587.2460737880874) rotate(0 6.302665034142592 7.133292316472364)"><path d="M-0.81 0.92 C-0.52 2.33, -0.56 6.58, 1.41 8.58 C3.37 10.58, 9.09 12.02, 10.99 12.91 M0.97 0.36 C1.1 1.39, -1.73 4.45, 0.35 6.7 C2.42 8.96, 11.22 12.49, 13.42 13.9" stroke="#000000" stroke-width="4" fill="none"></path></g></g><g stroke-linecap="round"><g transform="translate(394.24827350852865 572.381208923217) rotate(0 27.50501898784114 44.64831879433521)"><path d="M0.92 -0.21 C4.27 1.12, 13.52 0.8, 20.2 7.21 C26.88 13.61, 35.76 28.92, 41.01 38.22 C46.27 47.52, 49.37 54.25, 51.71 62.99 C54.05 71.74, 54.57 85.82, 55.06 90.67 M-0.05 -1.37 C3.16 0.16, 12.84 1.99, 19.5 8.27 C26.16 14.56, 34.49 27.62, 39.93 36.36 C45.37 45.1, 49.88 51.7, 52.15 60.73 C54.42 69.77, 52.93 85.46, 53.55 90.56" stroke="#000000" stroke-width="4" fill="none"></path></g></g><g stroke-linecap="round"><g transform="translate(472.6266518869088 664.8136413556467) rotate(0 -4.730295263746484 9.070399087090692)"><path d="M-0.21 0.47 C-1.58 1.61, -7.89 4.77, -9.01 7.77 C-10.12 10.77, -7.21 16.76, -6.92 18.47 M-1.79 -0.33 C-2.71 0.88, -5.86 6.22, -6.77 8.99 C-7.67 11.76, -7.21 14.63, -7.2 16.32" stroke="#000000" stroke-width="4" fill="none"></path></g></g><g stroke-linecap="round"><g transform="translate(322.6266518869088 582.1109386529397) rotate(0 2.1435851666960843 6.497223304351451)"><path d="M0.47 -0.9 C0.76 1.45, 2.11 11.49, 2.64 13.89 M-0.74 1.24 C-0.14 3.29, 4.4 10.55, 5.03 12.25" stroke="#000000" stroke-width="4" fill="none"></path></g></g><g stroke-linecap="round"><g transform="translate(329.38340864366546 603.4622900042896) rotate(0 2.999623022988999 46.907453152321466)"><path d="M-0.9 -0.61 C0.19 3.07, 5.14 14.37, 6.33 22.52 C7.52 30.68, 6.55 39.48, 6.24 48.31 C5.92 57.13, 5.41 67.85, 4.45 75.49 C3.49 83.13, 1.25 91.08, 0.48 94.13 M0.83 1.69 C1.86 4.95, 5.04 12.61, 5.86 20.59 C6.68 28.57, 6.04 40.29, 5.77 49.58 C5.49 58.88, 5.28 68.89, 4.2 76.36 C3.12 83.83, -0.23 91.13, -0.73 94.42" stroke="#000000" stroke-width="4" fill="none"></path></g></g><g stroke-linecap="round"><g transform="translate(344.78881404907224 699.1379656799663) rotate(0 -5.476944113041554 6.462611302056587)"><path d="M-0.61 0.92 C-2.02 1.88, -6.21 3.08, -8.02 4.89 C-9.82 6.69, -10.79 10.37, -11.42 11.75 M1.27 0.36 C-0.31 1.04, -6.53 1.02, -8.78 3.06 C-11.03 5.09, -11.73 11.26, -12.23 12.57" stroke="#000000" stroke-width="4" fill="none"></path></g></g><g stroke-linecap="round"><g transform="translate(336.68070594096207 715.894722436723) rotate(0 1.874493655574497 4.654636030877072)"><path d="M0.92 0.36 C1.7 1.85, 3.58 7.04, 3.8 8.31 M-0.06 -0.49 C0.7 1.24, 2.36 8.22, 3.15 9.8" stroke="#000000" stroke-width="4" fill="none"></path></g></g><g stroke-linecap="round"><g transform="translate(291.5455708058289 696.7055332475293) rotate(0 5.265042656772948 0.9398232199589529)"><path d="M0.36 0.56 C1.13 0.02, 2.13 -2.92, 3.98 -2.3 C5.83 -1.69, 10.15 3.28, 11.44 4.27 M-0.91 -0.19 C-0.26 -0.69, 1.1 -1.66, 2.99 -1.27 C4.88 -0.87, 8.96 1.2, 10.43 2.18" stroke="#000000" stroke-width="4" fill="none"></path></g></g><g stroke-linecap="round"><g transform="translate(168.03205729231559 645.6244521664566) rotate(0 3.5260507818252336 5.474209367183278)"><path d="M0.56 -0.07 C1.24 0.2, 3.88 0.15, 4.99 1.98 C6.11 3.81, 6.97 9.46, 7.24 10.89 M-0.6 -1.16 C0.36 -0.75, 5.98 1.07, 7.2 3.28 C8.43 5.49, 6.81 10.76, 6.73 12.11" stroke="#000000" stroke-width="4" fill="none"></path></g></g><g stroke-linecap="round"><g transform="translate(241.5455708058289 538.8676954097036) rotate(0 -1.1265986724365575 2.468518146248954)"><path d="M-0.07 -0.95 C-0.3 -0.06, -0.88 4.86, -0.99 5.89 M-1.57 1.16 C-2.03 1.64, -2.18 3.14, -2.18 4.02" stroke="#000000" stroke-width="4" fill="none"></path></g></g><g stroke-linecap="round"><g transform="translate(112.08611134636158 205.3541818961976) rotate(0 22.27947981899115 6.2654436198440635)"><path d="M-0.95 -0.45 C1.6 0.97, 8.15 6.17, 15.89 8.46 C23.63 10.74, 40.63 12.48, 45.51 13.24 M0.75 -1.74 C3.14 -0.12, 7.88 7.23, 15.2 9.89 C22.51 12.56, 39.67 13.64, 44.66 14.27" stroke="#000000" stroke-width="4" fill="none"></path></g></g><g stroke-linecap="round"><g transform="translate(186.41043567068846 231.5703981124143) rotate(0 30.90435658054912 20.29228542305873)"><path d="M-0.45 0.48 C1.06 0.89, 6.49 -0.45, 9 1.46 C11.5 3.37, 9.87 8.07, 14.59 11.93 C19.31 15.79, 30.83 21.22, 37.31 24.61 C43.8 27.99, 49.34 29.88, 53.5 32.24 C57.66 34.6, 60.8 37.68, 62.26 38.77 M1.51 -0.31 C2.85 0.37, 5.94 0.69, 7.95 2.91 C9.95 5.12, 8.67 9.23, 13.54 12.98 C18.4 16.74, 30.66 22.2, 37.15 25.43 C43.63 28.66, 48.53 29.81, 52.45 32.39 C56.36 34.97, 59.4 39.52, 60.63 40.89" stroke="#000000" stroke-width="4" fill="none"></path></g></g><g stroke-linecap="round"><g transform="translate(185.8698951301485 273.7325602745741) rotate(0 22.888300213463026 7.1612257074776835)"><path d="M0.48 -0.19 C2.64 0.83, 6.71 3.97, 12 5.67 C17.28 7.37, 26.45 8.35, 32.2 10.02 C37.95 11.68, 44.1 14.66, 46.5 15.66 M-0.72 -1.34 C1.35 -0.12, 5.65 4.88, 10.96 6.92 C16.28 8.96, 25.25 9.82, 31.17 10.92 C37.09 12.02, 43.58 13.11, 46.47 13.52" stroke="#000000" stroke-width="4" fill="none"></path></g></g><g stroke-linecap="round"><g transform="translate(383.2203953525095 506.24710898479043) rotate(0 9.25872893112819 20.098807363263063)"><path d="M-0.19 -0.16 C-0.39 1.66, -1.79 7.71, -1.63 11.45 C-1.48 15.2, -1.05 19.14, 0.73 22.3 C2.51 25.46, 7.6 27.51, 9.06 30.41 C10.51 33.31, 7.89 38.51, 9.44 39.7 C10.99 40.88, 17.12 40.68, 18.35 37.54 C19.58 34.4, 16.31 24.9, 16.85 20.85 C17.4 16.81, 20.62 14.48, 21.62 13.27 M-1.75 -1.3 C-2.11 0.65, -3.69 8.62, -2.87 12.73 C-2.04 16.83, 1.11 20.24, 3.21 23.34 C5.3 26.43, 8.82 28.56, 9.72 31.27 C10.62 33.98, 7.42 38.19, 8.59 39.58 C9.76 40.98, 15.26 43.03, 16.72 39.66 C18.18 36.3, 16.69 23.82, 17.32 19.38 C17.96 14.95, 19.79 14.19, 20.53 13.04" stroke="#000000" stroke-width="4" fill="none"></path></g></g><g stroke-linecap="round"><g transform="translate(402.13343883076595 549.5079785500102) rotate(0 9.025590122208087 6.83900768604542)"><path d="M-0.16 -0.55 C0.65 0.37, 2.89 4.2, 5.37 5.29 C7.84 6.39, 12.29 4.53, 14.69 6.01 C17.09 7.5, 18.99 12.86, 19.76 14.22 M-1.71 1.78 C-1.14 2.85, 1.6 6.03, 4.15 6.41 C6.71 6.8, 11.04 3.11, 13.64 4.09 C16.24 5.07, 18.54 11.04, 19.76 12.29" stroke="#000000" stroke-width="4" fill="none"></path></g></g><g stroke-linecap="round"><g transform="translate(403.43778665685386 551.4645002891384) rotate(0 7.502382571258295 8.807865892521875)"><path d="M-0.55 -0.5 C-1.08 0.92, -5.04 6.6, -3.4 8.38 C-1.77 10.17, 5.58 8.45, 9.27 10.19 C12.97 11.93, 17.2 17.38, 18.79 18.83 M1.37 -1.81 C1.23 -0.22, -2.37 7.46, -1.11 9.64 C0.15 11.82, 6.08 9.63, 8.93 11.27 C11.78 12.9, 14.5 18.18, 16 19.43" stroke="#000000" stroke-width="4" fill="none"></path></g></g><g stroke-linecap="round"><g transform="translate(320.8290910046708 270.59493507175375) rotate(0 6.148211373938921 4.349207954334986)"><path d="M-0.5 -0.79 C0.41 0.88, 3.12 9.05, 5.34 9.49 C7.56 9.93, 11.64 3.11, 12.8 1.83 M1.43 1.4 C2.16 2.79, 2.39 8, 4.11 7.79 C5.84 7.57, 10.47 1.43, 11.79 0.11" stroke="#000000" stroke-width="2" fill="none"></path></g></g><g stroke-linecap="round"><g transform="translate(369.52474317858287 261.89928289784166) rotate(0 -2.7433457528550207 6.947108048603525)"><path d="M-0.79 -0.53 C-1.69 0.6, -5.76 3.92, -5.94 6.28 C-6.12 8.63, -2.54 12.38, -1.86 13.61 M0.99 1.81 C0.05 3.14, -5.97 5.47, -6.47 7.57 C-6.97 9.68, -2.31 13.31, -2.01 14.42" stroke="#000000" stroke-width="2" fill="none"></path></g></g><g stroke-linecap="round"><g transform="translate(411.0464823090224 243.85580463697352) rotate(0 -13.484664680652259 26.58511332614154)"><path d="M-0.53 0.8 C-2.3 3.23, -7.35 7.86, -11.11 13.79 C-14.88 19.72, -20.3 30.01, -23.13 36.39 C-25.96 42.77, -27.4 49.42, -28.11 52.07 M1.39 0.17 C-0.53 2.37, -8.62 6.54, -12.3 12.29 C-15.99 18.04, -18.06 27.88, -20.74 34.67 C-23.41 41.45, -26.98 50.01, -28.36 53" stroke="#000000" stroke-width="2" fill="none"></path></g></g><g stroke-linecap="round"><g transform="translate(251.48126491771836 248.85580463697352) rotate(0 7.145517186525922 19.932719498383506)"><path d="M0.8 -0.46 C2.21 1.93, 5.61 8.87, 7.7 13.83 C9.8 18.78, 12.22 24.81, 13.35 29.28 C14.48 33.74, 14.24 38.67, 14.46 40.63 M-0.25 -1.75 C1.19 0.81, 5.13 9.55, 7.37 14.86 C9.62 20.17, 12.01 25.64, 13.2 30.1 C14.4 34.56, 14.55 39.7, 14.54 41.62" stroke="#000000" stroke-width="2" fill="none"></path></g></g><g stroke-linecap="round"><g transform="translate(286.2638736133704 263.63841333262553) rotate(0 -2.099405045706135 7.9154410337828836)"><path d="M-0.46 1.18 C0.34 2.19, 4.23 4.8, 4.26 6.83 C4.29 8.86, 2.2 12.39, -0.29 13.37 C-2.78 14.35, -9.02 12.61, -10.67 12.71 M1.5 0.76 C2.71 1.39, 6.37 3.03, 6.47 5.32 C6.57 7.62, 4.95 13.12, 2.11 14.52 C-0.72 15.92, -8.27 14.29, -10.55 13.75" stroke="#000000" stroke-width="2" fill="none"></path></g></g><g stroke-linecap="round"><g transform="translate(315.61291695497493 267.9074294995453) rotate(0 -18.057216510809667 -39.09676929503928)" fill-rule="evenodd"><path d="M1.77 1.06 L-14.59 -42.28 L-11.72 -48.67 L-16.89 -56.94 L-8.82 -61.88 L-9.42 -68.19 L-6.37 -71.87 L-5.16 -82.79 L-14.16 -73.49 L-18.18 -66.55 L-23.71 -68.26 L-28.57 -65.88 L-31.69 -58.9 L-31.35 -51.28 L-38.17 -47.61 L-35.37 -34.9 L-34.78 -24.25 L-30.62 -23.52 L-18.05 -18.33 L-12.36 -20.64 L-11.75 -15.67 L-7.22 -8.96 L-7.39 -5.67 L-2.42 -3.83 L-3.96 5.04 L-0.6 0.87" stroke="none" stroke-width="0" fill="#000000" fill-rule="evenodd"></path><path d="M1.18 -0.96 C-0.32 -6.14, -5.8 -24.85, -8.22 -31.55 C-10.64 -38.24, -12.89 -38.16, -13.35 -41.14 C-13.82 -44.13, -10.86 -46.68, -11.03 -49.47 C-11.19 -52.27, -14.49 -55.69, -14.33 -57.93 C-14.17 -60.17, -10.65 -61.25, -10.08 -62.9 C-9.51 -64.55, -11.46 -66.24, -10.91 -67.82 C-10.36 -69.39, -7.72 -70.11, -6.77 -72.34 C-5.81 -74.58, -3.98 -80.73, -5.17 -81.23 C-6.37 -81.73, -11.92 -77.47, -13.97 -75.34 C-16.01 -73.22, -15.88 -69.83, -17.45 -68.5 C-19.03 -67.18, -21.37 -68.29, -23.4 -67.39 C-25.42 -66.48, -28.25 -64.35, -29.59 -63.06 C-30.94 -61.77, -31.4 -61.34, -31.45 -59.64 C-31.5 -57.94, -28.91 -55, -29.91 -52.86 C-30.91 -50.72, -36.34 -48.9, -37.45 -46.81 C-38.55 -44.71, -37.36 -42.47, -36.55 -40.31 C-35.73 -38.15, -33.14 -36.46, -32.53 -33.85 C-31.92 -31.24, -33.89 -26.88, -32.9 -24.65 C-31.91 -22.43, -29.28 -21.81, -26.58 -20.53 C-23.88 -19.24, -19.12 -16.89, -16.7 -16.92 C-14.28 -16.95, -13.13 -21.26, -12.07 -20.72 C-11.01 -20.18, -11.23 -15.31, -10.35 -13.67 C-9.47 -12.03, -7.51 -12.05, -6.78 -10.9 C-6.05 -9.75, -6.64 -7.66, -5.97 -6.76 C-5.3 -5.86, -3.1 -7.27, -2.75 -5.51 C-2.41 -3.74, -4.4 2.95, -3.9 3.83 C-3.39 4.71, -0.24 0.62, 0.29 -0.23 M0.34 1.16 C-1.29 -3.86, -6.11 -23.65, -8.55 -30.5 C-10.99 -37.35, -13.91 -36.99, -14.29 -39.95 C-14.67 -42.91, -10.69 -45.37, -10.84 -48.25 C-10.99 -51.14, -14.99 -55.18, -15.21 -57.25 C-15.43 -59.31, -13.03 -58.7, -12.17 -60.64 C-11.31 -62.59, -10.78 -67.02, -10.03 -68.93 C-9.27 -70.84, -8.2 -69.91, -7.65 -72.11 C-7.1 -74.3, -5.73 -81.46, -6.71 -82.1 C-7.69 -82.74, -11.69 -78.3, -13.53 -75.95 C-15.37 -73.61, -16.37 -69.4, -17.74 -68.03 C-19.11 -66.66, -19.81 -68.53, -21.77 -67.74 C-23.72 -66.95, -28.28 -64.53, -29.48 -63.29 C-30.67 -62.05, -28.91 -61.91, -28.93 -60.3 C-28.95 -58.69, -28.37 -56.05, -29.6 -53.63 C-30.83 -51.22, -35.47 -48.07, -36.3 -45.83 C-37.14 -43.59, -35.1 -42.3, -34.59 -40.19 C-34.09 -38.08, -33.31 -35.88, -33.27 -33.17 C-33.22 -30.46, -35.53 -25.8, -34.32 -23.93 C-33.12 -22.06, -28.87 -22.98, -26.05 -21.94 C-23.24 -20.89, -19.77 -18.2, -17.41 -17.67 C-15.05 -17.13, -13.09 -19.34, -11.9 -18.73 C-10.7 -18.12, -11.31 -15.16, -10.23 -14.01 C-9.15 -12.85, -5.8 -12.98, -5.4 -11.81 C-5 -10.64, -8.47 -7.98, -7.81 -6.98 C-7.15 -5.97, -1.77 -7.49, -1.42 -5.77 C-1.08 -4.05, -6.28 2.67, -5.74 3.32 C-5.21 3.98, 0.99 -1.26, 1.78 -1.85" stroke="#000000" stroke-width="2" fill="none"></path></g></g><g stroke-linecap="round"><g transform="translate(361.66229967101754 256.43865013129926) rotate(0 -25.742229118421164 -26.82125104195609)" fill-rule="evenodd"><path d="M-0.7 -0.15 L-12.44 -2.66 L-17.74 -9.82 L-17.06 -5.42 L-12.65 -0.12 L-15.92 -0.17 L-22.78 -4.68 L-20.35 -11.15 L-26.41 -3.24 L-29.08 -9.93 L-33.11 -8.82 L-40.87 -9.2 L-38.65 0.44 L-31.53 0.03 L-30.91 2.13 L-32.15 5.26 L-38.03 7.35 L-42.92 2.21 L-40.42 -4.93 L-42.9 -7.26 L-43.39 -7.84 L-40.84 -10.61 L-46.42 -13.09 L-51.58 -15.27 L-51.15 -16.91 L-57 -27.62 L-51.7 -23.97 L-43.39 -33.54 L-49 -25.79 L-45.44 -23.93 L-33.17 -24.78 L-27.76 -22.88 L-36.75 -21.63 L-40.41 -20.3 L-43.45 -16.67 L-25.47 -16.51 L-21.35 -18.63 L-16.5 -30.61 L-15.13 -25.58 L-12.01 -38.13 L-14.93 -36.79 L-17.79 -37.65 L-10.09 -41.31 L-11.13 -51.96 L-11.04 -55.69 L-12.16 -60.48 L-5.69 -54.95 L-6.81 -47.09 L1.33 -38.72 L0.01 -33.4 L3.74 -28.29 L-2.97 -5.82 L-0.27 -0.73 L0.51 -0.79" stroke="none" stroke-width="0" fill="#000000" fill-rule="evenodd"></path><path d="M-0.96 1.18 C-2.79 0.25, -8.59 -2.31, -11.43 -4.4 C-14.28 -6.49, -17.01 -11.22, -18.01 -11.35 C-19.01 -11.48, -18.47 -7.11, -17.43 -5.17 C-16.39 -3.23, -11.66 -0.62, -11.79 0.29 C-11.92 1.21, -16.72 0.84, -18.22 0.33 C-19.72 -0.19, -20.31 -1.16, -20.79 -2.82 C-21.27 -4.47, -20.57 -9.28, -21.12 -9.62 C-21.67 -9.96, -22.99 -4.57, -24.08 -4.83 C-25.18 -5.09, -25.89 -10.24, -27.7 -11.16 C-29.51 -12.07, -32.74 -10.33, -34.93 -10.31 C-37.13 -10.3, -40.38 -11.98, -40.86 -11.08 C-41.33 -10.18, -38.02 -7.14, -37.76 -4.91 C-37.5 -2.68, -40.16 1.46, -39.29 2.31 C-38.41 3.16, -33.74 0.14, -32.5 0.21 C-31.27 0.27, -31.55 1.44, -31.88 2.71 C-32.22 3.99, -33.33 6.96, -34.52 7.84 C-35.72 8.71, -37.85 8.74, -39.05 7.96 C-40.24 7.18, -41.44 4.87, -41.7 3.17 C-41.97 1.47, -40.28 -0.66, -40.66 -2.26 C-41.04 -3.85, -43.12 -5.23, -43.97 -6.39 C-44.83 -7.55, -46.15 -8.19, -45.8 -9.24 C-45.44 -10.29, -41.41 -12.14, -41.83 -12.71 C-42.25 -13.27, -46.84 -11.97, -48.32 -12.64 C-49.8 -13.31, -50.06 -16.25, -50.72 -16.7 C-51.39 -17.16, -51.09 -13.46, -52.31 -15.38 C-53.53 -17.3, -57.95 -26.87, -58.03 -28.22 C-58.12 -29.58, -54.42 -23.55, -52.83 -23.52 C-51.25 -23.5, -50.09 -26.45, -48.54 -28.08 C-47 -29.7, -43.57 -33.78, -43.56 -33.28 C-43.55 -32.78, -48.56 -26.73, -48.48 -25.06 C-48.4 -23.38, -44.76 -23.4, -43.09 -23.21 C-41.42 -23.01, -40.16 -23.79, -38.46 -23.88 C-36.76 -23.98, -34.7 -24.02, -32.89 -23.78 C-31.08 -23.54, -28.52 -22.93, -27.61 -22.44 C-26.7 -21.94, -26.56 -20.74, -27.45 -20.82 C-28.34 -20.91, -31.29 -22.54, -32.94 -22.96 C-34.59 -23.38, -36.05 -23.78, -37.34 -23.35 C-38.62 -22.92, -39.85 -21.82, -40.65 -20.4 C-41.46 -18.98, -43.28 -15.6, -42.17 -14.82 C-41.06 -14.04, -36.82 -15.35, -33.98 -15.71 C-31.15 -16.06, -27.52 -16.13, -25.15 -16.94 C-22.79 -17.74, -20.83 -19.17, -19.79 -20.56 C-18.76 -21.95, -19.52 -23.73, -18.94 -25.27 C-18.36 -26.81, -17.21 -29.44, -16.33 -29.8 C-15.45 -30.17, -14.26 -26.07, -13.67 -27.48 C-13.07 -28.9, -12.46 -36.71, -12.75 -38.29 C-13.04 -39.87, -14.8 -36.86, -15.4 -36.97 C-16 -37.08, -16.96 -37.82, -16.37 -38.95 C-15.77 -40.08, -12.71 -41.61, -11.83 -43.76 C-10.95 -45.92, -11.22 -50.24, -11.09 -51.89 C-10.96 -53.54, -10.95 -52.88, -11.04 -53.68 C-11.12 -54.47, -11.29 -55.26, -11.59 -56.67 C-11.88 -58.09, -13.76 -62.32, -12.81 -62.16 C-11.86 -62.01, -6.82 -58.32, -5.88 -55.74 C-4.94 -53.15, -8.09 -49.27, -7.16 -46.67 C-6.23 -44.07, -1.38 -42.47, -0.32 -40.14 C0.73 -37.82, -1.85 -34.69, -0.83 -32.72 C0.19 -30.75, 5.63 -30.46, 5.81 -28.34 C5.98 -26.21, 1.27 -22.73, 0.22 -19.99 C-0.82 -17.25, -0.26 -13.75, -0.47 -11.87 C-0.69 -9.99, -0.68 -9.51, -1.07 -8.71 C-1.45 -7.9, -2.62 -7.63, -2.77 -7.04 C-2.92 -6.45, -2.51 -5.91, -1.97 -5.15 C-1.43 -4.38, 0.23 -3.48, 0.47 -2.46 C0.71 -1.44, -0.57 0.47, -0.55 0.99 M0.74 0.75 C-0.68 0.5, -5.94 -1.22, -9.22 -3.03 C-12.49 -4.84, -17.59 -9.41, -18.9 -10.1 C-20.21 -10.78, -18.05 -8.96, -17.07 -7.14 C-16.08 -5.31, -12.95 -0.27, -12.97 0.84 C-12.99 1.95, -16.02 0.33, -17.17 -0.48 C-18.33 -1.29, -19.18 -2.46, -19.92 -4.02 C-20.65 -5.58, -20.68 -10.01, -21.57 -9.83 C-22.46 -9.64, -24.32 -3.1, -25.24 -2.88 C-26.16 -2.67, -25.44 -7.38, -27.09 -8.56 C-28.74 -9.73, -32.61 -9.44, -35.13 -9.94 C-37.65 -10.45, -41.29 -12.85, -42.2 -11.61 C-43.11 -10.37, -41.5 -4.8, -40.6 -2.51 C-39.7 -0.23, -38.17 1.72, -36.8 2.1 C-35.43 2.48, -33.34 -0.48, -32.39 -0.24 C-31.44 -0.01, -31.06 2.56, -31.12 3.51 C-31.18 4.46, -31.26 4.68, -32.74 5.48 C-34.22 6.28, -38.38 8.63, -40.02 8.29 C-41.67 7.96, -42.66 5.46, -42.63 3.47 C-42.59 1.48, -39.48 -1.81, -39.81 -3.66 C-40.14 -5.52, -43.61 -6.56, -44.61 -7.69 C-45.62 -8.82, -46.38 -9.43, -45.83 -10.45 C-45.28 -11.47, -41.17 -13.34, -41.32 -13.83 C-41.47 -14.31, -45.33 -12.96, -46.71 -13.36 C-48.08 -13.76, -48.82 -15.94, -49.58 -16.24 C-50.34 -16.54, -50.09 -13.12, -51.27 -15.18 C-52.45 -17.23, -56.61 -27.45, -56.64 -28.57 C-56.67 -29.7, -52.71 -21.73, -51.43 -21.9 C-50.16 -22.08, -50.01 -28.02, -48.97 -29.61 C-47.93 -31.21, -45.17 -32.48, -45.22 -31.46 C-45.27 -30.44, -49.67 -25.11, -49.28 -23.5 C-48.89 -21.88, -44.41 -21.69, -42.87 -21.75 C-41.33 -21.82, -41.4 -23.25, -40.04 -23.9 C-38.69 -24.55, -37.07 -25.82, -34.73 -25.66 C-32.39 -25.49, -26.77 -23.96, -26.01 -22.9 C-25.26 -21.85, -29.33 -19.68, -30.18 -19.34 C-31.03 -19, -29.53 -20.58, -31.13 -20.85 C-32.73 -21.12, -38.12 -21.04, -39.78 -20.95 C-41.43 -20.85, -40.98 -21.33, -41.05 -20.27 C-41.12 -19.21, -41.33 -15.37, -40.18 -14.56 C-39.02 -13.76, -36.83 -14.97, -34.11 -15.41 C-31.39 -15.86, -26.14 -16.33, -23.86 -17.22 C-21.59 -18.11, -21.26 -19.52, -20.45 -20.74 C-19.63 -21.96, -19.51 -23.5, -18.99 -24.53 C-18.48 -25.56, -18.04 -26.45, -17.35 -26.93 C-16.66 -27.4, -15.43 -25.37, -14.86 -27.37 C-14.28 -29.37, -13.84 -37.63, -13.89 -38.92 C-13.93 -40.21, -14.69 -35.4, -15.13 -35.09 C-15.58 -34.77, -17.21 -35.53, -16.55 -37.02 C-15.9 -38.5, -11.75 -41.78, -11.18 -43.99 C-10.61 -46.21, -13.22 -48.61, -13.13 -50.29 C-13.05 -51.96, -10.52 -52.98, -10.69 -54.04 C-10.85 -55.09, -13.69 -55.37, -14.11 -56.63 C-14.52 -57.89, -14.4 -61.6, -13.17 -61.59 C-11.94 -61.59, -7.79 -59.37, -6.71 -56.6 C-5.63 -53.83, -7.5 -47.6, -6.69 -44.97 C-5.89 -42.35, -3.03 -42.95, -1.87 -40.86 C-0.71 -38.78, -1.13 -34.35, 0.27 -32.47 C1.68 -30.6, 6.73 -31.83, 6.55 -29.63 C6.37 -27.42, 0.18 -21.83, -0.79 -19.26 C-1.76 -16.68, 1.18 -16.09, 0.73 -14.17 C0.28 -12.25, -2.71 -8.81, -3.48 -7.75 C-4.25 -6.68, -4.06 -8.37, -3.88 -7.76 C-3.7 -7.15, -3.29 -5.17, -2.41 -4.07 C-1.53 -2.96, 1.06 -2.09, 1.4 -1.13 C1.74 -0.16, 0.16 1.3, -0.36 1.72" stroke="#000000" stroke-width="2" fill="none"></path></g></g><g stroke-linecap="round"><g transform="translate(306.9709416463229 218.9077859337749) rotate(0 3.664481742566295 4.9997030378012255)"><path d="M1.18 -0.94 C1.73 -0.86, 3.39 -0.63, 4.49 -0.48 C5.59 -0.33, 7.54 -1.31, 7.78 -0.02 C8.03 1.26, 6.49 5.4, 5.94 7.22 C5.39 9.04, 5.22 11.2, 4.49 10.91 C3.76 10.63, 2.22 7, 1.56 5.51 C0.9 4.01, 0.69 2.58, 0.52 1.97 M0.33 1.18 C0.6 1.53, 2.27 0.89, 3.37 0.93 C4.48 0.97, 7 0.74, 6.96 1.41 C6.91 2.08, 3.75 3.37, 3.12 4.96 C2.49 6.54, 3.77 10.98, 3.17 10.94 C2.58 10.9, -0.14 6.32, -0.45 4.7 C-0.76 3.07, 1.29 1.64, 1.3 1.2" stroke="#000000" stroke-width="2" fill="none"></path></g></g><g stroke-linecap="round"><g transform="translate(319.8104478191599 207.6732180325389) rotate(0 6.614689016501416 8.33596840932529)" fill-rule="evenodd"><path d="M-0.57 -0.51 L-7.93 1.09 L-12.85 -0.43 L-11.94 -5.79 L-6.17 -5.88 L7.52 -5.44 L4.41 -3.69 L4.19 11.02 L6.01 11.23 L9.13 7.21 L5.78 -6.02 L19.55 -5.66 L25.76 -5.74 L22.76 2.85 L21.1 3.85 L15.46 0.82 L12.2 -2.9 L7.94 5.98 L17.02 17.99 L11.42 13.67 L6.36 16.13 L5.34 18.95 L14.73 20.92 L15.4 23.59 L10.44 20.74 L-1.35 21.2 L2.52 16.92 L6.16 15.91 L-2.83 15.89 L-1.3 9.2 L1.33 0.2" stroke="none" stroke-width="0" fill="#000000" fill-rule="evenodd"></path><path d="M-0.94 -0.32 C-1.44 -0.25, -2.9 1, -3.94 1.61 C-4.98 2.22, -5.96 3.49, -7.18 3.35 C-8.41 3.21, -10.08 2.05, -11.3 0.79 C-12.52 -0.48, -15.43 -3.06, -14.52 -4.24 C-13.61 -5.42, -8.93 -5.91, -5.85 -6.27 C-2.78 -6.63, 1.79 -6.34, 3.94 -6.41 C6.09 -6.48, 7.18 -7.06, 7.03 -6.68 C6.88 -6.3, 3.74 -6.07, 3.04 -4.12 C2.34 -2.17, 2.81 2.49, 2.84 5 C2.87 7.5, 2.23 9.79, 3.22 10.9 C4.21 12.01, 7.92 12.18, 8.78 11.63 C9.64 11.09, 8.5 9.09, 8.37 7.62 C8.24 6.15, 8.03 4.63, 7.99 2.8 C7.95 0.97, 8.45 -2.08, 8.12 -3.34 C7.78 -4.59, 5.27 -4.23, 5.97 -4.75 C6.67 -5.28, 10.07 -6.16, 12.31 -6.48 C14.55 -6.81, 16.84 -6.98, 19.41 -6.71 C21.98 -6.43, 26.79 -5.66, 27.73 -4.85 C28.67 -4.03, 25.98 -2.98, 25.04 -1.82 C24.1 -0.66, 22.88 1.44, 22.11 2.12 C21.33 2.79, 21.59 2.12, 20.39 2.23 C19.19 2.34, 16.56 3.4, 14.89 2.79 C13.22 2.19, 11.3 -2.17, 10.39 -1.4 C9.48 -0.62, 9.05 5.35, 9.42 7.46 C9.78 9.57, 11.27 10.11, 12.58 11.28 C13.9 12.46, 16.63 13.35, 17.29 14.5 C17.95 15.66, 16.93 18.1, 16.52 18.22 C16.11 18.34, 16.06 16.13, 14.83 15.24 C13.61 14.34, 10.21 13.02, 9.18 12.85 C8.14 12.67, 8.8 13.26, 8.64 14.2 C8.48 15.14, 7.17 17.38, 8.21 18.46 C9.25 19.54, 13.78 19.89, 14.89 20.67 C16 21.44, 15.39 23.06, 14.86 23.12 C14.32 23.18, 13.32 21.38, 11.69 21.03 C10.06 20.67, 7.1 21.02, 5.08 20.99 C3.07 20.96, 0.8 21.12, -0.42 20.85 C-1.65 20.57, -2.93 19.66, -2.26 19.35 C-1.58 19.05, 2.87 19.67, 3.63 19.01 C4.39 18.35, 2.79 16.07, 2.31 15.4 C1.84 14.74, 1.29 15.17, 0.77 15.04 C0.26 14.91, -0.58 15.79, -0.78 14.63 C-0.98 13.46, -0.55 9.83, -0.42 8.06 C-0.3 6.3, -0.31 5.42, -0.03 4.02 C0.25 2.62, 1.23 0.43, 1.27 -0.32 M0.77 -1.54 C0.17 -0.77, -3.58 2.56, -5.01 3.09 C-6.44 3.61, -6.87 1.77, -7.83 1.6 C-8.79 1.42, -9.95 2.91, -10.76 2.04 C-11.57 1.18, -13.18 -2.08, -12.69 -3.61 C-12.21 -5.15, -10.23 -6.5, -7.87 -7.17 C-5.5 -7.84, -0.9 -7.59, 1.5 -7.62 C3.9 -7.65, 5.95 -8.22, 6.52 -7.35 C7.08 -6.49, 5.44 -4.94, 4.87 -2.45 C4.3 0.04, 3.31 5.22, 3.09 7.59 C2.88 9.96, 2.8 11.24, 3.61 11.77 C4.42 12.3, 7.21 11.6, 7.96 10.77 C8.71 9.94, 8.28 8.12, 8.13 6.78 C7.98 5.44, 7.06 3.96, 7.07 2.72 C7.08 1.47, 8.29 0.87, 8.17 -0.69 C8.06 -2.24, 5.85 -5.76, 6.38 -6.61 C6.92 -7.46, 9.33 -5.82, 11.37 -5.77 C13.4 -5.72, 16.03 -6.55, 18.59 -6.3 C21.15 -6.04, 25.48 -5.26, 26.71 -4.22 C27.94 -3.18, 26.36 -0.94, 25.97 -0.06 C25.58 0.83, 25.15 0.35, 24.36 1.07 C23.57 1.8, 22.79 4.12, 21.21 4.29 C19.62 4.46, 16.46 3.16, 14.85 2.09 C13.23 1.03, 12.16 -3.11, 11.52 -2.11 C10.87 -1.11, 10.6 5.88, 10.96 8.1 C11.32 10.33, 12.37 10.3, 13.67 11.22 C14.97 12.15, 18.13 12.65, 18.75 13.64 C19.37 14.63, 17.97 16.71, 17.38 17.16 C16.8 17.6, 16.43 16.69, 15.27 16.31 C14.11 15.94, 11.53 15.03, 10.41 14.9 C9.3 14.78, 8.9 15.18, 8.59 15.56 C8.29 15.94, 7.86 16.33, 8.58 17.2 C9.31 18.06, 11.59 19.56, 12.92 20.77 C14.26 21.99, 17.07 24.56, 16.6 24.5 C16.13 24.44, 11.97 20.83, 10.1 20.44 C8.22 20.04, 7.28 21.76, 5.33 22.13 C3.38 22.49, -0.5 22.67, -1.6 22.63 C-2.69 22.59, -1.94 22.34, -1.22 21.88 C-0.51 21.42, 1.82 21, 2.69 19.87 C3.57 18.73, 4.27 15.84, 4.01 15.06 C3.75 14.29, 2.26 15.28, 1.14 15.21 C0.01 15.14, -2.84 15.93, -2.73 14.65 C-2.62 13.36, 1.31 9.13, 1.8 7.48 C2.28 5.82, 0.35 6.06, 0.19 4.71 C0.02 3.37, 0.48 0.27, 0.81 -0.6" stroke="#000000" stroke-width="2" fill="none"></path></g></g><g stroke-linecap="round"><g transform="translate(278.94625028829614 235.69790939056202) rotate(0 46.68534148327444 -26.841831473560717)"><path d="M-0.32 -0.23 C-0.58 -1.11, 0.28 -4.76, -0.36 -6.2 C-1.01 -7.63, -3.82 -7.28, -4.18 -8.83 C-4.55 -10.38, -2.35 -12.79, -2.55 -15.51 C-2.74 -18.22, -6.03 -22.72, -5.35 -25.11 C-4.68 -27.51, 0.59 -28.08, 1.51 -29.89 C2.42 -31.69, -0.5 -33.95, 0.13 -35.94 C0.77 -37.92, 4.67 -39.85, 5.29 -41.78 C5.92 -43.71, 2.72 -46.34, 3.9 -47.53 C5.09 -48.71, 11.09 -48.02, 12.4 -48.88 C13.71 -49.74, 9.18 -49.69, 11.76 -52.7 C14.35 -55.71, 23.72 -64.46, 27.93 -66.94 C32.14 -69.42, 34.01 -67.92, 37 -67.57 C40 -67.22, 43.84 -64.71, 45.89 -64.84 C47.93 -64.97, 45.66 -68.2, 49.26 -68.35 C52.85 -68.49, 63.34 -67.07, 67.47 -65.71 C71.59 -64.36, 72.22 -62.38, 74.01 -60.22 C75.8 -58.06, 75.98 -54.13, 78.23 -52.76 C80.48 -51.39, 86.15 -53.18, 87.5 -52 C88.85 -50.82, 85.47 -47.53, 86.33 -45.67 C87.18 -43.81, 92.22 -42.52, 92.61 -40.84 C93 -39.16, 87.59 -37.95, 88.65 -35.6 C89.71 -33.26, 98.25 -29.46, 98.96 -26.77 C99.68 -24.08, 92.74 -22.18, 92.93 -19.47 C93.11 -16.76, 100.06 -12.84, 100.05 -10.5 C100.05 -8.16, 93.57 -6.93, 92.89 -5.43 C92.21 -3.93, 96.54 -3.52, 95.99 -1.51 C95.43 0.51, 90.42 5.03, 89.58 6.69 C88.73 8.34, 92.37 6.96, 90.92 8.44 C89.46 9.91, 82.61 14.32, 80.87 15.56 M1.71 -1.4 C1.18 -2.58, -0.36 -6.62, -1.37 -8.2 C-2.38 -9.78, -4.23 -9.79, -4.36 -10.88 C-4.49 -11.97, -1.77 -12.5, -2.15 -14.77 C-2.52 -17.03, -7.45 -21.89, -6.59 -24.49 C-5.72 -27.09, 1.81 -28.3, 3.06 -30.35 C4.31 -32.39, 0.16 -34.78, 0.91 -36.77 C1.67 -38.75, 6.87 -40.77, 7.6 -42.27 C8.33 -43.77, 4.46 -44.6, 5.28 -45.77 C6.11 -46.93, 11.44 -47.76, 12.55 -49.26 C13.67 -50.77, 9.11 -51.69, 11.97 -54.78 C14.84 -57.88, 25.53 -65.53, 29.74 -67.83 C33.95 -70.13, 34.62 -69.02, 37.21 -68.6 C39.81 -68.18, 43.3 -65.77, 45.29 -65.31 C47.28 -64.85, 45.78 -65.45, 49.13 -65.87 C52.48 -66.29, 61.46 -68.35, 65.39 -67.81 C69.33 -67.28, 70.79 -65.3, 72.72 -62.67 C74.66 -60.04, 74.7 -53.92, 76.99 -52.03 C79.28 -50.13, 84.86 -52.62, 86.48 -51.3 C88.1 -49.98, 85.83 -45.75, 86.7 -44.11 C87.56 -42.48, 91.34 -42.69, 91.67 -41.5 C92 -40.31, 87.44 -39.81, 88.68 -36.98 C89.93 -34.14, 98.72 -27.24, 99.11 -24.49 C99.51 -21.73, 91.19 -22.84, 91.07 -20.47 C90.96 -18.1, 97.89 -12.77, 98.4 -10.28 C98.91 -7.8, 94.36 -7.48, 94.13 -5.57 C93.9 -3.66, 98.07 -0.65, 97.02 1.18 C95.98 3.01, 88.95 4, 87.87 5.4 C86.79 6.8, 91.46 8.05, 90.53 9.57 C89.6 11.09, 84.09 13.71, 82.28 14.53" stroke="#000000" stroke-width="2" fill="none"></path></g></g><g stroke-linecap="round"><g transform="translate(312.2795836216319 186.19173655106442) rotate(0 21.617430477998823 1.2089544499630165)"><path d="M-0.23 -0.12 C2.35 -0.12, 10.28 -0.2, 14.54 -0.36 C18.81 -0.51, 22.91 0.06, 25.37 -1.07 C27.83 -2.19, 27.25 -6.93, 29.31 -7.08 C31.37 -7.23, 36.38 -4.16, 37.73 -1.95 C39.08 0.26, 36.18 4.61, 37.4 6.18 C38.62 7.76, 43.99 7.38, 45.05 7.52 M-1.82 -1.22 C0.71 -1.51, 9.26 -2.16, 13.71 -1.89 C18.17 -1.62, 22.31 1.05, 24.89 0.41 C27.47 -0.24, 27.26 -5.44, 29.19 -5.74 C31.12 -6.04, 35.4 -3.26, 36.49 -1.42 C37.58 0.42, 34.72 3.46, 35.73 5.28 C36.74 7.1, 41.4 8.76, 42.55 9.5" stroke="#000000" stroke-width="2" fill="none"></path></g></g><g stroke-linecap="round"><g transform="translate(324.8721762142268 171.62383531649994) rotate(0 0.05270911090656227 5.5419863813608)"><path d="M-0.12 0.22 C0.23 2.23, 1.57 10.07, 1.74 11.79 M-1.64 -0.7 C-1.32 0.96, 1.06 7.92, 1.39 9.96" stroke="#000000" stroke-width="2" fill="none"></path></g></g><g stroke-linecap="round"><g transform="translate(320.1808181895358 183.35223037822743) rotate(0 -13.308468682005696 0.492504928923438)"><path d="M0.22 1.13 C-0.88 0.95, -3.59 -1.1, -6.85 -1.19 C-10.11 -1.28, -16 -0.12, -19.33 0.57 C-22.67 1.27, -25.7 2.59, -26.84 2.99 M-1.12 0.67 C-2.31 0.12, -4.29 -2.79, -7.51 -3.16 C-10.73 -3.52, -17.32 -2.76, -20.46 -1.53 C-23.6 -0.3, -25.26 3.39, -26.36 4.23" stroke="#000000" stroke-width="2" fill="none"></path></g></g><g transform="translate(123.2967354394168 10) rotate(0 204.34215344947597 39.63533148804487)"><text x="0" y="55.27066297608975" font-family="Virgil, Segoe UI Emoji" font-size="63.41653038087197px" fill="#000000" text-anchor="start" style="white-space: pre;" direction="ltr">Vitruvian man</text></g><g stroke-linecap="round"><g transform="translate(56.49695095771676 771.058866287558) rotate(0 278.47427467629313 -0.13710065409541983)"><path d="M-0.68 0.76 C92.31 0.59, 464.58 -0.68, 557.63 -1.03 M1.16 0.11 C93.97 0.12, 463.85 0.37, 556.42 0.3" stroke="#000000" stroke-width="2" fill="none"></path></g></g><g stroke-linecap="round"><g transform="translate(57.98733557309606 761.5117648382893) rotate(0 -0.4634968895120437 4.916619475414052)"><path d="M0.3 -0.96 C0.22 0.48, 0.05 7.53, -0.22 9.51 M-0.99 1.15 C-1.23 2.67, -1.37 9.47, -1.02 10.8" stroke="#000000" stroke-width="2" fill="none"></path></g></g><g stroke-linecap="round"><g transform="translate(65.6796432654046 758.6912520177775) rotate(0 -1.1569472080427659 6.164078340726547)"><path d="M0.35 0.01 C-0.07 1.92, -2.49 10.1, -2.66 11.9 M-0.93 -1.04 C-0.95 1.03, -0.42 11.27, -0.4 13.36" stroke="#000000" stroke-width="2" fill="none"></path></g></g><g stroke-linecap="round"><g transform="translate(72.08989967566231 756.8963802229027) rotate(0 -0.23308468840332353 6.517275422474341)"><path d="M-0.39 -0.27 C-0.92 2.11, -2.01 10.89, -2.08 13.08 M1.61 -1.45 C1.36 1.21, 0.7 11.91, 0.22 14.49" stroke="#000000" stroke-width="2" fill="none"></path></g></g><g stroke-linecap="round"><g transform="translate(78.75656634233019 757.1527904793165) rotate(0 -0.9776893368320998 6.520447743409903)"><path d="M0.89 -0.78 C0.48 1.39, -2.25 9.94, -2.84 12.2 M-0.11 1.43 C-0.11 3.89, -0.67 12.25, -0.68 13.82" stroke="#000000" stroke-width="2" fill="none"></path></g></g><g stroke-linecap="round"><g transform="translate(83.62836121412329 758.1784315049536) rotate(0 -0.08924825688427518 4.8933548797990625)"><path d="M0.75 0 C0.69 1.68, -0.17 7.71, -0.25 9.27 M-0.31 -1.05 C-0.5 0.92, -0.99 8.87, -0.93 10.83" stroke="#000000" stroke-width="2" fill="none"></path></g></g><g stroke-linecap="round"><g transform="translate(106.44887403463508 760.998944325469) rotate(0 -0.09811292963058804 4.59717399723813)"><path d="M-0.99 -0.36 C-0.7 1.32, 0.56 7.85, 0.68 9.34 M0.7 -1.6 C1 0.34, 0.52 8.97, 0.22 10.79" stroke="#000000" stroke-width="2" fill="none"></path></g></g><g stroke-linecap="round"><g transform="translate(130.29502788078753 759.460482787008) rotate(0 -0.40241399171873127 5.65762751018643)"><path d="M0.23 0.67 C0.44 2.39, 0.16 8.36, 0.24 10.05 M-1.11 -0.02 C-0.92 1.88, -0.71 9.29, -0.44 11.34" stroke="#000000" stroke-width="2" fill="none"></path></g></g><g stroke-linecap="round"><g transform="translate(155.1668227525788 758.1784315049572) rotate(0 -0.3572854872422795 5.612440223656819)"><path d="M0.98 0.27 C0.77 2.33, -0.48 10, -0.75 11.85 M0.03 -0.63 C-0.38 1.16, -1.46 8.63, -1.69 10.3" stroke="#000000" stroke-width="2" fill="none"></path></g></g><g stroke-linecap="round"><g transform="translate(178.50015608591457 758.9476622741877) rotate(0 -1.4489199368676964 5.0537944965157635)"><path d="M0.63 0.51 C0.06 2.02, -1.77 7.61, -2.31 9.24 M-0.5 -0.27 C-1.36 1.37, -3.58 8.38, -3.53 10.38" stroke="#000000" stroke-width="2" fill="none"></path></g></g><g stroke-linecap="round"><g transform="translate(201.8334894192467 760.4861238126487) rotate(0 -0.24857150285515672 5.142983191460374)"><path d="M-0.76 -0.84 C-0.97 1.1, -0.5 9.15, -0.74 11.12 M1.05 1.34 C0.66 3.02, -1.38 8.28, -1.54 9.59" stroke="#000000" stroke-width="2" fill="none"></path></g></g><g stroke-linecap="round"><g transform="translate(471.32066890642636 759.460482787008) rotate(0 0.08221912000726661 5.051193150724146)"><path d="M1.12 -1.2 C1.17 0.37, -0.03 7.79, -0.54 9.67 M0.25 0.79 C0.3 2.55, -0.44 10.09, -0.96 11.3" stroke="#000000" stroke-width="2" fill="none"></path></g></g><g stroke-linecap="round"><g transform="translate(495.1668227525788 758.1784315049572) rotate(0 -0.17209232078448622 6.513268938791526)"><path d="M0.58 0.85 C0.59 3.1, -0.05 10.94, -0.51 12.77 M-0.58 0.25 C-0.59 2.24, -0.46 9, -0.92 11.16" stroke="#000000" stroke-width="2" fill="none"></path></g></g><g stroke-linecap="round"><g transform="translate(519.5257971115516 760.2297135562349) rotate(0 -0.8334089190520899 4.6157907308868715)"><path d="M-1.03 -0.52 C-1.27 0.99, -1.44 8.13, -1.41 9.75 M0.63 1.82 C0.25 2.91, -1.98 6.46, -2.29 7.9" stroke="#000000" stroke-width="2" fill="none"></path></g></g><g stroke-linecap="round"><g transform="translate(541.5770791628329 760.998944325469) rotate(0 0.25209312231254444 5.388954830835701)"><path d="M-0.28 0.45 C-0.47 2.39, -0.42 9.41, -0.56 11.14 M1.77 -0.36 C1.42 1.28, -0.64 7.84, -1.27 9.35" stroke="#000000" stroke-width="2" fill="none"></path></g></g><g stroke-linecap="round"><g transform="translate(567.2181048038601 761.2553545818791) rotate(0 -0.463776500620952 4.981974409683687)"><path d="M-0.14 0.35 C-0.47 1.81, -1.28 7.82, -1.56 9.4 M-1.67 -0.52 C-1.66 1.02, 0.37 8.57, 0.74 10.48" stroke="#000000" stroke-width="2" fill="none"></path></g></g><g stroke-linecap="round"><g transform="translate(590.5514381371922 760.998944325469) rotate(0 0.24173572283234535 5.0033702183560536)"><path d="M1.12 0.91 C0.94 2.52, 0.33 7.13, -0.06 8.68 M0.25 0.35 C-0.12 2.15, -0.23 8.36, -0.64 9.66" stroke="#000000" stroke-width="2" fill="none"></path></g></g><g stroke-linecap="round"><g transform="translate(597.9873355730906 760.7425340690588) rotate(0 -1.4294277588332989 4.766049302024541)"><path d="M0.46 0.28 C0.09 2.04, -2.79 8.74, -3.32 10.15 M-0.75 -0.62 C-0.67 0.86, -0.65 6.77, -1.14 8.51" stroke="#000000" stroke-width="2" fill="none"></path></g></g><g stroke-linecap="round"><g transform="translate(603.8847714705244 757.6656109921369) rotate(0 -0.416705095560701 5.454693931560172)"><path d="M0.78 -0.63 C0.49 1.04, -0.24 8.49, -0.59 10.18 M-0.27 1.65 C-0.83 3.49, -1.82 10.1, -1.58 11.54" stroke="#000000" stroke-width="2" fill="none"></path></g></g><g stroke-linecap="round"><g transform="translate(609.2693868551414 757.4092007357267) rotate(0 -0.5328071132121295 5.486740193889048)"><path d="M1.01 -0.24 C1.01 1.73, -0.75 10.33, -1 12.38 M0.08 -1.41 C-0.01 0.16, -1.88 8.08, -2.07 10.57" stroke="#000000" stroke-width="2" fill="none"></path></g></g><g stroke-linecap="round"><g transform="translate(615.1668227525788 756.6399699664926) rotate(0 -0.72276888247643 6.524556027679068)"><path d="M-1.11 1.03 C-1.44 2.67, -1.31 9.31, -1.19 11 M0.51 0.53 C-0.01 2.88, -1.77 10.51, -1.95 12.52" stroke="#000000" stroke-width="2" fill="none"></path></g></g></svg>